TASAOrbiter.glyphspackage
{
glyphname = exclam;
kernLeft = exclam;
kernRight = exclam;
layers = (
{
layerId = "C5561BE3-178F-4E91-92CF-CFC72B047BCB";
shapes = (
{
closed = 1;
nodes = (
(184,0,l),
(184,114,l),
(76,114,l),
(76,0,l)
);
},
{
closed = 1;
nodes = (
(163,190,l),
(175,500,l),
(175,680,l),
(85,680,l),
(85,500,l),
(97,190,l)
);
}
);
userData = {
com.hugojourdan.ColorFlow = {
"0" = 0;
"1" = 0;
"10" = 0;
"11" = 0;
"2" = 0;
"3" = 0;
"4" = 0;
"5" = 0;
"6" = 0;
"7" = 0;
"8" = 0;
"9" = 0;
};
};
width = 260;
},
{
layerId = "89695F39-7340-4A9C-8DD1-5D7FBCD503D3";
shapes = (
{
closed = 1;
nodes = (
(204,0,l),
(204,134,l),
(36,134,l),
(36,0,l)
);
},
{
closed = 1;
nodes = (
(184,180,l),
(200,470,l),
(200,680,l),
(40,680,l),
(40,470,l),
(56,180,l)
);
}
);
userData = {
com.hugojourdan.ColorFlow = {
"0" = 0;
"1" = 0;
"10" = 0;
"11" = 0;
"2" = 0;
"3" = 0;
"4" = 0;
"5" = 0;
"6" = 0;
"7" = 0;
"8" = 0;
"9" = 0;
};
};
width = 240;
},
{
associatedMasterId = "C5561BE3-178F-4E91-92CF-CFC72B047BCB";
color = 0;
layerId = "BE8659B4-A0E9-43F8-8373-8C139F0AA46C";
name = "Feb 8, 25 at 23:14";
shapes = (
{
closed = 1;
nodes = (
(164,0,l),
(164,100,l),
(61,100,l),
(61,0,l)
);
},
{
closed = 1;
nodes = (
(153,191,l),
(153,680,l),
(71,680,l),
(71,191,l)
);
}
);
userData = {
com.hugojourdan.ColorFlow = {
"0" = 0;
"1" = 0;
"10" = 0;
"11" = 0;
"2" = 0;
"3" = 0;
"4" = 0;
"5" = 0;
"6" = 0;
"7" = 0;
"8" = 0;
"9" = 0;
};
};
width = 225;
},
{
associatedMasterId = "C5561BE3-178F-4E91-92CF-CFC72B047BCB";
color = 0;
layerId = "9194B7EF-AF24-4CA9-ADD9-B8A01FEA9584";
name = "Apr 24, 25 at 20:58";
shapes = (
{
closed = 1;
nodes = (
(161,0,l),
(161,100,l),
(61,100,l),
(61,0,l)
);
},
{
closed = 1;
nodes = (
(143,190,l),
(151,400,l),
(151,680,l),
(71,680,l),
(71,400,l),
(79,190,l)
);
}
);
userData = {
com.hugojourdan.ColorFlow = {
"0" = 0;
"1" = 0;
"10" = 0;
"11" = 0;
"2" = 0;
"3" = 0;
"4" = 0;
"5" = 0;
"6" = 0;
"7" = 0;
"8" = 0;
"9" = 0;
};
};
width = 225;
},
{
associatedMasterId = "C5561BE3-178F-4E91-92CF-CFC72B047BCB";
color = 4;
layerId = "72426553-E8D7-46BE-9E6B-AAF7E450BBF0";
name = "Apr 27, 25 at 01:50";
shapes = (
{
closed = 1;
nodes = (
(178,0,l),
(178,106,l),
(82,106,l),
(82,0,l)
);
},
{
closed = 1;
nodes = (
(163,190,l),
(175,500,l),
(175,680,l),
(85,680,l),
(85,500,l),
(97,190,l)
);
}
);
userData = {
com.hugojourdan.ColorFlow = {
"0" = 0;
"1" = 0;
"10" = 0;
"11" = 0;
"2" = 0;
"3" = 0;
"4" = 0;
"5" = 0;
"6" = 0;
"7" = 0;
"8" = 0;
"9" = 0;
};
};
width = 260;
},
{
associatedMasterId = "89695F39-7340-4A9C-8DD1-5D7FBCD503D3";
color = 0;
layerId = "7347286F-8FBD-4212-A0E3-F2D6D9D0491F";
name = v1;
shapes = (
{
closed = 1;
nodes = (
(207,0,l),
(207,152,l),
(31,152,l),
(31,0,l)
);
},
{
closed = 1;
nodes = (
(202,208,l),
(202,680,l),
(36,680,l),
(36,208,l)
);
}
);
userData = {
com.hugojourdan.ColorFlow = {
"0" = 0;
"1" = 0;
"10" = 0;
"11" = 0;
"2" = 0;
"3" = 0;
"4" = 0;
"5" = 0;
"6" = 0;
"7" = 0;
"8" = 0;
"9" = 0;
};
};
width = 238;
}
);
metricRight = "=|";
unicode = 33;
userData = {
KernOnName = exclam;
KernOnSpecialSpacing = {
L = "spaced-off";
};
};
}
{
glyphname = numbersign;
kernLeft = numbersign;
kernRight = numbersign;
layers = (
{
background = {
shapes = (
{
closed = 1;
nodes = (
(171,0,l),
(320,680,l),
(248,680,l),
(98,0,l)
);
},
{
closed = 1;
nodes = (
(411,0,l),
(561,680,l),
(488,680,l),
(339,0,l)
);
},
{
closed = 1;
nodes = (
(639,428,l),
(639,492,l),
(65,492,l),
(65,428,l)
);
},
{
closed = 1;
nodes = (
(599,190,l),
(599,254,l),
(20,254,l),
(20,190,l)
);
}
);
};
layerId = "C5561BE3-178F-4E91-92CF-CFC72B047BCB";
shapes = (
{
closed = 1;
nodes = (
(195,0,l),
(304,680,l),
(229,680,l),
(119,0,l)
);
},
{
closed = 1;
nodes = (
(431,0,l),
(541,680,l),
(464,680,l),
(355,0,l)
);
},
{
closed = 1;
nodes = (
(640,426,l),
(640,494,l),
(55,494,l),
(55,426,l)
);
},
{
closed = 1;
nodes = (
(610,186,l),
(610,254,l),
(20,254,l),
(20,186,l)
);
}
);
userData = {
com.hugojourdan.ColorFlow = {
"0" = 0;
"1" = 0;
"10" = 0;
"11" = 0;
"2" = 0;
"3" = 0;
"4" = 0;
"5" = 0;
"6" = 0;
"7" = 0;
"8" = 0;
"9" = 0;
};
};
width = 660;
},
{
layerId = "89695F39-7340-4A9C-8DD1-5D7FBCD503D3";
shapes = (
{
closed = 1;
nodes = (
(230,0,l),
(340,680,l),
(200,680,l),
(91,0,l)
);
},
{
closed = 1;
nodes = (
(496,0,l),
(606,680,l),
(466,680,l),
(357,0,l)
);
},
{
closed = 1;
nodes = (
(684,405,l),
(684,535,l),
(42,535,l),
(42,405,l)
);
},
{
closed = 1;
nodes = (
(654,147,l),
(654,277,l),
(12,277,l),
(12,147,l)
);
}
);
userData = {
com.hugojourdan.ColorFlow = {
"0" = 0;
"1" = 0;
"10" = 0;
"11" = 0;
"2" = 0;
"3" = 0;
"4" = 0;
"5" = 0;
"6" = 0;
"7" = 0;
"8" = 0;
"9" = 0;
};
};
width = 696;
},
{
associatedMasterId = "C5561BE3-178F-4E91-92CF-CFC72B047BCB";
color = 0;
layerId = "BA6D6102-AB96-4326-B143-B34818548AEB";
name = "Apr 26, 25 at 22:59";
shapes = (
{
closed = 1;
nodes = (
(171,0,l),
(217,204,l),
(222,240,l),
(269,442,l),
(274,478,l),
(320,680,l),
(248,680,l),
(201,478,l),
(196,442,l),
(150,240,l),
(145,204,l),
(98,0,l)
);
},
{
closed = 1;
nodes = (
(411,0,l),
(458,204,l),
(463,240,l),
(509,442,l),
(514,478,l),
(561,680,l),
(488,680,l),
(442,478,l),
(437,442,l),
(390,240,l),
(385,204,l),
(339,0,l)
);
},
{
closed = 1;
nodes = (
(639,428,l),
(639,492,l),
(65,492,l),
(65,428,l)
);
},
{
closed = 1;
nodes = (
(599,190,l),
(599,254,l),
(20,254,l),
(20,190,l)
);
}
);
userData = {
com.hugojourdan.ColorFlow = {
"0" = 0;
"1" = 0;
"10" = 0;
"11" = 0;
"2" = 0;
"3" = 0;
"4" = 0;
"5" = 0;
"6" = 0;
"7" = 0;
"8" = 0;
"9" = 0;
};
};
width = 659;
},
{
associatedMasterId = "C5561BE3-178F-4E91-92CF-CFC72B047BCB";
color = 0;
layerId = "81951843-EBAE-4EE5-9AA9-830D681606A6";
name = "Apr 27, 25 at 01:19";
shapes = (
{
closed = 1;
nodes = (
(171,0,l),
(217,204,l),
(222,240,l),
(269,442,l),
(274,478,l),
(320,680,l),
(248,680,l),
(201,478,l),
(196,442,l),
(150,240,l),
(145,204,l),
(98,0,l)
);
},
{
closed = 1;
nodes = (
(411,0,l),
(458,204,l),
(463,240,l),
(509,442,l),
(514,478,l),
(561,680,l),
(488,680,l),
(442,478,l),
(437,442,l),
(390,240,l),
(385,204,l),
(339,0,l)
);
},
{
closed = 1;
nodes = (
(639,428,l),
(639,492,l),
(65,492,l),
(65,428,l)
);
},
{
closed = 1;
nodes = (
(599,190,l),
(599,254,l),
(20,254,l),
(20,190,l)
);
}
);
userData = {
com.hugojourdan.ColorFlow = {
"0" = 0;
"1" = 0;
"10" = 0;
"11" = 0;
"2" = 0;
"3" = 0;
"4" = 0;
"5" = 0;
"6" = 0;
"7" = 0;
"8" = 0;
"9" = 0;
};
};
width = 659;
},
{
associatedMasterId = "89695F39-7340-4A9C-8DD1-5D7FBCD503D3";
color = 0;
layerId = "D5AD27C6-31FD-497A-98D7-E173B713E874";
name = v1;
shapes = (
{
closed = 1;
nodes = (
(209,0,l),
(253,192,l),
(258,232,l),
(307,450,l),
(312,490,l),
(356,680,l),
(219,680,l),
(176,490,l),
(171,450,l),
(121,232,l),
(116,192,l),
(73,0,l)
);
},
{
closed = 1;
nodes = (
(459,0,l),
(503,192,l),
(508,232,l),
(557,450,l),
(562,490,l),
(606,680,l),
(469,680,l),
(426,490,l),
(421,450,l),
(371,232,l),
(366,192,l),
(323,0,l)
);
},
{
closed = 1;
nodes = (
(671,406,l),
(671,534,l),
(57,534,l),
(57,406,l)
);
},
{
closed = 1;
nodes = (
(631,148,l),
(631,276,l),
(12,276,l),
(12,148,l)
);
}
);
userData = {
com.hugojourdan.ColorFlow = {
"0" = 0;
"1" = 0;
"10" = 0;
"11" = 0;
"2" = 0;
"3" = 0;
"4" = 0;
"5" = 0;
"6" = 0;
"7" = 0;
"8" = 0;
"9" = 0;
};
};
width = 683;
},
{
associatedMasterId = "C5561BE3-178F-4E91-92CF-CFC72B047BCB";
background = {
shapes = (
{
closed = 1;
nodes = (
(171,0,l),
(320,680,l),
(248,680,l),
(98,0,l)
);
},
{
closed = 1;
nodes = (
(411,0,l),
(561,680,l),
(488,680,l),
(339,0,l)
);
},
{
closed = 1;
nodes = (
(639,428,l),
(639,492,l),
(65,492,l),
(65,428,l)
);
},
{
closed = 1;
nodes = (
(599,190,l),
(599,254,l),
(20,254,l),
(20,190,l)
);
}
);
};
color = 4;
layerId = "9BD68AAB-8F9D-4E9A-AC89-E0DD780098E1";
name = "Jun 2, 25 at 17:45";
shapes = (
{
closed = 1;
nodes = (
(176,0,l),
(225,215,l),
(225,225,l),
(277,455,l),
(277,465,l),
(325,680,l),
(248,680,l),
(199,465,l),
(199,455,l),
(147,225,l),
(147,215,l),
(98,0,l)
);
},
{
closed = 1;
nodes = (
(412,0,l),
(461,215,l),
(461,225,l),
(513,455,l),
(513,465,l),
(562,680,l),
(483,680,l),
(435,465,l),
(435,455,l),
(383,225,l),
(383,215,l),
(334,0,l)
);
},
{
closed = 1;
nodes = (
(640,426,l),
(640,494,l),
(65,494,l),
(65,426,l)
);
},
{
closed = 1;
nodes = (
(600,186,l),
(600,254,l),
(20,254,l),
(20,186,l)
);
}
);
userData = {
com.hugojourdan.ColorFlow = {
"0" = 0;
"1" = 0;
"10" = 0;
"11" = 0;
"2" = 0;
"3" = 0;
"4" = 0;
"5" = 0;
"6" = 0;
"7" = 0;
"8" = 0;
"9" = 0;
};
};
width = 660;
},
{
associatedMasterId = "89695F39-7340-4A9C-8DD1-5D7FBCD503D3";
layerId = "6F647534-6C31-4E4F-B0C2-7E0D15A0C86D";
name = "Jun 2, 25 at 17:45";
shapes = (
{
closed = 1;
nodes = (
(224,0,l),
(268,192,l),
(275,232,l),
(324,450,l),
(331,490,l),
(374,680,l),
(230,680,l),
(187,490,l),
(180,450,l),
(130,232,l),
(123,192,l),
(81,0,l)
);
},
{
closed = 1;
nodes = (
(486,0,l),
(530,192,l),
(537,232,l),
(586,450,l),
(593,490,l),
(636,680,l),
(492,680,l),
(449,490,l),
(442,450,l),
(392,232,l),
(385,192,l),
(343,0,l)
);
},
{
closed = 1;
nodes = (
(704,410,l),
(704,530,l),
(52,530,l),
(52,410,l)
);
},
{
closed = 1;
nodes = (
(664,152,l),
(664,272,l),
(12,272,l),
(12,152,l)
);
}
);
userData = {
com.hugojourdan.ColorFlow = {
"0" = 0;
"1" = 0;
"10" = 0;
"11" = 0;
"2" = 0;
"3" = 0;
"4" = 0;
"5" = 0;
"6" = 0;
"7" = 0;
"8" = 0;
"9" = 0;
};
};
width = 716;
}
);
metricRight = "=|";
unicode = 35;
}
{
glyphname = dollar;
kernLeft = dollar;
kernRight = dollar;
layers = (
{
anchors = (
{
name = bottom;
pos = (317,0);
},
{
name = top;
pos = (317,680);
}
);
background = {
shapes = (
{
pos = (-15,0);
ref = S;
}
);
};
layerId = "89695F39-7340-4A9C-8DD1-5D7FBCD503D3";
shapes = (
{
closed = 1;
nodes = (
(375,-105,l),
(375,20,l),
(371,40,l),
(371,640,l),
(375,660,l),
(375,785,l),
(249,785,l),
(249,660,l),
(253,640,l),
(253,40,l),
(249,20,l),
(249,-105,l)
);
},
{
closed = 1;
nodes = (
(489,-16,o),
(600,70,o),
(600,209,cs),
(600,324,o),
(521,379,o),
(417,402,cs),
(283,432,ls),
(235,443,o),
(203,458,o),
(203,498,cs),
(203,541,o),
(243,573,o),
(310,573,cs),
(395,573,o),
(431,530,o),
(436,481,c),
(598,481,l),
(592,589,o),
(514,696,o),
(320,696,cs),
(146,696,o),
(37,609,o),
(37,476,cs),
(37,366,o),
(113,315,o),
(217,292,cs),
(351,262,ls),
(396,252,o),
(433,234,o),
(433,188,cs),
(433,140,o),
(389,107,o),
(322,107,cs),
(238,107,o),
(195,155,o),
(188,210,c),
(23,210,l),
(29,92,o),
(108,-16,o),
(310,-16,cs)
);
}
);
userData = {
com.hugojourdan.ColorFlow = {
"0" = 0;
"1" = 0;
"10" = 0;
"11" = 0;
"2" = 0;
"3" = 0;
"4" = 0;
"5" = 0;
"6" = 0;
"7" = 0;
"8" = 0;
"9" = 0;
};
};
width = 621;
},
{
associatedMasterId = "C5561BE3-178F-4E91-92CF-CFC72B047BCB";
color = 0;
layerId = "F83CE4B7-E3A8-468F-9710-7D50F269C915";
name = v1;
shapes = (
{
closed = 1;
nodes = (
(445,-5,o),
(541,70,o),
(541,181,cs),
(541,286,o),
(459,340,o),
(364,365,cs),
(260,393,ls),
(195,410,o),
(148,441,o),
(148,507,cs),
(148,573,o),
(199,616,o),
(289,616,cs),
(313,616,ls),
(424,616,o),
(468,548,o),
(471,475,c),
(551,475,l),
(543,579,o),
(465,685,o),
(301,685,cs),
(162,685,o),
(66,609,o),
(66,499,cs),
(66,394,o),
(147,340,o),
(242,315,cs),
(346,287,ls),
(414,269,o),
(459,239,o),
(459,174,cs),
(459,107,o),
(408,64,o),
(318,64,cs),
(294,64,ls),
(183,64,o),
(139,132,o),
(136,205,c),
(56,205,l),
(64,101,o),
(141,-5,o),
(306,-5,cs)
);
},
{
closed = 1;
nodes = (
(340,-85,l),
(340,20,l),
(338,40,l),
(338,640,l),
(340,660,l),
(340,765,l),
(267,765,l),
(267,660,l),
(269,640,l),
(269,40,l),
(267,20,l),
(267,-85,l)
);
}
);
userData = {
com.hugojourdan.ColorFlow = {
"0" = 0;
"1" = 0;
"10" = 0;
"11" = 0;
"2" = 0;
"3" = 0;
"4" = 0;
"5" = 0;
"6" = 0;
"7" = 0;
"8" = 0;
"9" = 0;
};
};
width = 607;
},
{
anchors = (
{
name = bottom;
pos = (319,0);
},
{
name = top;
pos = (319,680);
}
);
background = {
shapes = (
{
pos = (-11,0);
ref = S;
}
);
};
layerId = "C5561BE3-178F-4E91-92CF-CFC72B047BCB";
name = "Deck Regular";
shapes = (
{
closed = 1;
nodes = (
(349,-105,l),
(349,20,l),
(348,40,l),
(348,640,l),
(349,660,l),
(349,785,l),
(283,785,l),
(283,660,l),
(284,640,l),
(284,40,l),
(283,20,l),
(283,-105,l)
);
},
{
closed = 1;
nodes = (
(461,-16,o),
(569,57,o),
(569,186,cs),
(569,295,o),
(498,344,o),
(400,372,cs),
(274,408,ls),
(208,427,o),
(162,449,o),
(162,509,cs),
(162,580,o),
(223,620,o),
(315,620,cs),
(429,620,o),
(473,557,o),
(480,494,c),
(568,494,l),
(562,597,o),
(488,696,o),
(321,696,cs),
(176,696,o),
(72,619,o),
(72,499,cs),
(72,396,o),
(144,354,o),
(237,327,cs),
(363,291,ls),
(432,271,o),
(478,244,o),
(478,179,cs),
(478,107,o),
(415,60,o),
(320,60,cs),
(203,60,o),
(153,125,o),
(147,199,c),
(55,199,l),
(62,81,o),
(143,-16,o),
(316,-16,cs)
);
}
);
userData = {
com.hugojourdan.ColorFlow = {
"0" = 0;
"1" = 0;
"10" = 0;
"11" = 0;
"2" = 0;
"3" = 0;
"4" = 0;
"5" = 0;
"6" = 0;
"7" = 0;
"8" = 0;
"9" = 0;
};
};
width = 624;
},
{
associatedMasterId = "89695F39-7340-4A9C-8DD1-5D7FBCD503D3";
color = 0;
layerId = "EB646165-C44D-4A44-9A6E-E3D5855876BF";
name = v1;
shapes = (
{
closed = 1;
nodes = (
(473,-5,o),
(584,66,o),
(584,202,cs),
(584,309,o),
(512,369,o),
(388,396,cs),
(262,424,ls),
(217,434,o),
(192,455,o),
(192,491,cs),
(192,535,o),
(229,555,o),
(270,555,cs),
(337,555,ls),
(406,555,o),
(435,504,o),
(439,448,c),
(593,448,l),
(584,569,o),
(509,685,o),
(310,685,cs),
(153,685,o),
(42,614,o),
(42,478,cs),
(42,371,o),
(116,311,o),
(239,284,cs),
(364,256,ls),
(409,246,o),
(434,225,o),
(434,189,cs),
(434,145,o),
(395,125,o),
(356,125,cs),
(289,125,ls),
(220,125,o),
(191,176,o),
(187,232,c),
(33,232,l),
(42,109,o),
(117,-5,o),
(316,-5,cs)
);
},
{
closed = 1;
nodes = (
(383,-75,l),
(383,50,l),
(375,70,l),
(375,610,l),
(383,630,l),
(383,755,l),
(243,755,l),
(243,630,l),
(251,610,l),
(251,70,l),
(243,50,l),
(243,-75,l)
);
}
);
userData = {
com.hugojourdan.ColorFlow = {
"0" = 0;
"1" = 0;
"10" = 0;
"11" = 0;
"2" = 0;
"3" = 0;
"4" = 0;
"5" = 0;
"6" = 0;
"7" = 0;
"8" = 0;
"9" = 0;
};
};
width = 626;
},
{
anchors = (
{
name = bottom;
pos = (317,0);
},
{
name = top;
pos = (317,680);
}
);
associatedMasterId = "89695F39-7340-4A9C-8DD1-5D7FBCD503D3";
attr = {
axisRules = (
{
min = 140;
}
);
};
color = 0;
layerId = "F197B011-DAC5-401E-95B4-4DB0968C897B";
name = "Jun 2, 25 at 21:47";
shapes = (
{
closed = 1;
nodes = (
(249,20,l),
(249,-105,l),
(375,-105,l),
(375,20,l)
);
},
{
closed = 1;
nodes = (
(375,660,l),
(375,785,l),
(249,785,l),
(249,660,l)
);
},
{
closed = 1;
nodes = (
(489,-16,o),
(600,70,o),
(600,209,cs),
(600,324,o),
(521,379,o),
(417,402,cs),
(283,432,ls),
(235,443,o),
(203,458,o),
(203,498,cs),
(203,541,o),
(243,573,o),
(310,573,cs),
(395,573,o),
(431,530,o),
(436,481,c),
(598,481,l),
(592,589,o),
(514,696,o),
(320,696,cs),
(146,696,o),
(37,609,o),
(37,476,cs),
(37,366,o),
(113,315,o),
(217,292,cs),
(351,262,ls),
(396,252,o),
(433,234,o),
(433,188,cs),
(433,140,o),
(389,107,o),
(322,107,cs),
(238,107,o),
(195,155,o),
(188,210,c),
(23,210,l),
(29,92,o),
(108,-16,o),
(310,-16,cs)
);
}
);
userData = {
com.hugojourdan.ColorFlow = {
"0" = 0;
"1" = 0;
"10" = 0;
"11" = 0;
"2" = 0;
"3" = 0;
"4" = 0;
"5" = 0;
"6" = 0;
"7" = 0;
"8" = 0;
"9" = 0;
};
};
width = 621;
},
{
anchors = (
{
name = bottom;
pos = (319,0);
},
{
name = top;
pos = (319,680);
}
);
associatedMasterId = "C5561BE3-178F-4E91-92CF-CFC72B047BCB";
attr = {
axisRules = (
{
min = 140;
}
);
};
color = 1;
layerId = "6733792E-A764-466C-82E0-4BC08CCF2E16";
name = "Jun 2, 25 at 21:47";
shapes = (
{
closed = 1;
nodes = (
(283,20,l),
(283,-105,l),
(349,-105,l),
(349,20,l)
);
},
{
closed = 1;
nodes = (
(349,660,l),
(349,785,l),
(283,785,l),
(283,660,l)
);
},
{
closed = 1;
nodes = (
(461,-16,o),
(569,57,o),
(569,186,cs),
(569,295,o),
(498,344,o),
(400,372,cs),
(274,408,ls),
(208,427,o),
(162,449,o),
(162,509,cs),
(162,580,o),
(223,620,o),
(315,620,cs),
(429,620,o),
(473,557,o),
(480,494,c),
(568,494,l),
(562,597,o),
(488,696,o),
(321,696,cs),
(176,696,o),
(72,619,o),
(72,499,cs),
(72,396,o),
(144,354,o),
(237,327,cs),
(363,291,ls),
(432,271,o),
(478,244,o),
(478,179,cs),
(478,107,o),
(415,60,o),
(320,60,cs),
(203,60,o),
(153,125,o),
(147,199,c),
(55,199,l),
(62,81,o),
(143,-16,o),
(316,-16,cs)
);
}
);
userData = {
com.hugojourdan.ColorFlow = {
"0" = 0;
"1" = 0;
"10" = 0;
"11" = 0;
"2" = 0;
"3" = 0;
"4" = 0;
"5" = 0;
"6" = 0;
"7" = 0;
"8" = 0;
"9" = 0;
};
};
width = 624;
}
);
metricLeft = S;
metricRight = S;
unicode = 36;
userData = {
KernOnSpecialSpacing = {
L = symbols;
R = symbols;
};
};
}
{
glyphname = percent;
kernLeft = percent;
kernRight = percent;
layers = (
{
layerId = "C5561BE3-178F-4E91-92CF-CFC72B047BCB";
shapes = (
{
alignment = -1;
pos = (389,0);
ref = _part.percent;
},
{
alignment = -1;
pos = (-12,355);
ref = _part.percent;
},
{
pos = (300,0);
ref = fraction;
}
);
userData = {
com.hugojourdan.ColorFlow = {
"0" = 0;
"1" = 0;
"10" = 0;
"11" = 0;
"2" = 0;
"3" = 0;
"4" = 0;
"5" = 0;
"6" = 0;
"7" = 0;
"8" = 0;
"9" = 0;
};
};
width = 800;
},
{
layerId = "89695F39-7340-4A9C-8DD1-5D7FBCD503D3";
shapes = (
{
alignment = -1;
pos = (454,0);
ref = _part.percent;
},
{
alignment = -1;
pos = (5,335);
ref = _part.percent;
},
{
pos = (331,0);
ref = fraction;
}
);
userData = {
com.hugojourdan.ColorFlow = {
"0" = 0;
"1" = 0;
"10" = 0;
"11" = 0;
"2" = 0;
"3" = 0;
"4" = 0;
"5" = 0;
"6" = 0;
"7" = 0;
"8" = 0;
"9" = 0;
};
};
width = 862;
},
{
associatedMasterId = "89695F39-7340-4A9C-8DD1-5D7FBCD503D3";
color = 0;
layerId = "77371CA5-6682-4086-A445-D1967B4AFA70";
name = "May 13, 25 at 18:30";
shapes = (
{
closed = 1;
nodes = (
(279,0,l),
(774,680,l),
(621,680,l),
(126,0,l)
);
},
{
alignment = -1;
pos = (475,0);
ref = _part.percent;
},
{
alignment = -1;
pos = (5,680);
ref = _part.percent;
scale = (1,-1);
}
);
userData = {
com.hugojourdan.ColorFlow = {
"0" = 0;
"1" = 0;
"10" = 0;
"11" = 0;
"2" = 0;
"3" = 0;
"4" = 0;
"5" = 0;
"6" = 0;
"7" = 0;
"8" = 0;
"9" = 0;
};
};
width = 902;
},
{
associatedMasterId = "C5561BE3-178F-4E91-92CF-CFC72B047BCB";
color = 1;
layerId = "7FDF69E3-8966-4B0C-AD8D-C5E0F38B109E";
name = "May 13, 25 at 18:33";
shapes = (
{
alignment = -1;
pos = (389,0);
ref = _part.percent;
},
{
alignment = -1;
pos = (-12,680);
ref = _part.percent;
scale = (1,-1);
},
{
closed = 1;
nodes = (
(228,0,l),
(664,680,l),
(572,680,l),
(136,0,l)
);
}
);
userData = {
com.hugojourdan.ColorFlow = {
"0" = 0;
"1" = 0;
"10" = 0;
"11" = 0;
"2" = 0;
"3" = 0;
"4" = 0;
"5" = 0;
"6" = 0;
"7" = 0;
"8" = 0;
"9" = 0;
};
};
visible = 1;
width = 791;
}
);
metricRight = "=|";
unicode = 37;
userData = {
KernOnSpecialSpacing = {
L = "spaced-off";
};
};
}
{
glyphname = ampersand;
kernLeft = ampersand;
kernRight = ampersand;
layers = (
{
layerId = "C5561BE3-178F-4E91-92CF-CFC72B047BCB";
shapes = (
{
closed = 1;
nodes = (
(395,-12,o),
(474,20,o),
(524,87,c),
(580,144,o),
(609,235,o),
(609,354,c),
(527,354,l),
(527,253,o),
(515,183,o),
(477,134,c),
(472,127,l),
(429,75,o),
(371,56,o),
(308,56,cs),
(198,56,o),
(141,110,o),
(141,187,cs),
(141,263,o),
(194,298,o),
(257,328,c),
(319,359,l),
(437,410,o),
(492,461,o),
(492,542,cs),
(492,637,o),
(416,692,o),
(314,692,cs),
(207,692,o),
(127,632,o),
(127,528,cs),
(127,467,o),
(154,427,o),
(223,352,cs),
(547,0,l),
(666,0,l),
(299,394,ls),
(240,457,o),
(215,488,o),
(215,537,cs),
(215,595,o),
(254,624,o),
(307,624,cs),
(361,624,o),
(403,596,o),
(403,533,cs),
(403,472,o),
(360,447,o),
(277,408,c),
(210,377,l),
(113,334,o),
(51,284,o),
(51,182,cs),
(51,62,o),
(138,-12,o),
(296,-12,cs)
);
}
);
userData = {
com.hugojourdan.ColorFlow = {
"0" = 0;
"1" = 0;
"10" = 0;
"11" = 0;
"2" = 0;
"3" = 0;
"4" = 0;
"5" = 0;
"6" = 0;
"7" = 0;
"8" = 0;
"9" = 0;
};
};
width = 686;
},
{
layerId = "89695F39-7340-4A9C-8DD1-5D7FBCD503D3";
shapes = (
{
closed = 1;
nodes = (
(405,-14,o),
(475,28,o),
(523,99,c),
(602,152,o),
(643,247,o),
(643,374,c),
(497,374,l),
(497,291,o),
(490,221,o),
(451,173,c),
(441,181,l),
(409,129,o),
(370,104,o),
(301,104,cs),
(217,104,o),
(179,144,o),
(179,201,cs),
(179,252,o),
(209,280,o),
(247,298,c),
(363,329,l),
(482,377,o),
(532,439,o),
(532,520,cs),
(532,634,o),
(439,692,o),
(316,692,cs),
(181,692,o),
(92,627,o),
(92,519,cs),
(92,462,o),
(114,417,o),
(183,344,cs),
(513,-3,l),
(712,0,l),
(319,411,ls),
(271,461,o),
(249,485,o),
(249,519,cs),
(249,562,o),
(278,582,o),
(314,582,cs),
(351,582,o),
(380,560,o),
(380,512,cs),
(380,466,o),
(352,436,o),
(286,405,c),
(175,384,l),
(78,344,o),
(17,294,o),
(17,187,cs),
(17,55,o),
(111,-14,o),
(275,-14,cs)
);
}
);
userData = {
com.hugojourdan.ColorFlow = {
"0" = 0;
"1" = 0;
"10" = 0;
"11" = 0;
"2" = 0;
"3" = 0;
"4" = 0;
"5" = 0;
"6" = 0;
"7" = 0;
"8" = 0;
"9" = 0;
};
};
width = 716;
},
{
associatedMasterId = "C5561BE3-178F-4E91-92CF-CFC72B047BCB";
color = 0;
layerId = "9E575DC0-668E-4B2C-BEEC-85869F416800";
name = v1;
shapes = (
{
closed = 1;
nodes = (
(455,175,l),
(597,410,l),
(510,410,l),
(410,208,l),
(397,189,l),
(347,114,o),
(301,57,o),
(227,57,cs),
(162,57,o),
(113,101,o),
(113,163,cs),
(113,219,o),
(150,261,o),
(209,304,cs),
(258,339,l),
(282,349,l),
(329,381,ls),
(392,424,o),
(443,473,o),
(443,547,cs),
(443,639,o),
(368,690,o),
(284,690,cs),
(191,690,o),
(118,626,o),
(118,531,cs),
(118,458,o),
(165,414,o),
(215,355,cs),
(515,0,l),
(617,0,l),
(276,397,ls),
(234,446,o),
(198,482,o),
(198,534,cs),
(198,578,o),
(225,624,o),
(283,624,cs),
(331,624,o),
(365,592,o),
(365,542,cs),
(365,493,o),
(331,456,o),
(290,424,cs),
(250,392,l),
(233,386,l),
(157,342,ls),
(98,307,o),
(34,247,o),
(34,160,cs),
(34,66,o),
(110,-10,o),
(222,-10,cs),
(329,-10,o),
(395,56,o),
(444,168,c)
);
}
);
userData = {
com.hugojourdan.ColorFlow = {
"0" = 0;
"1" = 0;
"10" = 0;
"11" = 0;
"2" = 0;
"3" = 0;
"4" = 0;
"5" = 0;
"6" = 0;
"7" = 0;
"8" = 0;
"9" = 0;
};
};
width = 630;
},
{
associatedMasterId = "C5561BE3-178F-4E91-92CF-CFC72B047BCB";
color = 4;
layerId = "5F753BBF-1D53-4248-9599-443B7D7E772B";
name = "Feb 10, 25 at 01:49";
shapes = (
{
closed = 1;
nodes = (
(571,205,o),
(602,360,c),
(525,360,l),
(507,245,o),
(411,56,o),
(247,56,cs),
(171,56,o),
(113,104,o),
(113,171,cs),
(113,228,o),
(147,270,o),
(211,305,cs),
(331,371,ls),
(397,407,o),
(443,467,o),
(443,541,cs),
(443,639,o),
(358,692,o),
(274,692,cs),
(175,692,o),
(98,626,o),
(98,531,cs),
(98,458,o),
(140,408,o),
(194,352,cs),
(538,0,l),
(640,0,l),
(255,394,ls),
(210,440,o),
(178,482,o),
(178,534,cs),
(178,578,o),
(206,626,o),
(271,626,cs),
(319,626,o),
(363,592,o),
(363,536,cs),
(363,487,o),
(335,444,o),
(288,418,cs),
(157,347,ls),
(96,314,o),
(34,256,o),
(34,168,cs),
(34,70,o),
(110,-12,o),
(242,-12,cs),
(452,-12,o)
);
}
);
userData = {
com.hugojourdan.ColorFlow = {
"0" = 0;
"1" = 0;
"10" = 0;
"11" = 0;
"2" = 0;
"3" = 0;
"4" = 0;
"5" = 0;
"6" = 0;
"7" = 0;
"8" = 0;
"9" = 0;
};
};
width = 650;
},
{
associatedMasterId = "C5561BE3-178F-4E91-92CF-CFC72B047BCB";
color = 4;
layerId = "C3A9F4CC-9CBC-4DAF-9384-F32B2887BB5C";
name = "Feb 17, 25 at 00:20";
shapes = (
{
closed = 1;
nodes = (
(421,32,o),
(472,120,cs),
(531,214,o),
(577,296,o),
(607,360,c),
(527,360,l),
(502,305,o),
(464,237,o),
(413,153,cs),
(377,89,o),
(322,54,o),
(247,54,cs),
(166,54,o),
(114,102,o),
(114,171,cs),
(114,232,o),
(139,265,o),
(211,305,cs),
(331,371,ls),
(404,411,o),
(443,467,o),
(443,541,cs),
(443,630,o),
(373,692,o),
(274,692,cs),
(170,692,o),
(98,627,o),
(98,531,cs),
(98,472,o),
(123,426,o),
(194,352,cs),
(538,0,l),
(640,0,l),
(255,394,ls),
(200,450,o),
(178,490,o),
(178,534,cs),
(178,591,o),
(213,626,o),
(271,626,cs),
(328,626,o),
(363,591,o),
(363,536,cs),
(363,484,o),
(340,446,o),
(288,418,cs),
(157,347,ls),
(74,302,o),
(34,247,o),
(34,168,cs),
(34,59,o),
(116,-12,o),
(242,-12,cs),
(344,-12,o)
);
}
);
userData = {
com.hugojourdan.ColorFlow = {
"0" = 0;
"1" = 0;
"10" = 0;
"11" = 0;
"2" = 0;
"3" = 0;
"4" = 0;
"5" = 0;
"6" = 0;
"7" = 0;
"8" = 0;
"9" = 0;
};
};
width = 650;
},
{
associatedMasterId = "C5561BE3-178F-4E91-92CF-CFC72B047BCB";
color = 0;
layerId = "3DC7EDA9-500E-49FA-91CB-6E7CEB06094C";
name = "Apr 25, 25 at 02:50";
shapes = (
{
closed = 1;
nodes = (
(432,35,o),
(489,119,cs),
(551,210,o),
(592,296,o),
(612,360,c),
(535,360,l),
(516,305,o),
(487,233,o),
(432,152,cs),
(391,91,o),
(323,54,o),
(248,54,cs),
(167,54,o),
(114,106,o),
(114,179,cs),
(114,240,o),
(140,275,o),
(212,313,cs),
(337,379,ls),
(410,418,o),
(449,473,o),
(449,543,cs),
(449,630,o),
(379,692,o),
(279,692,cs),
(176,692,o),
(104,627,o),
(104,531,cs),
(104,472,o),
(129,426,o),
(200,352,cs),
(534,0,l),
(636,0,l),
(261,394,ls),
(206,452,o),
(182,490,o),
(182,534,cs),
(182,592,o),
(218,628,o),
(277,628,cs),
(335,628,o),
(371,594,o),
(371,540,cs),
(371,490,o),
(347,453,o),
(294,426,cs),
(158,355,ls),
(76,312,o),
(36,255,o),
(36,176,cs),
(36,63,o),
(118,-12,o),
(243,-12,cs),
(345,-12,o)
);
}
);
userData = {
com.hugojourdan.ColorFlow = {
"0" = 0;
"1" = 0;
"10" = 0;
"11" = 0;
"2" = 0;
"3" = 0;
"4" = 0;
"5" = 0;
"6" = 0;
"7" = 0;
"8" = 0;
"9" = 0;
};
};
width = 656;
},
{
associatedMasterId = "C5561BE3-178F-4E91-92CF-CFC72B047BCB";
color = 4;
layerId = "3AE5DA02-9B16-411E-8E37-8E60AD7E7204";
name = "Apr 25, 25 at 19:53";
shapes = (
{
closed = 1;
nodes = (
(590,204,o),
(649,350,c),
(562,350,l),
(510,220,o),
(427,56,o),
(276,56,cs),
(193,56,o),
(137,110,o),
(137,180,cs),
(137,230,o),
(166,276,o),
(238,314,cs),
(363,380,ls),
(436,419,o),
(476,476,o),
(476,541,cs),
(476,629,o),
(403,692,o),
(301,692,cs),
(194,692,o),
(117,624,o),
(117,527,cs),
(117,472,o),
(142,426,o),
(213,352,cs),
(547,0,l),
(666,0,l),
(289,394,ls),
(234,452,o),
(205,490,o),
(205,537,cs),
(205,589,o),
(241,624,o),
(293,624,cs),
(346,624,o),
(386,588,o),
(386,533,cs),
(386,488,o),
(360,452,o),
(307,425,cs),
(171,354,ls),
(91,312,o),
(47,251,o),
(47,175,cs),
(47,64,o),
(136,-12,o),
(265,-12,cs),
(482,-12,o)
);
}
);
userData = {
com.hugojourdan.ColorFlow = {
"0" = 0;
"1" = 0;
"10" = 0;
"11" = 0;
"2" = 0;
"3" = 0;
"4" = 0;
"5" = 0;
"6" = 0;
"7" = 0;
"8" = 0;
"9" = 0;
};
};
width = 686;
},
{
associatedMasterId = "C5561BE3-178F-4E91-92CF-CFC72B047BCB";
color = 4;
layerId = "C1FDF9BF-C3A3-4715-B443-30B020655284";
name = "Apr 25, 25 at 21:38";
shapes = (
{
closed = 1;
nodes = (
(492,-12,o),
(609,114,o),
(609,354,c),
(527,354,l),
(527,124,o),
(428,56,o),
(306,56,cs),
(198,56,o),
(147,110,o),
(147,175,cs),
(147,185,ls),
(147,229,o),
(171,277,o),
(243,313,cs),
(383,383,ls),
(456,420,o),
(492,475,o),
(492,540,cs),
(492,629,o),
(416,692,o),
(314,692,cs),
(207,692,o),
(127,624,o),
(127,528,cs),
(127,472,o),
(154,427,o),
(223,352,cs),
(547,0,l),
(666,0,l),
(299,394,ls),
(245,452,o),
(215,490,o),
(215,537,cs),
(215,589,o),
(254,624,o),
(306,624,cs),
(359,624,o),
(402,588,o),
(402,531,cs),
(402,487,o),
(380,454,o),
(327,428,cs),
(176,353,ls),
(96,313,o),
(57,250,o),
(57,180,cs),
(57,170,ls),
(57,64,o),
(141,-12,o),
(295,-12,cs)
);
}
);
userData = {
com.hugojourdan.ColorFlow = {
"0" = 0;
"1" = 0;
"10" = 0;
"11" = 0;
"2" = 0;
"3" = 0;
"4" = 0;
"5" = 0;
"6" = 0;
"7" = 0;
"8" = 0;
"9" = 0;
};
};
width = 686;
},
{
associatedMasterId = "89695F39-7340-4A9C-8DD1-5D7FBCD503D3";
color = 0;
layerId = "226BB636-F3C8-4C06-9CF4-81A59DE8F191";
name = v1;
shapes = (
{
closed = 1;
nodes = (
(523,167,l),
(681,410,l),
(504,410,l),
(407,208,l),
(391,209,l),
(355,153,o),
(326,114,o),
(272,114,cs),
(227,114,o),
(188,141,o),
(188,189,cs),
(188,225,o),
(212,249,o),
(241,270,cs),
(310,320,l),
(349,332,l),
(392,361,ls),
(459,406,o),
(513,456,o),
(513,534,cs),
(513,632,o),
(426,690,o),
(317,690,cs),
(201,690,o),
(105,627,o),
(105,516,cs),
(105,445,o),
(146,396,o),
(216,319,cs),
(504,0,l),
(713,0,l),
(324,419,ls),
(291,454,o),
(262,485,o),
(262,522,cs),
(262,550,o),
(277,577,o),
(316,577,cs),
(351,577,o),
(370,553,o),
(370,522,cs),
(370,492,o),
(353,466,o),
(326,443,cs),
(288,411,l),
(279,403,l),
(167,353,ls),
(108,327,o),
(26,281,o),
(26,172,cs),
(26,61,o),
(114,-10,o),
(246,-10,cs),
(371,-10,o),
(440,50,o),
(488,157,c)
);
}
);
userData = {
com.hugojourdan.ColorFlow = {
"0" = 0;
"1" = 0;
"10" = 0;
"11" = 0;
"2" = 0;
"3" = 0;
"4" = 0;
"5" = 0;
"6" = 0;
"7" = 0;
"8" = 0;
"9" = 0;
};
};
width = 716;
},
{
associatedMasterId = "C5561BE3-178F-4E91-92CF-CFC72B047BCB";
color = 4;
layerId = "64FEE1CB-529B-4DE7-A9B9-524C31FC63A2";
name = "Jun 2, 25 at 20:27";
shapes = (
{
closed = 1;
nodes = (
(395,-12,o),
(474,20,o),
(527,82,c),
(580,144,o),
(609,235,o),
(609,354,c),
(527,354,l),
(527,253,o),
(507,183,o),
(475,136,cs),
(434,77,o),
(373,56,o),
(308,56,cs),
(202,56,o),
(147,115,o),
(147,182,cs),
(147,192,ls),
(147,239,o),
(174,286,o),
(229,314,cs),
(383,391,ls),
(456,427,o),
(492,481,o),
(492,542,cs),
(492,631,o),
(416,692,o),
(314,692,cs),
(207,692,o),
(127,624,o),
(127,528,cs),
(127,472,o),
(154,427,o),
(223,352,cs),
(547,0,l),
(666,0,l),
(299,394,ls),
(245,452,o),
(215,490,o),
(215,537,cs),
(215,589,o),
(254,624,o),
(306,624,cs),
(359,624,o),
(402,590,o),
(402,533,cs),
(402,493,o),
(380,463,o),
(327,436,cs),
(170,357,ls),
(91,317,o),
(57,256,o),
(57,185,cs),
(57,175,ls),
(57,67,o),
(142,-12,o),
(296,-12,cs)
);
}
);
userData = {
com.hugojourdan.ColorFlow = {
"0" = 0;
"1" = 0;
"10" = 0;
"11" = 0;
"2" = 0;
"3" = 0;
"4" = 0;
"5" = 0;
"6" = 0;
"7" = 0;
"8" = 0;
"9" = 0;
};
};
visible = 1;
width = 686;
},
{
associatedMasterId = "89695F39-7340-4A9C-8DD1-5D7FBCD503D3";
color = 1;
layerId = "FFB69A31-ECFB-4AB5-AF84-57B17A51D6E3";
name = "Jun 2, 25 at 20:28";
shapes = (
{
closed = 1;
nodes = (
(395,-12,o),
(472,22,o),
(523,99,c),
(602,152,o),
(643,247,o),
(643,374,c),
(497,374,l),
(497,281,o),
(480,221,o),
(461,173,c),
(418,125,o),
(367,106,o),
(305,106,cs),
(212,106,o),
(177,149,o),
(177,192,cs),
(177,202,ls),
(177,238,o),
(200,273,o),
(247,294,cs),
(410,368,ls),
(483,401,o),
(522,458,o),
(522,529,cs),
(522,633,o),
(430,692,o),
(310,692,cs),
(181,692,o),
(99,622,o),
(99,526,cs),
(99,471,o),
(125,426,o),
(193,352,cs),
(517,0,l),
(706,0,l),
(317,410,ls),
(269,460,o),
(249,488,o),
(249,520,cs),
(249,552,o),
(273,574,o),
(306,574,cs),
(339,574,o),
(366,553,o),
(366,519,cs),
(366,486,o),
(343,462,o),
(295,439,cs),
(148,374,ls),
(53,329,o),
(17,268,o),
(17,200,cs),
(17,190,ls),
(17,73,o),
(111,-12,o),
(285,-12,cs)
);
}
);
userData = {
com.hugojourdan.ColorFlow = {
"0" = 0;
"1" = 0;
"10" = 0;
"11" = 0;
"2" = 0;
"3" = 0;
"4" = 0;
"5" = 0;
"6" = 0;
"7" = 0;
"8" = 0;
"9" = 0;
};
};
width = 716;
}
);
unicode = 38;
userData = {
KernOnSpecialSpacing = {
L = symbols;
R = symbols;
};
};
}
{
glyphname = quotesingle;
kernLeft = quotedbl;
kernRight = quotedbl;
layers = (
{
layerId = "C5561BE3-178F-4E91-92CF-CFC72B047BCB";
shapes = (
{
closed = 1;
nodes = (
(137,456,l),
(144,700,l),
(62,700,l),
(69,456,l)
);
}
);
userData = {
com.hugojourdan.ColorFlow = {
"0" = 0;
"1" = 0;
"10" = 0;
"11" = 0;
"2" = 0;
"3" = 0;
"4" = 0;
"5" = 0;
"6" = 0;
"7" = 0;
"8" = 0;
"9" = 0;
};
};
width = 206;
},
{
layerId = "89695F39-7340-4A9C-8DD1-5D7FBCD503D3";
shapes = (
{
closed = 1;
nodes = (
(172,379,l),
(178,703,l),
(38,703,l),
(44,379,l)
);
}
);
userData = {
com.hugojourdan.ColorFlow = {
"0" = 0;
"1" = 0;
"10" = 0;
"11" = 0;
"2" = 0;
"3" = 0;
"4" = 0;
"5" = 0;
"6" = 0;
"7" = 0;
"8" = 0;
"9" = 0;
};
};
width = 216;
},
{
associatedMasterId = "C5561BE3-178F-4E91-92CF-CFC72B047BCB";
color = 0;
layerId = "28ABA142-5816-4E4D-AA2F-0E260B6BBC8D";
name = "Apr 27, 25 at 01:45";
shapes = (
{
closed = 1;
nodes = (
(138,477,l),
(145,705,l),
(61,705,l),
(68,477,l)
);
}
);
userData = {
com.hugojourdan.ColorFlow = {
"0" = 0;
"1" = 0;
"10" = 0;
"11" = 0;
"2" = 0;
"3" = 0;
"4" = 0;
"5" = 0;
"6" = 0;
"7" = 0;
"8" = 0;
"9" = 0;
};
};
width = 206;
}
);
unicode = 39;
userData = {
KernOnName = quotesingle;
KernOnSpecialSpacing = {
L = quotes;
R = quotes;
};
};
}
{
glyphname = parenleft;
kernLeft = parenleft;
kernRight = parenleft;
layers = (
{
layerId = "C5561BE3-178F-4E91-92CF-CFC72B047BCB";
shapes = (
{
closed = 1;
nodes = (
(356,-72,l),
(221,-66,o),
(158,23,o),
(158,250,cs),
(158,350,ls),
(158,577,o),
(221,666,o),
(356,672,c),
(356,740,l),
(161,740,o),
(70,605,o),
(70,350,cs),
(70,250,ls),
(70,-5,o),
(161,-140,o),
(356,-140,c)
);
}
);
userData = {
com.hugojourdan.ColorFlow = {
"0" = 0;
"1" = 0;
"10" = 0;
"11" = 0;
"2" = 0;
"3" = 0;
"4" = 0;
"5" = 0;
"6" = 0;
"7" = 0;
"8" = 0;
"9" = 0;
};
};
width = 376;
},
{
layerId = "89695F39-7340-4A9C-8DD1-5D7FBCD503D3";
shapes = (
{
closed = 1;
nodes = (
(356,-16,l),
(246,-12,o),
(208,63,o),
(208,250,cs),
(208,350,ls),
(208,537,o),
(246,612,o),
(356,616,c),
(356,740,l),
(134,740,o),
(50,605,o),
(50,350,cs),
(50,250,ls),
(50,-5,o),
(134,-140,o),
(356,-140,c)
);
}
);
userData = {
com.hugojourdan.ColorFlow = {
"0" = 0;
"1" = 0;
"10" = 0;
"11" = 0;
"2" = 0;
"3" = 0;
"4" = 0;
"5" = 0;
"6" = 0;
"7" = 0;
"8" = 0;
"9" = 0;
};
};
width = 372;
},
{
associatedMasterId = "C5561BE3-178F-4E91-92CF-CFC72B047BCB";
color = 0;
layerId = "F64B3364-D94E-4F0E-8B58-EEC4AB8A70FD";
name = "Apr 27, 25 at 01:27";
shapes = (
{
closed = 1;
nodes = (
(296,-165,l),
(196,-38,o),
(153,131,o),
(153,280,cs),
(153,428,o),
(196,598,o),
(296,725,c),
(216,725,l),
(114,600,o),
(71,429,o),
(71,280,cs),
(71,132,o),
(113,-39,o),
(216,-165,c)
);
}
);
userData = {
com.hugojourdan.ColorFlow = {
"0" = 0;
"1" = 0;
"10" = 0;
"11" = 0;
"2" = 0;
"3" = 0;
"4" = 0;
"5" = 0;
"6" = 0;
"7" = 0;
"8" = 0;
"9" = 0;
};
};
width = 332;
},
{
associatedMasterId = "89695F39-7340-4A9C-8DD1-5D7FBCD503D3";
color = 0;
layerId = "11A40503-0CAD-40CF-AE21-2F4CDD381022";
name = v1;
shapes = (
{
closed = 1;
nodes = (
(362,-145,l),
(262,-26,o),
(215,138,o),
(215,280,cs),
(215,421,o),
(261,585,o),
(362,705,c),
(197,705,l),
(96,586,o),
(56,422,o),
(56,280,cs),
(56,139,o),
(95,-25,o),
(197,-145,c)
);
}
);
userData = {
com.hugojourdan.ColorFlow = {
"0" = 0;
"1" = 0;
"10" = 0;
"11" = 0;
"2" = 0;
"3" = 0;
"4" = 0;
"5" = 0;
"6" = 0;
"7" = 0;
"8" = 0;
"9" = 0;
};
};
width = 375;
},
{
associatedMasterId = "C5561BE3-178F-4E91-92CF-CFC72B047BCB";
color = 3;
layerId = "1C3F2AE6-E547-45EE-8E20-A5079B0EC99C";
name = "Jun 2, 25 at 17:54";
shapes = (
{
closed = 1;
nodes = (
(304,-140,l),
(214,-27,o),
(161,136,o),
(161,300,cs),
(161,464,o),
(214,627,o),
(304,740,c),
(216,740,l),
(125,629,o),
(71,467,o),
(71,300,cs),
(71,133,o),
(125,-30,o),
(216,-140,c)
);
}
);
userData = {
com.hugojourdan.ColorFlow = {
"0" = 0;
"1" = 0;
"10" = 0;
"11" = 0;
"2" = 0;
"3" = 0;
"4" = 0;
"5" = 0;
"6" = 0;
"7" = 0;
"8" = 0;
"9" = 0;
};
};
width = 332;
}
);
unicode = 40;
userData = {
KernOnName = parenleft;
KernOnSpecialSpacing = {
R = parenthesis;
};
};
}
{
glyphname = plus;
kernLeft = plus;
kernRight = plus;
layers = (
{
layerId = "C5561BE3-178F-4E91-92CF-CFC72B047BCB";
shapes = (
{
closed = 1;
nodes = (
(530,292,l),
(530,368,l),
(90,368,l),
(90,292,l)
);
},
{
closed = 1;
nodes = (
(270,113,l),
(350,113,l),
(350,547,l),
(270,547,l)
);
}
);
userData = {
com.hugojourdan.ColorFlow = {
"0" = 0;
"1" = 0;
"10" = 0;
"11" = 0;
"2" = 0;
"3" = 0;
"4" = 0;
"5" = 0;
"6" = 0;
"7" = 0;
"8" = 0;
"9" = 0;
};
};
width = 620;
},
{
layerId = "89695F39-7340-4A9C-8DD1-5D7FBCD503D3";
shapes = (
{
closed = 1;
nodes = (
(555,257,l),
(555,403,l),
(65,403,l),
(65,257,l)
);
},
{
closed = 1;
nodes = (
(231,90,l),
(388,90,l),
(388,570,l),
(231,570,l)
);
}
);
userData = {
com.hugojourdan.ColorFlow = {
"0" = 0;
"1" = 0;
"10" = 0;
"11" = 0;
"2" = 0;
"3" = 0;
"4" = 0;
"5" = 0;
"6" = 0;
"7" = 0;
"8" = 0;
"9" = 0;
};
};
width = 620;
},
{
associatedMasterId = "C5561BE3-178F-4E91-92CF-CFC72B047BCB";
color = 0;
layerId = "93E19EFC-8BD9-4BA5-B2FD-63DB0186E93F";
name = "Apr 27, 25 at 22:14";
shapes = (
{
closed = 1;
nodes = (
(531,293,l),
(531,367,l),
(51,367,l),
(51,293,l)
);
},
{
closed = 1;
nodes = (
(254,90,l),
(328,90,l),
(328,570,l),
(254,570,l)
);
}
);
userData = {
com.hugojourdan.ColorFlow = {
"0" = 0;
"1" = 0;
"10" = 0;
"11" = 0;
"2" = 0;
"3" = 0;
"4" = 0;
"5" = 0;
"6" = 0;
"7" = 0;
"8" = 0;
"9" = 0;
};
};
width = 582;
}
);
unicode = 43;
userData = {
KernOnName = plus;
KernOnSpecialSpacing = {
L = math;
R = math;
};
};
}
{
glyphname = comma;
kernLeft = comma;
kernRight = period;
layers = (
{
layerId = "C5561BE3-178F-4E91-92CF-CFC72B047BCB";
shapes = (
{
closed = 1;
nodes = (
(104,0,l),
(34,-150,l),
(98,-150,l),
(168,0,l),
(168,114,l),
(60,114,l),
(60,0,l)
);
}
);
userData = {
com.hugojourdan.ColorFlow = {
"0" = 0;
"1" = 0;
"10" = 0;
"11" = 0;
"2" = 0;
"3" = 0;
"4" = 0;
"5" = 0;
"6" = 0;
"7" = 0;
"8" = 0;
"9" = 0;
};
};
width = 228;
},
{
layerId = "89695F39-7340-4A9C-8DD1-5D7FBCD503D3";
shapes = (
{
closed = 1;
nodes = (
(106,0,l),
(16,-170,l),
(108,-170,l),
(200,0,l),
(200,154,l),
(32,154,l),
(32,0,l)
);
}
);
userData = {
com.hugojourdan.ColorFlow = {
"0" = 0;
"1" = 0;
"10" = 0;
"11" = 0;
"2" = 0;
"3" = 0;
"4" = 0;
"5" = 0;
"6" = 0;
"7" = 0;
"8" = 0;
"9" = 0;
};
};
width = 232;
},
{
associatedMasterId = "C5561BE3-178F-4E91-92CF-CFC72B047BCB";
color = 0;
layerId = "C07CD007-FC70-4E64-88D5-A7995543ACBA";
name = "Feb 8, 25 at 23:13";
shapes = (
{
closed = 1;
nodes = (
(108,0,l),
(45,-130,l),
(114,-130,l),
(164,0,l),
(164,98,l),
(61,98,l),
(61,0,l)
);
}
);
userData = {
com.hugojourdan.ColorFlow = {
"0" = 0;
"1" = 0;
"10" = 0;
"11" = 0;
"2" = 0;
"3" = 0;
"4" = 0;
"5" = 0;
"6" = 0;
"7" = 0;
"8" = 0;
"9" = 0;
};
};
width = 225;
},
{
associatedMasterId = "C5561BE3-178F-4E91-92CF-CFC72B047BCB";
color = 0;
layerId = "2761D0E9-2B24-492B-8C93-A79248D5B8AC";
name = "Apr 23, 25 at 15:38";
shapes = (
{
closed = 1;
nodes = (
(111,0,l),
(65,-130,l),
(115,-130,l),
(161,0,l),
(161,100,l),
(61,100,l),
(61,0,l)
);
}
);
userData = {
com.hugojourdan.ColorFlow = {
"0" = 0;
"1" = 0;
"10" = 0;
"11" = 0;
"2" = 0;
"3" = 0;
"4" = 0;
"5" = 0;
"6" = 0;
"7" = 0;
"8" = 0;
"9" = 0;
};
};
width = 225;
},
{
associatedMasterId = "C5561BE3-178F-4E91-92CF-CFC72B047BCB";
color = 1;
layerId = "E297F6BB-F338-4FF8-815B-EC3A30E809AD";
name = "Apr 24, 25 at 20:57";
shapes = (
{
closed = 1;
nodes = (
(115,0,l),
(71,-130,l),
(121,-130,l),
(171,0,l),
(171,100,l),
(71,100,l),
(71,0,l)
);
}
);
userData = {
com.hugojourdan.ColorFlow = {
"0" = 0;
"1" = 0;
"10" = 0;
"11" = 0;
"2" = 0;
"3" = 0;
"4" = 0;
"5" = 0;
"6" = 0;
"7" = 0;
"8" = 0;
"9" = 0;
};
};
width = 245;
},
{
associatedMasterId = "C5561BE3-178F-4E91-92CF-CFC72B047BCB";
color = 4;
layerId = "03A6062C-DB62-4DD2-8B17-4ACC9967ADFF";
name = "Apr 26, 25 at 01:14";
shapes = (
{
closed = 1;
nodes = (
(100,0,l),
(60,-130,l),
(110,-130,l),
(156,0,l),
(156,106,l),
(60,106,l),
(60,0,l)
);
}
);
userData = {
com.hugojourdan.ColorFlow = {
"0" = 0;
"1" = 0;
"10" = 0;
"11" = 0;
"2" = 0;
"3" = 0;
"4" = 0;
"5" = 0;
"6" = 0;
"7" = 0;
"8" = 0;
"9" = 0;
};
};
width = 216;
},
{
associatedMasterId = "C5561BE3-178F-4E91-92CF-CFC72B047BCB";
color = 4;
layerId = "BA556648-B143-49C7-8913-E924D8BF2ED0";
name = "Apr 27, 25 at 01:49";
shapes = (
{
closed = 1;
nodes = (
(100,0,l),
(50,-130,l),
(100,-130,l),
(156,0,l),
(156,106,l),
(60,106,l),
(60,0,l)
);
}
);
userData = {
com.hugojourdan.ColorFlow = {
"0" = 0;
"1" = 0;
"10" = 0;
"11" = 0;
"2" = 0;
"3" = 0;
"4" = 0;
"5" = 0;
"6" = 0;
"7" = 0;
"8" = 0;
"9" = 0;
};
};
width = 216;
},
{
associatedMasterId = "89695F39-7340-4A9C-8DD1-5D7FBCD503D3";
color = 0;
layerId = "07CE5891-9089-4285-B4A7-2E8CFDC4FB77";
name = "Apr 28, 25 at 10:23";
shapes = (
{
closed = 1;
nodes = (
(107,0,l),
(25,-160,l),
(146,-160,l),
(207,0,l),
(207,171,l),
(31,171,l),
(31,0,l)
);
}
);
userData = {
com.hugojourdan.ColorFlow = {
"0" = 0;
"1" = 0;
"10" = 0;
"11" = 0;
"2" = 0;
"3" = 0;
"4" = 0;
"5" = 0;
"6" = 0;
"7" = 0;
"8" = 0;
"9" = 0;
};
};
width = 238;
},
{
associatedMasterId = "C5561BE3-178F-4E91-92CF-CFC72B047BCB";
layerId = "8DBF4E53-6290-49DD-9C2F-3FA3170CC371";
name = "Jun 21, 25 at 17:55";
shapes = (
{
closed = 1;
nodes = (
(104,0,l),
(46,-130,l),
(100,-130,l),
(160,0,l),
(160,114,l),
(56,114,l),
(56,0,l)
);
}
);
userData = {
com.hugojourdan.ColorFlow = {
"0" = 0;
"1" = 0;
"10" = 0;
"11" = 0;
"2" = 0;
"3" = 0;
"4" = 0;
"5" = 0;
"6" = 0;
"7" = 0;
"8" = 0;
"9" = 0;
};
};
width = 216;
}
);
metricRight = period;
unicode = 44;
userData = {
KernOnName = comma;
KernOnSpecialSpacing = {
L = period;
R = period;
};
};
}
{
glyphname = hyphen;
kernLeft = hyphen;
kernRight = hyphen;
layers = (
{
layerId = "C5561BE3-178F-4E91-92CF-CFC72B047BCB";
shapes = (
{
closed = 1;
nodes = (
(368,242,l),
(368,318,l),
(48,318,l),
(48,242,l)
);
}
);
userData = {
com.hugojourdan.ColorFlow = {
"0" = 0;
"1" = 0;
"10" = 0;
"11" = 0;
"2" = 0;
"3" = 0;
"4" = 0;
"5" = 0;
"6" = 0;
"7" = 0;
"8" = 0;
"9" = 0;
};
};
width = 416;
},
{
layerId = "89695F39-7340-4A9C-8DD1-5D7FBCD503D3";
shapes = (
{
closed = 1;
nodes = (
(400,205,l),
(400,355,l),
(40,355,l),
(40,205,l)
);
}
);
userData = {
com.hugojourdan.ColorFlow = {
"0" = 0;
"1" = 0;
"10" = 0;
"11" = 0;
"2" = 0;
"3" = 0;
"4" = 0;
"5" = 0;
"6" = 0;
"7" = 0;
"8" = 0;
"9" = 0;
};
};
width = 440;
}
);
metricRight = "=|";
unicode = 45;
userData = {
KernOnName = hyphen;
KernOnSpecialSpacing = {
L = hyphen;
R = hyphen;
};
};
}
{
glyphname = period;
kernLeft = period;
kernRight = period;
layers = (
{
layerId = "C5561BE3-178F-4E91-92CF-CFC72B047BCB";
shapes = (
{
closed = 1;
nodes = (
(168,0,l),
(168,114,l),
(60,114,l),
(60,0,l)
);
}
);
userData = {
com.hugojourdan.ColorFlow = {
"0" = 0;
"1" = 0;
"10" = 0;
"11" = 0;
"2" = 0;
"3" = 0;
"4" = 0;
"5" = 0;
"6" = 0;
"7" = 0;
"8" = 0;
"9" = 0;
};
};
width = 228;
},
{
layerId = "89695F39-7340-4A9C-8DD1-5D7FBCD503D3";
shapes = (
{
closed = 1;
nodes = (
(200,0,l),
(200,154,l),
(32,154,l),
(32,0,l)
);
}
);
userData = {
com.hugojourdan.ColorFlow = {
"0" = 0;
"1" = 0;
"10" = 0;
"11" = 0;
"2" = 0;
"3" = 0;
"4" = 0;
"5" = 0;
"6" = 0;
"7" = 0;
"8" = 0;
"9" = 0;
};
};
width = 232;
},
{
associatedMasterId = "C5561BE3-178F-4E91-92CF-CFC72B047BCB";
color = 0;
layerId = "B8AF3757-945D-42B0-A2FF-EDCAD41B724C";
name = "Feb 8, 25 at 23:12";
shapes = (
{
closed = 1;
nodes = (
(164,0,l),
(164,98,l),
(61,98,l),
(61,0,l)
);
}
);
userData = {
com.hugojourdan.ColorFlow = {
"0" = 0;
"1" = 0;
"10" = 0;
"11" = 0;
"2" = 0;
"3" = 0;
"4" = 0;
"5" = 0;
"6" = 0;
"7" = 0;
"8" = 0;
"9" = 0;
};
};
width = 225;
},
{
associatedMasterId = "C5561BE3-178F-4E91-92CF-CFC72B047BCB";
color = 1;
layerId = "833668FA-3863-4B21-93BF-0D3EF003EF63";
name = "Apr 23, 25 at 18:16";
shapes = (
{
closed = 1;
nodes = (
(171,0,l),
(171,100,l),
(71,100,l),
(71,0,l)
);
}
);
userData = {
com.hugojourdan.ColorFlow = {
"0" = 0;
"1" = 0;
"10" = 0;
"11" = 0;
"2" = 0;
"3" = 0;
"4" = 0;
"5" = 0;
"6" = 0;
"7" = 0;
"8" = 0;
"9" = 0;
};
};
width = 245;
},
{
associatedMasterId = "89695F39-7340-4A9C-8DD1-5D7FBCD503D3";
color = 0;
layerId = "9325A45B-E9D7-4A79-A9EE-8AF22757A9D3";
name = "May 6, 25 at 02:04";
shapes = (
{
closed = 1;
nodes = (
(207,0,l),
(207,171,l),
(31,171,l),
(31,0,l)
);
}
);
userData = {
com.hugojourdan.ColorFlow = {
"0" = 0;
"1" = 0;
"10" = 0;
"11" = 0;
"2" = 0;
"3" = 0;
"4" = 0;
"5" = 0;
"6" = 0;
"7" = 0;
"8" = 0;
"9" = 0;
};
};
width = 238;
},
{
associatedMasterId = "C5561BE3-178F-4E91-92CF-CFC72B047BCB";
layerId = "47169C95-C3BA-4BA1-8D43-9E6B7BC1E7F5";
name = "Jun 21, 25 at 17:57";
shapes = (
{
closed = 1;
nodes = (
(160,0,l),
(160,114,l),
(56,114,l),
(56,0,l)
);
}
);
userData = {
com.hugojourdan.ColorFlow = {
"0" = 0;
"1" = 0;
"10" = 0;
"11" = 0;
"2" = 0;
"3" = 0;
"4" = 0;
"5" = 0;
"6" = 0;
"7" = 0;
"8" = 0;
"9" = 0;
};
};
width = 216;
}
);
metricRight = "=|";
unicode = 46;
userData = {
KernOnName = period;
KernOnSpecialSpacing = {
L = period;
R = period;
};
};
}
{
glyphname = slash;
kernLeft = slash;
kernRight = slash;
layers = (
{
layerId = "C5561BE3-178F-4E91-92CF-CFC72B047BCB";
shapes = (
{
closed = 1;
nodes = (
(116,-140,l),
(415,740,l),
(329,740,l),
(30,-140,l)
);
}
);
userData = {
com.hugojourdan.ColorFlow = {
"0" = 0;
"1" = 0;
"10" = 0;
"11" = 0;
"2" = 0;
"3" = 0;
"4" = 0;
"5" = 0;
"6" = 0;
"7" = 0;
"8" = 0;
"9" = 0;
};
};
width = 445;
},
{
layerId = "89695F39-7340-4A9C-8DD1-5D7FBCD503D3";
shapes = (
{
closed = 1;
nodes = (
(172,-140,l),
(471,740,l),
(315,740,l),
(16,-140,l)
);
}
);
userData = {
com.hugojourdan.ColorFlow = {
"0" = 0;
"1" = 0;
"10" = 0;
"11" = 0;
"2" = 0;
"3" = 0;
"4" = 0;
"5" = 0;
"6" = 0;
"7" = 0;
"8" = 0;
"9" = 0;
};
};
width = 487;
},
{
associatedMasterId = "C5561BE3-178F-4E91-92CF-CFC72B047BCB";
color = 0;
layerId = "45EA7E9D-C44A-4A97-A660-A093CE8D4216";
name = "Apr 27, 25 at 01:25";
shapes = (
{
closed = 1;
nodes = (
(112,-50,l),
(461,720,l),
(380,720,l),
(31,-50,l)
);
}
);
userData = {
com.hugojourdan.ColorFlow = {
"0" = 0;
"1" = 0;
"10" = 0;
"11" = 0;
"2" = 0;
"3" = 0;
"4" = 0;
"5" = 0;
"6" = 0;
"7" = 0;
"8" = 0;
"9" = 0;
};
};
width = 492;
},
{
associatedMasterId = "89695F39-7340-4A9C-8DD1-5D7FBCD503D3";
color = 0;
layerId = "F9CCD5A1-0689-46E3-8F3D-FEE7EBF224EE";
name = "May 13, 25 at 16:54";
shapes = (
{
closed = 1;
nodes = (
(187,-30,l),
(508,700,l),
(328,700,l),
(8,-30,l)
);
}
);
userData = {
com.hugojourdan.ColorFlow = {
"0" = 0;
"1" = 0;
"10" = 0;
"11" = 0;
"2" = 0;
"3" = 0;
"4" = 0;
"5" = 0;
"6" = 0;
"7" = 0;
"8" = 0;
"9" = 0;
};
};
width = 515;
}
);
metricRight = "=|";
unicode = 47;
userData = {
KernOnSpecialSpacing = {
L = slash;
R = slash;
};
};
}
{
glyphname = zero;
kernLeft = zero;
kernRight = zero;
layers = (
{
layerId = "C5561BE3-178F-4E91-92CF-CFC72B047BCB";
shapes = (
{
closed = 1;
nodes = (
(165,394,ls),
(165,545,o),
(220,624,o),
(323,624,cs),
(426,624,o),
(481,544,o),
(481,390,cs),
(481,282,ls),
(481,135,o),
(425,56,o),
(323,56,cs),
(220,56,o),
(165,135,o),
(165,286,cs)
);
},
{
closed = 1;
nodes = (
(574,394,ls),
(574,591,o),
(484,696,o),
(323,696,cs),
(162,696,o),
(72,590,o),
(72,390,cs),
(72,282,ls),
(72,88,o),
(163,-16,o),
(323,-16,cs),
(484,-16,o),
(574,89,o),
(574,286,cs)
);
}
);
userData = {
com.hugojourdan.ColorFlow = {
"0" = 0;
"1" = 0;
"10" = 0;
"11" = 0;
"2" = 0;
"3" = 0;
"4" = 0;
"5" = 0;
"6" = 0;
"7" = 0;
"8" = 0;
"9" = 0;
};
};
width = 646;
},
{
associatedMasterId = "C5561BE3-178F-4E91-92CF-CFC72B047BCB";
color = 1;
layerId = "83EE83C9-786E-4410-9132-3712AF9E5E4E";
name = v1;
shapes = (
{
closed = 1;
nodes = (
(432,-10,o),
(533,95,o),
(533,330,cs),
(533,350,ls),
(533,584,o),
(432,690,o),
(291,690,cs),
(150,690,o),
(49,585,o),
(49,350,cs),
(49,330,ls),
(49,96,o),
(150,-10,o),
(291,-10,cs)
);
},
{
closed = 1;
nodes = (
(194,63,o),
(131,140,o),
(131,315,cs),
(131,365,ls),
(131,539,o),
(193,617,o),
(291,617,cs),
(388,617,o),
(451,540,o),
(451,365,cs),
(451,315,ls),
(451,141,o),
(389,63,o),
(291,63,cs)
);
}
);
userData = {
com.hugojourdan.ColorFlow = {
"0" = 0;
"1" = 0;
"10" = 0;
"11" = 0;
"2" = 0;
"3" = 0;
"4" = 0;
"5" = 0;
"6" = 0;
"7" = 0;
"8" = 0;
"9" = 0;
};
};
width = 582;
},
{
layerId = "89695F39-7340-4A9C-8DD1-5D7FBCD503D3";
shapes = (
{
closed = 1;
nodes = (
(204,394,ls),
(204,501,o),
(240,564,o),
(322,564,cs),
(404,564,o),
(440,500,o),
(440,390,cs),
(440,282,ls),
(440,177,o),
(404,116,o),
(322,116,cs),
(240,116,o),
(204,179,o),
(204,286,cs)
);
},
{
closed = 1;
nodes = (
(602,394,ls),
(602,585,o),
(499,696,o),
(322,696,cs),
(146,696,o),
(42,583,o),
(42,390,cs),
(42,282,ls),
(42,93,o),
(145,-16,o),
(322,-16,cs),
(498,-16,o),
(602,96,o),
(602,286,cs)
);
}
);
userData = {
com.hugojourdan.ColorFlow = {
"0" = 0;
"1" = 0;
"10" = 0;
"11" = 0;
"2" = 0;
"3" = 0;
"4" = 0;
"5" = 0;
"6" = 0;
"7" = 0;
"8" = 0;
"9" = 0;
};
};
width = 644;
},
{
associatedMasterId = "C5561BE3-178F-4E91-92CF-CFC72B047BCB";
color = 4;
layerId = "8D67B275-C080-49CD-A582-ECC739D90787";
name = "Feb 8, 25 at 23:34";
shapes = (
{
closed = 1;
nodes = (
(453,-12,o),
(540,103,o),
(540,300,cs),
(540,380,ls),
(540,576,o),
(453,692,o),
(298,692,cs),
(143,692,o),
(56,577,o),
(56,380,cs),
(56,300,ls),
(56,104,o),
(143,-12,o),
(298,-12,cs)
);
},
{
closed = 1;
nodes = (
(181,58,o),
(138,151,o),
(138,297,cs),
(138,383,ls),
(138,528,o),
(180,622,o),
(298,622,cs),
(416,622,o),
(458,529,o),
(458,383,cs),
(458,297,ls),
(458,152,o),
(415,58,o),
(298,58,cs)
);
}
);
userData = {
com.hugojourdan.ColorFlow = {
"0" = 0;
"1" = 0;
"10" = 0;
"11" = 0;
"2" = 0;
"3" = 0;
"4" = 0;
"5" = 0;
"6" = 0;
"7" = 0;
"8" = 0;
"9" = 0;
};
};
width = 596;
},
{
associatedMasterId = "C5561BE3-178F-4E91-92CF-CFC72B047BCB";
color = 4;
layerId = "B729B91C-FF0B-4737-B985-921D4C948293";
name = "Feb 8, 25 at 23:35";
shapes = (
{
closed = 1;
nodes = (
(459,-12,o),
(540,103,o),
(540,300,cs),
(540,380,ls),
(540,576,o),
(459,692,o),
(298,692,cs),
(137,692,o),
(56,577,o),
(56,380,cs),
(56,300,ls),
(56,104,o),
(137,-12,o),
(298,-12,cs)
);
},
{
closed = 1;
nodes = (
(181,58,o),
(138,151,o),
(138,297,cs),
(138,383,ls),
(138,528,o),
(180,622,o),
(298,622,cs),
(416,622,o),
(458,529,o),
(458,383,cs),
(458,297,ls),
(458,152,o),
(415,58,o),
(298,58,cs)
);
}
);
userData = {
com.hugojourdan.ColorFlow = {
"0" = 0;
"1" = 0;
"10" = 0;
"11" = 0;
"2" = 0;
"3" = 0;
"4" = 0;
"5" = 0;
"6" = 0;
"7" = 0;
"8" = 0;
"9" = 0;
};
};
width = 596;
},
{
associatedMasterId = "C5561BE3-178F-4E91-92CF-CFC72B047BCB";
color = 0;
layerId = "5154A89E-67A4-45EA-9FE8-419D6EA70728";
name = "Apr 25, 25 at 20:35";
shapes = (
{
closed = 1;
nodes = (
(464,-12,o),
(546,103,o),
(546,300,cs),
(546,380,ls),
(546,576,o),
(464,692,o),
(301,692,cs),
(138,692,o),
(56,577,o),
(56,380,cs),
(56,300,ls),
(56,104,o),
(138,-12,o),
(301,-12,cs)
);
},
{
closed = 1;
nodes = (
(182,58,o),
(138,151,o),
(138,297,cs),
(138,383,ls),
(138,528,o),
(181,622,o),
(301,622,cs),
(421,622,o),
(464,529,o),
(464,383,cs),
(464,297,ls),
(464,152,o),
(420,58,o),
(301,58,cs)
);
}
);
userData = {
com.hugojourdan.ColorFlow = {
"0" = 0;
"1" = 0;
"10" = 0;
"11" = 0;
"2" = 0;
"3" = 0;
"4" = 0;
"5" = 0;
"6" = 0;
"7" = 0;
"8" = 0;
"9" = 0;
};
};
visible = 1;
width = 602;
},
{
associatedMasterId = "C5561BE3-178F-4E91-92CF-CFC72B047BCB";
color = 0;
layerId = "5BB4AEF0-B5C0-4024-83E0-07C4E2F490CD";
name = "Apr 25, 25 at 20:36";
shapes = (
{
closed = 1;
nodes = (
(141,444,ls),
(141,555,o),
(202,620,o),
(292,620,cs),
(380,620,o),
(443,555,o),
(443,440,cs),
(443,232,ls),
(443,122,o),
(383,60,o),
(292,60,cs),
(202,60,o),
(141,121,o),
(141,236,cs)
);
},
{
closed = 1;
nodes = (
(534,444,ls),
(534,594,o),
(436,692,o),
(292,692,cs),
(150,692,o),
(50,593,o),
(50,440,cs),
(50,232,ls),
(50,84,o),
(148,-12,o),
(292,-12,cs),
(436,-12,o),
(534,83,o),
(534,236,cs)
);
}
);
userData = {
com.hugojourdan.ColorFlow = {
"0" = 0;
"1" = 0;
"10" = 0;
"11" = 0;
"2" = 0;
"3" = 0;
"4" = 0;
"5" = 0;
"6" = 0;
"7" = 0;
"8" = 0;
"9" = 0;
};
};
width = 602;
},
{
associatedMasterId = "C5561BE3-178F-4E91-92CF-CFC72B047BCB";
color = 3;
layerId = "B595ACEE-52E9-47AE-A9AD-61A4E6812738";
name = "Apr 27, 25 at 21:40";
shapes = (
{
closed = 1;
nodes = (
(163,394,ls),
(163,542,o),
(218,620,o),
(322,620,cs),
(426,620,o),
(481,541,o),
(481,390,cs),
(481,282,ls),
(481,138,o),
(425,60,o),
(322,60,cs),
(218,60,o),
(163,138,o),
(163,286,cs)
);
},
{
closed = 1;
nodes = (
(572,394,ls),
(572,588,o),
(482,692,o),
(322,692,cs),
(162,692,o),
(72,587,o),
(72,390,cs),
(72,282,ls),
(72,91,o),
(163,-12,o),
(322,-12,cs),
(482,-12,o),
(572,92,o),
(572,286,cs)
);
}
);
userData = {
com.hugojourdan.ColorFlow = {
"0" = 0;
"1" = 0;
"10" = 0;
"11" = 0;
"2" = 0;
"3" = 0;
"4" = 0;
"5" = 0;
"6" = 0;
"7" = 0;
"8" = 0;
"9" = 0;
};
};
width = 644;
},
{
associatedMasterId = "89695F39-7340-4A9C-8DD1-5D7FBCD503D3";
color = 0;
layerId = "84B578CE-D1E2-4F91-909C-1491909D94EF";
name = v1;
shapes = (
{
closed = 1;
nodes = (
(444,-10,o),
(553,95,o),
(553,330,cs),
(553,350,ls),
(553,584,o),
(444,690,o),
(291,690,cs),
(138,690,o),
(29,585,o),
(29,350,cs),
(29,330,ls),
(29,96,o),
(138,-10,o),
(291,-10,cs)
);
},
{
closed = 1;
nodes = (
(221,129,o),
(191,190,o),
(191,309,cs),
(191,371,ls),
(191,489,o),
(220,551,o),
(291,551,cs),
(361,551,o),
(391,490,o),
(391,371,cs),
(391,309,ls),
(391,191,o),
(362,129,o),
(291,129,cs)
);
}
);
userData = {
com.hugojourdan.ColorFlow = {
"0" = 0;
"1" = 0;
"10" = 0;
"11" = 0;
"2" = 0;
"3" = 0;
"4" = 0;
"5" = 0;
"6" = 0;
"7" = 0;
"8" = 0;
"9" = 0;
};
};
width = 582;
},
{
associatedMasterId = "C5561BE3-178F-4E91-92CF-CFC72B047BCB";
color = 3;
layerId = "B8F0B898-7B1F-45F7-879E-EE17B9B7F570";
name = "May 26, 25 at 22:27";
shapes = (
{
closed = 1;
nodes = (
(164,394,ls),
(164,545,o),
(219,624,o),
(322,624,cs),
(425,624,o),
(480,544,o),
(480,390,cs),
(480,282,ls),
(480,135,o),
(424,56,o),
(322,56,cs),
(219,56,o),
(164,135,o),
(164,286,cs)
);
},
{
closed = 1;
nodes = (
(572,394,ls),
(572,591,o),
(482,696,o),
(322,696,cs),
(162,696,o),
(72,590,o),
(72,390,cs),
(72,282,ls),
(72,88,o),
(163,-16,o),
(322,-16,cs),
(482,-16,o),
(572,89,o),
(572,286,cs)
);
}
);
userData = {
com.hugojourdan.ColorFlow = {
"0" = 0;
"1" = 0;
"10" = 0;
"11" = 0;
"2" = 0;
"3" = 0;
"4" = 0;
"5" = 0;
"6" = 0;
"7" = 0;
"8" = 0;
"9" = 0;
};
};
width = 644;
}
);
metricRight = "=|";
unicode = 48;
userData = {
KernOnName = zero;
};
}
{
glyphname = one;
kernLeft = one;
kernRight = one;
layers = (
{
layerId = "C5561BE3-178F-4E91-92CF-CFC72B047BCB";
shapes = (
{
closed = 1;
nodes = (
(282,0,l),
(282,680,l),
(202,680,l),
(30,588,l),
(30,502,l),
(245,625,l),
(192,653,l),
(192,0,l)
);
}
);
userData = {
com.hugojourdan.ColorFlow = {
"0" = 0;
"1" = 0;
"10" = 0;
"11" = 0;
"2" = 0;
"3" = 0;
"4" = 0;
"5" = 0;
"6" = 0;
"7" = 0;
"8" = 0;
"9" = 0;
};
};
width = 376;
},
{
associatedMasterId = "C5561BE3-178F-4E91-92CF-CFC72B047BCB";
color = 1;
layerId = "BECFC3A1-78B0-4A39-B7CA-D53278AFEC9E";
name = v1;
shapes = (
{
closed = 1;
nodes = (
(353,0,l),
(353,680,l),
(291,680,l),
(81,586,l),
(81,501,l),
(334,625,l),
(273,653,l),
(273,0,l)
);
},
{
closed = 1;
nodes = (
(521,0,l),
(521,72,l),
(81,72,l),
(81,0,l)
);
}
);
userData = {
com.hugojourdan.ColorFlow = {
"0" = 0;
"1" = 0;
"10" = 0;
"11" = 0;
"2" = 0;
"3" = 0;
"4" = 0;
"5" = 0;
"6" = 0;
"7" = 0;
"8" = 0;
"9" = 0;
};
};
width = 582;
},
{
associatedMasterId = "C5561BE3-178F-4E91-92CF-CFC72B047BCB";
color = 4;
layerId = "D56F55C6-C0F2-41B8-9D3F-DE63BDC74866";
name = "Feb 7, 25 at 19:51";
shapes = (
{
closed = 1;
nodes = (
(353,30,l),
(353,680,l),
(273,680,l),
(81,596,l),
(81,515,l),
(316,627,l),
(273,653,l),
(273,30,l)
);
},
{
closed = 1;
nodes = (
(521,0,l),
(521,70,l),
(312,70,l),
(91,70,l),
(91,0,l)
);
}
);
userData = {
com.hugojourdan.ColorFlow = {
"0" = 0;
"1" = 0;
"10" = 0;
"11" = 0;
"2" = 0;
"3" = 0;
"4" = 0;
"5" = 0;
"6" = 0;
"7" = 0;
"8" = 0;
"9" = 0;
};
};
width = 582;
},
{
layerId = "89695F39-7340-4A9C-8DD1-5D7FBCD503D3";
shapes = (
{
closed = 1;
nodes = (
(352,0,l),
(352,680,l),
(228,680,l),
(40,584,l),
(40,444,l),
(273,567,l),
(192,623,l),
(192,0,l)
);
}
);
userData = {
com.hugojourdan.ColorFlow = {
"0" = 0;
"1" = 0;
"10" = 0;
"11" = 0;
"2" = 0;
"3" = 0;
"4" = 0;
"5" = 0;
"6" = 0;
"7" = 0;
"8" = 0;
"9" = 0;
};
};
width = 412;
},
{
associatedMasterId = "C5561BE3-178F-4E91-92CF-CFC72B047BCB";
color = 0;
layerId = "0DD1C177-FF04-4103-AA8A-EF8E00091CAF";
name = "Apr 25, 25 at 21:34";
shapes = (
{
closed = 1;
nodes = (
(282,30,l),
(282,680,l),
(202,680,l),
(50,596,l),
(50,513,l),
(245,625,l),
(202,653,l),
(202,30,l)
);
},
{
closed = 1;
nodes = (
(410,0,l),
(410,70,l),
(241,70,l),
(60,70,l),
(60,0,l)
);
}
);
userData = {
com.hugojourdan.ColorFlow = {
"0" = 0;
"1" = 0;
"10" = 0;
"11" = 0;
"2" = 0;
"3" = 0;
"4" = 0;
"5" = 0;
"6" = 0;
"7" = 0;
"8" = 0;
"9" = 0;
};
};
width = 450;
},
{
associatedMasterId = "89695F39-7340-4A9C-8DD1-5D7FBCD503D3";
color = 0;
layerId = "3B24C9E6-73D3-4BC9-A59E-2BC56BD37F9E";
name = v1;
shapes = (
{
closed = 1;
nodes = (
(393,0,l),
(393,680,l),
(249,680,l),
(61,587,l),
(61,419,l),
(294,542,l),
(233,653,l),
(233,0,l)
);
},
{
closed = 1;
nodes = (
(541,0,l),
(541,146,l),
(61,146,l),
(61,0,l)
);
}
);
userData = {
com.hugojourdan.ColorFlow = {
"0" = 0;
"1" = 0;
"10" = 0;
"11" = 0;
"2" = 0;
"3" = 0;
"4" = 0;
"5" = 0;
"6" = 0;
"7" = 0;
"8" = 0;
"9" = 0;
};
};
width = 582;
},
{
associatedMasterId = "C5561BE3-178F-4E91-92CF-CFC72B047BCB";
color = 3;
layerId = "2055A62C-736C-40AC-9074-F07B39A88000";
name = "May 4, 25 at 19:40";
shapes = (
{
closed = 1;
nodes = (
(312,72,l),
(312,680,l),
(232,680,l),
(60,588,l),
(60,500,l),
(275,623,l),
(222,653,l),
(222,72,l),
(80,72,l),
(80,0,l),
(440,0,l),
(440,72,l)
);
}
);
userData = {
com.hugojourdan.ColorFlow = {
"0" = 0;
"1" = 0;
"10" = 0;
"11" = 0;
"2" = 0;
"3" = 0;
"4" = 0;
"5" = 0;
"6" = 0;
"7" = 0;
"8" = 0;
"9" = 0;
};
};
width = 480;
}
);
unicode = 49;
userData = {
KernOnName = one;
};
}
{
glyphname = two;
kernLeft = two;
kernRight = two;
layers = (
{
associatedMasterId = "C5561BE3-178F-4E91-92CF-CFC72B047BCB";
color = 1;
layerId = "68CA27EF-ACD7-41F9-A619-5F073EC833F0";
name = v1;
shapes = (
{
closed = 1;
nodes = (
(356,223,ls),
(460,313,o),
(515,380,o),
(515,478,cs),
(515,602,o),
(424,690,o),
(293,690,cs),
(157,690,o),
(68,595,o),
(62,455,c),
(144,455,l),
(148,565,o),
(203,618,o),
(290,618,cs),
(375,618,o),
(434,568,o),
(434,477,cs),
(434,404,o),
(395,354,o),
(294,265,cs),
(74,72,l),
(74,0,l),
(517,0,l),
(517,72,l),
(106,72,l),
(149,44,l)
);
}
);
userData = {
com.hugojourdan.ColorFlow = {
"0" = 0;
"1" = 0;
"10" = 0;
"11" = 0;
"2" = 0;
"3" = 0;
"4" = 0;
"5" = 0;
"6" = 0;
"7" = 0;
"8" = 0;
"9" = 0;
};
};
width = 582;
},
{
associatedMasterId = "C5561BE3-178F-4E91-92CF-CFC72B047BCB";
color = 4;
layerId = "8A3492D8-1ED0-472D-873B-23EEC02E753D";
name = "Feb 8, 25 at 23:29";
shapes = (
{
closed = 1;
nodes = (
(347,222,ls),
(446,306,o),
(499,385,o),
(499,483,cs),
(499,608,o),
(408,692,o),
(278,692,cs),
(147,692,o),
(58,600,o),
(50,480,c),
(132,480,l),
(140,571,o),
(195,622,o),
(275,622,cs),
(356,622,o),
(418,572,o),
(418,482,cs),
(418,409,o),
(379,345,o),
(296,272,cs),
(64,67,l),
(64,0,l),
(507,0,l),
(507,70,l),
(96,70,l),
(139,46,l)
);
}
);
userData = {
com.hugojourdan.ColorFlow = {
"0" = 0;
"1" = 0;
"10" = 0;
"11" = 0;
"2" = 0;
"3" = 0;
"4" = 0;
"5" = 0;
"6" = 0;
"7" = 0;
"8" = 0;
"9" = 0;
};
};
width = 562;
},
{
associatedMasterId = "C5561BE3-178F-4E91-92CF-CFC72B047BCB";
color = 0;
layerId = "C9AEEFE2-1AF2-4B94-AD2C-0EEB6FE7A40C";
name = "Apr 25, 25 at 21:38";
shapes = (
{
closed = 1;
nodes = (
(347,222,ls),
(446,306,o),
(499,385,o),
(499,486,cs),
(499,611,o),
(411,692,o),
(282,692,cs),
(148,692,o),
(58,605,o),
(50,490,c),
(132,490,l),
(140,576,o),
(197,622,o),
(277,622,cs),
(359,622,o),
(418,575,o),
(418,485,cs),
(418,409,o),
(379,345,o),
(296,272,cs),
(64,67,l),
(64,0,l),
(507,0,l),
(507,70,l),
(96,70,l),
(139,46,l)
);
}
);
userData = {
com.hugojourdan.ColorFlow = {
"0" = 0;
"1" = 0;
"10" = 0;
"11" = 0;
"2" = 0;
"3" = 0;
"4" = 0;
"5" = 0;
"6" = 0;
"7" = 0;
"8" = 0;
"9" = 0;
};
};
width = 562;
},
{
associatedMasterId = "C5561BE3-178F-4E91-92CF-CFC72B047BCB";
color = 3;
layerId = "A5E7E0D7-C3F1-4C3B-A8C9-F1F441153290";
name = "Apr 27, 25 at 21:38";
shapes = (
{
closed = 1;
nodes = (
(527,0,l),
(527,72,l),
(106,72,l),
(159,47,l),
(367,222,ls),
(473,311,o),
(520,388,o),
(520,476,cs),
(520,486,ls),
(520,609,o),
(429,692,o),
(297,692,cs),
(161,692,o),
(68,610,o),
(60,490,c),
(152,490,l),
(159,567,o),
(214,618,o),
(293,618,cs),
(374,618,o),
(428,565,o),
(428,485,cs),
(428,475,ls),
(428,408,o),
(391,347,o),
(306,272,cs),
(74,68,l),
(74,0,l)
);
}
);
userData = {
com.hugojourdan.ColorFlow = {
"0" = 0;
"1" = 0;
"10" = 0;
"11" = 0;
"2" = 0;
"3" = 0;
"4" = 0;
"5" = 0;
"6" = 0;
"7" = 0;
"8" = 0;
"9" = 0;
};
};
width = 585;
},
{
associatedMasterId = "89695F39-7340-4A9C-8DD1-5D7FBCD503D3";
color = 0;
layerId = "920CB476-D345-4A5F-BF9C-39430A280B74";
name = v1;
shapes = (
{
closed = 1;
nodes = (
(358,213,ls),
(472,306,o),
(538,369,o),
(538,478,cs),
(538,612,o),
(434,690,o),
(295,690,cs),
(150,690,o),
(50,605,o),
(44,445,c),
(206,445,l),
(207,522,o),
(244,551,o),
(293,551,cs),
(342,551,o),
(376,525,o),
(376,473,cs),
(376,421,o),
(341,390,o),
(274,333,cs),
(56,147,l),
(56,0,l),
(536,0,l),
(536,146,l),
(108,146,l),
(148,42,l)
);
}
);
userData = {
com.hugojourdan.ColorFlow = {
"0" = 0;
"1" = 0;
"10" = 0;
"11" = 0;
"2" = 0;
"3" = 0;
"4" = 0;
"5" = 0;
"6" = 0;
"7" = 0;
"8" = 0;
"9" = 0;
};
};
width = 582;
},
{
associatedMasterId = "89695F39-7340-4A9C-8DD1-5D7FBCD503D3";
color = 1;
layerId = "4BDC1C78-3D44-4918-86E9-FE81976BB1AD";
name = "May 4, 25 at 23:09";
shapes = (
{
closed = 1;
nodes = (
(546,0,l),
(546,128,l),
(108,128,l),
(140,26,l),
(392,223,ls),
(507,313,o),
(548,383,o),
(548,470,cs),
(548,480,ls),
(548,610,o),
(450,696,o),
(294,696,cs),
(138,696,o),
(36,604,o),
(28,463,c),
(190,463,l),
(193,524,o),
(231,564,o),
(291,564,cs),
(347,564,o),
(386,528,o),
(386,474,cs),
(386,464,ls),
(386,418,o),
(357,372,o),
(284,313,cs),
(46,120,l),
(46,0,l)
);
}
);
userData = {
com.hugojourdan.ColorFlow = {
"0" = 0;
"1" = 0;
"10" = 0;
"11" = 0;
"2" = 0;
"3" = 0;
"4" = 0;
"5" = 0;
"6" = 0;
"7" = 0;
"8" = 0;
"9" = 0;
};
};
width = 582;
},
{
associatedMasterId = "C5561BE3-178F-4E91-92CF-CFC72B047BCB";
color = 3;
layerId = "61C7E485-F5EA-49C6-9B58-4C6355FFA8C9";
name = "May 13, 25 at 16:23";
shapes = (
{
closed = 1;
nodes = (
(527,0,l),
(527,72,l),
(106,72,l),
(159,47,l),
(364,224,ls),
(470,315,o),
(522,388,o),
(522,481,cs),
(522,611,o),
(430,696,o),
(297,696,cs),
(161,696,o),
(68,612,o),
(60,490,c),
(152,490,l),
(159,569,o),
(214,622,o),
(293,622,cs),
(375,622,o),
(430,567,o),
(430,480,cs),
(430,408,o),
(392,348,o),
(306,272,cs),
(74,68,l),
(74,0,l)
);
}
);
userData = {
com.hugojourdan.ColorFlow = {
"0" = 0;
"1" = 0;
"10" = 0;
"11" = 0;
"2" = 0;
"3" = 0;
"4" = 0;
"5" = 0;
"6" = 0;
"7" = 0;
"8" = 0;
"9" = 0;
};
};
width = 585;
},
{
layerId = "C5561BE3-178F-4E91-92CF-CFC72B047BCB";
name = Regular;
shapes = (
{
closed = 1;
nodes = (
(519,0,l),
(519,72,l),
(98,72,l),
(151,47,l),
(356,224,ls),
(461,314,o),
(512,388,o),
(512,476,cs),
(512,486,ls),
(512,611,o),
(421,696,o),
(289,696,cs),
(153,696,o),
(60,612,o),
(52,490,c),
(144,490,l),
(151,569,o),
(206,622,o),
(285,622,cs),
(366,622,o),
(420,567,o),
(420,485,cs),
(420,475,ls),
(420,408,o),
(383,347,o),
(298,272,cs),
(66,68,l),
(66,0,l)
);
}
);
userData = {
com.hugojourdan.ColorFlow = {
"0" = 0;
"1" = 0;
"10" = 0;
"11" = 0;
"2" = 0;
"3" = 0;
"4" = 0;
"5" = 0;
"6" = 0;
"7" = 0;
"8" = 0;
"9" = 0;
};
};
width = 575;
},
{
associatedMasterId = "89695F39-7340-4A9C-8DD1-5D7FBCD503D3";
color = 1;
layerId = "E2FF0D0E-1031-4C88-BA23-F3803F5E27E6";
name = "May 13, 25 at 16:23";
shapes = (
{
closed = 1;
nodes = (
(546,0,l),
(546,128,l),
(108,128,l),
(140,30,l),
(392,231,ls),
(507,323,o),
(550,386,o),
(550,477,cs),
(550,610,o),
(451,696,o),
(294,696,cs),
(138,696,o),
(36,604,o),
(28,463,c),
(190,463,l),
(193,524,o),
(231,564,o),
(291,564,cs),
(348,564,o),
(388,528,o),
(388,469,cs),
(388,418,o),
(357,374,o),
(284,313,cs),
(46,116,l),
(46,0,l)
);
}
);
userData = {
com.hugojourdan.ColorFlow = {
"0" = 0;
"1" = 0;
"10" = 0;
"11" = 0;
"2" = 0;
"3" = 0;
"4" = 0;
"5" = 0;
"6" = 0;
"7" = 0;
"8" = 0;
"9" = 0;
};
};
width = 582;
},
{
layerId = "89695F39-7340-4A9C-8DD1-5D7FBCD503D3";
name = ExtraBold;
shapes = (
{
closed = 1;
nodes = (
(541,0,l),
(541,128,l),
(103,128,l),
(135,30,l),
(387,231,ls),
(501,322,o),
(543,386,o),
(543,472,cs),
(543,482,ls),
(543,610,o),
(445,696,o),
(289,696,cs),
(133,696,o),
(31,604,o),
(23,463,c),
(185,463,l),
(188,524,o),
(226,564,o),
(286,564,cs),
(342,564,o),
(381,528,o),
(381,474,cs),
(381,464,ls),
(381,418,o),
(351,373,o),
(279,313,cs),
(41,116,l),
(41,0,l)
);
}
);
userData = {
com.hugojourdan.ColorFlow = {
"0" = 0;
"1" = 0;
"10" = 0;
"11" = 0;
"2" = 0;
"3" = 0;
"4" = 0;
"5" = 0;
"6" = 0;
"7" = 0;
"8" = 0;
"9" = 0;
};
};
width = 572;
}
);
unicode = 50;
userData = {
KernOnName = two;
};
}
{
glyphname = three;
kernLeft = three;
kernRight = three;
layers = (
{
associatedMasterId = "C5561BE3-178F-4E91-92CF-CFC72B047BCB";
color = 1;
layerId = "4DD8D35F-0CAC-4B00-959B-26382D0919A4";
name = v1;
shapes = (
{
closed = 1;
nodes = (
(290,400,l),
(500,615,l),
(500,680,l),
(467,680,l),
(202,403,l),
(202,356,l),
(288,356,ls),
(381,356,o),
(441,303,o),
(441,210,cs),
(441,116,o),
(378,62,o),
(288,62,cs),
(202,62,o),
(144,110,o),
(140,218,c),
(59,218,l),
(64,84,o),
(150,-10,o),
(286,-10,cs),
(425,-10,o),
(522,83,o),
(522,214,cs),
(522,338,o),
(434,415,o),
(293,415,c)
);
},
{
closed = 1;
nodes = (
(479,608,l),
(479,680,l),
(78,680,l),
(78,608,l)
);
}
);
userData = {
com.hugojourdan.ColorFlow = {
"0" = 0;
"1" = 0;
"10" = 0;
"11" = 0;
"2" = 0;
"3" = 0;
"4" = 0;
"5" = 0;
"6" = 0;
"7" = 0;
"8" = 0;
"9" = 0;
};
};
width = 582;
},
{
associatedMasterId = "C5561BE3-178F-4E91-92CF-CFC72B047BCB";
color = 4;
layerId = "F6A1878C-59B6-4794-9E52-357B0A0F4F31";
name = "Feb 7, 25 at 19:38";
shapes = (
{
closed = 1;
nodes = (
(232,397,l),
(232,350,l),
(288,350,ls),
(381,350,o),
(441,293,o),
(441,202,cs),
(441,115,o),
(380,60,o),
(292,60,cs),
(206,60,o),
(144,117,o),
(140,198,c),
(59,198,l),
(64,78,o),
(149,-10,o),
(288,-10,cs),
(426,-10,o),
(522,77,o),
(522,206,cs),
(522,331,o),
(434,414,o),
(293,414,c)
);
},
{
closed = 1;
nodes = (
(509,483,l),
(509,607,o),
(418,690,o),
(288,690,cs),
(157,690,o),
(68,599,o),
(60,480,c),
(142,480,l),
(150,570,o),
(205,620,o),
(285,620,cs),
(366,620,o),
(428,571,o),
(428,482,c)
);
}
);
userData = {
com.hugojourdan.ColorFlow = {
"0" = 0;
"1" = 0;
"10" = 0;
"11" = 0;
"2" = 0;
"3" = 0;
"4" = 0;
"5" = 0;
"6" = 0;
"7" = 0;
"8" = 0;
"9" = 0;
};
};
width = 582;
},
{
layerId = "C5561BE3-178F-4E91-92CF-CFC72B047BCB";
name = "Deck Regular";
shapes = (
{
closed = 1;
nodes = (
(425,-16,o),
(521,72,o),
(521,204,cs),
(521,214,ls),
(521,332,o),
(436,411,o),
(306,411,cs),
(282,411,l),
(276,371,l),
(510,608,l),
(510,680,l),
(65,680,l),
(65,606,l),
(479,606,l),
(448,652,l),
(203,402,l),
(203,350,l),
(261,350,ls),
(369,350,o),
(429,293,o),
(429,206,cs),
(429,196,ls),
(429,112,o),
(369,58,o),
(284,58,cs),
(198,58,o),
(137,114,o),
(132,190,c),
(42,190,l),
(47,72,o),
(132,-16,o),
(280,-16,cs)
);
}
);
userData = {
com.hugojourdan.ColorFlow = {
"0" = 0;
"1" = 0;
"10" = 0;
"11" = 0;
"2" = 0;
"3" = 0;
"4" = 0;
"5" = 0;
"6" = 0;
"7" = 0;
"8" = 0;
"9" = 0;
};
};
width = 579;
},
{
associatedMasterId = "C5561BE3-178F-4E91-92CF-CFC72B047BCB";
color = 4;
layerId = "644A0B04-4D54-4CB5-A38D-DEA5E0CED7E9";
name = "Feb 7, 25 at 19:38";
shapes = (
{
closed = 1;
nodes = (
(83,680,l),
(83,610,l),
(479,610,l),
(424,635,l),
(232,397,l),
(232,350,l),
(288,350,ls),
(381,350,o),
(441,293,o),
(441,202,cs),
(441,115,o),
(380,60,o),
(292,60,cs),
(206,60,o),
(144,117,o),
(140,198,c),
(59,198,l),
(64,78,o),
(149,-10,o),
(288,-10,cs),
(426,-10,o),
(522,77,o),
(522,206,cs),
(522,331,o),
(434,414,o),
(293,414,c),
(320,394,l),
(500,615,l),
(500,680,l)
);
}
);
userData = {
com.hugojourdan.ColorFlow = {
"0" = 0;
"1" = 0;
"10" = 0;
"11" = 0;
"2" = 0;
"3" = 0;
"4" = 0;
"5" = 0;
"6" = 0;
"7" = 0;
"8" = 0;
"9" = 0;
};
};
width = 582;
},
{
layerId = "89695F39-7340-4A9C-8DD1-5D7FBCD503D3";
shapes = (
{
closed = 1;
nodes = (
(447,-16,o),
(561,81,o),
(561,217,cs),
(561,227,ls),
(561,342,o),
(478,420,o),
(355,420,cs),
(310,420,l),
(309,365,l),
(540,560,l),
(540,680,l),
(39,680,l),
(39,552,l),
(466,552,l),
(389,588,l),
(175,402,l),
(175,318,l),
(280,318,ls),
(356,318,o),
(399,283,o),
(399,223,cs),
(399,213,ls),
(399,154,o),
(357,114,o),
(285,114,cs),
(222,114,o),
(183,145,o),
(177,200,c),
(15,200,l),
(24,67,o),
(125,-16,o),
(281,-16,cs)
);
}
);
userData = {
com.hugojourdan.ColorFlow = {
"0" = 0;
"1" = 0;
"10" = 0;
"11" = 0;
"2" = 0;
"3" = 0;
"4" = 0;
"5" = 0;
"6" = 0;
"7" = 0;
"8" = 0;
"9" = 0;
};
};
width = 582;
},
{
associatedMasterId = "C5561BE3-178F-4E91-92CF-CFC72B047BCB";
color = 4;
layerId = "9F837970-0CDB-4755-A7CD-C0C9E94DB3F0";
name = "Feb 8, 25 at 23:30";
shapes = (
{
closed = 1;
nodes = (
(72,680,l),
(72,610,l),
(468,610,l),
(437,640,l),
(200,400,l),
(200,350,l),
(272,350,ls),
(375,350,o),
(430,297,o),
(430,205,cs),
(430,115,o),
(369,58,o),
(281,58,cs),
(195,58,o),
(133,116,o),
(129,198,c),
(48,198,l),
(53,77,o),
(138,-12,o),
(277,-12,cs),
(415,-12,o),
(511,77,o),
(511,209,cs),
(511,333,o),
(427,411,o),
(307,411,cs),
(269,411,l),
(263,371,l),
(489,600,l),
(489,680,l)
);
}
);
userData = {
com.hugojourdan.ColorFlow = {
"0" = 0;
"1" = 0;
"10" = 0;
"11" = 0;
"2" = 0;
"3" = 0;
"4" = 0;
"5" = 0;
"6" = 0;
"7" = 0;
"8" = 0;
"9" = 0;
};
};
width = 567;
},
{
associatedMasterId = "C5561BE3-178F-4E91-92CF-CFC72B047BCB";
color = 0;
layerId = "9A1D2EA8-BE1B-49CF-9D4F-DD0758AF14E7";
name = "Apr 25, 25 at 22:01";
shapes = (
{
closed = 1;
nodes = (
(62,680,l),
(62,610,l),
(472,610,l),
(441,642,l),
(200,402,l),
(200,350,l),
(262,350,ls),
(375,350,o),
(430,297,o),
(430,205,cs),
(430,112,o),
(372,58,o),
(281,58,cs),
(195,58,o),
(133,113,o),
(129,190,c),
(48,190,l),
(53,74,o),
(138,-12,o),
(277,-12,cs),
(418,-12,o),
(511,74,o),
(511,209,cs),
(511,332,o),
(426,411,o),
(297,411,cs),
(269,411,l),
(263,371,l),
(493,600,l),
(493,680,l)
);
}
);
userData = {
com.hugojourdan.ColorFlow = {
"0" = 0;
"1" = 0;
"10" = 0;
"11" = 0;
"2" = 0;
"3" = 0;
"4" = 0;
"5" = 0;
"6" = 0;
"7" = 0;
"8" = 0;
"9" = 0;
};
};
width = 567;
},
{
associatedMasterId = "C5561BE3-178F-4E91-92CF-CFC72B047BCB";
color = 3;
layerId = "C11DA30F-5E26-4525-8039-A81AB964C07D";
name = "Apr 27, 25 at 21:38";
shapes = (
{
closed = 1;
nodes = (
(537,214,ls),
(537,332,o),
(452,411,o),
(322,411,cs),
(298,411,l),
(292,371,l),
(526,610,l),
(526,680,l),
(81,680,l),
(81,608,l),
(495,608,l),
(464,652,l),
(219,402,l),
(219,350,l),
(277,350,ls),
(385,350,o),
(445,293,o),
(445,206,cs),
(445,196,ls),
(445,114,o),
(385,62,o),
(300,62,cs),
(214,62,o),
(153,116,o),
(148,190,c),
(58,190,l),
(63,74,o),
(148,-12,o),
(296,-12,cs),
(441,-12,o),
(537,74,o),
(537,204,cs)
);
}
);
userData = {
com.hugojourdan.ColorFlow = {
"0" = 0;
"1" = 0;
"10" = 0;
"11" = 0;
"2" = 0;
"3" = 0;
"4" = 0;
"5" = 0;
"6" = 0;
"7" = 0;
"8" = 0;
"9" = 0;
};
};
width = 595;
},
{
associatedMasterId = "89695F39-7340-4A9C-8DD1-5D7FBCD503D3";
color = 0;
layerId = "B05B795D-E0AB-434C-9B50-E7FEC9CD81A1";
name = v1;
shapes = (
{
closed = 1;
nodes = (
(293,345,l),
(525,555,l),
(525,680,l),
(498,680,l),
(185,412,l),
(185,324,l),
(271,324,ls),
(349,324,o),
(386,289,o),
(386,224,cs),
(386,161,o),
(351,129,o),
(297,129,cs),
(247,129,o),
(208,157,o),
(206,235,c),
(44,235,l),
(48,74,o),
(154,-10,o),
(295,-10,cs),
(446,-10,o),
(548,82,o),
(548,216,cs),
(548,347,o),
(451,420,o),
(346,420,c)
);
},
{
closed = 1;
nodes = (
(457,534,l),
(507,680,l),
(63,680,l),
(63,534,l)
);
}
);
userData = {
com.hugojourdan.ColorFlow = {
"0" = 0;
"1" = 0;
"10" = 0;
"11" = 0;
"2" = 0;
"3" = 0;
"4" = 0;
"5" = 0;
"6" = 0;
"7" = 0;
"8" = 0;
"9" = 0;
};
};
width = 582;
},
{
associatedMasterId = "89695F39-7340-4A9C-8DD1-5D7FBCD503D3";
color = 1;
layerId = "55E0E5CD-0A26-46AA-9C38-E9473B08B447";
name = "May 4, 25 at 22:52";
shapes = (
{
closed = 1;
nodes = (
(453,-16,o),
(566,81,o),
(566,217,cs),
(566,227,ls),
(566,342,o),
(483,420,o),
(360,420,cs),
(315,420,l),
(329,365,l),
(545,560,l),
(545,680,l),
(44,680,l),
(44,552,l),
(471,552,l),
(394,588,l),
(195,402,l),
(195,318,l),
(285,318,ls),
(361,318,o),
(404,283,o),
(404,224,cs),
(404,214,ls),
(404,154,o),
(361,114,o),
(293,114,cs),
(230,114,o),
(191,148,o),
(184,210,c),
(22,210,l),
(31,71,o),
(133,-16,o),
(290,-16,cs)
);
}
);
userData = {
com.hugojourdan.ColorFlow = {
"0" = 0;
"1" = 0;
"10" = 0;
"11" = 0;
"2" = 0;
"3" = 0;
"4" = 0;
"5" = 0;
"6" = 0;
"7" = 0;
"8" = 0;
"9" = 0;
};
};
width = 592;
}
);
unicode = 51;
userData = {
KernOnName = three;
};
}
{
glyphname = four;
kernLeft = four;
kernRight = four;
layers = (
{
layerId = "C5561BE3-178F-4E91-92CF-CFC72B047BCB";
shapes = (
{
closed = 1;
nodes = (
(463,0,l),
(463,680,l),
(303,680,l),
(18,253,l),
(18,181,l),
(573,181,l),
(573,253,l),
(421,253,l),
(407,253,l),
(53,253,l),
(89,222,l),
(383,660,l),
(373,660,l),
(373,224,l),
(373,208,l),
(373,0,l)
);
}
);
userData = {
com.hugojourdan.ColorFlow = {
"0" = 0;
"1" = 0;
"10" = 0;
"11" = 0;
"2" = 0;
"3" = 0;
"4" = 0;
"5" = 0;
"6" = 0;
"7" = 0;
"8" = 0;
"9" = 0;
};
};
width = 585;
},
{
associatedMasterId = "C5561BE3-178F-4E91-92CF-CFC72B047BCB";
color = 0;
layerId = "8DF35CF1-B664-4D58-ADFE-FDCA1628ABB6";
name = v1;
shapes = (
{
closed = 1;
nodes = (
(439,0,l),
(439,680,l),
(359,680,l),
(359,0,l)
);
},
{
closed = 1;
nodes = (
(121,230,l),
(377,680,l),
(295,680,l),
(39,230,l),
(39,168,l),
(544,168,l),
(544,240,l),
(74,240,l)
);
}
);
userData = {
com.hugojourdan.ColorFlow = {
"0" = 0;
"1" = 0;
"10" = 0;
"11" = 0;
"2" = 0;
"3" = 0;
"4" = 0;
"5" = 0;
"6" = 0;
"7" = 0;
"8" = 0;
"9" = 0;
};
};
width = 582;
},
{
associatedMasterId = "C5561BE3-178F-4E91-92CF-CFC72B047BCB";
color = 4;
layerId = "FFCE7C43-2426-421D-A2F6-91F2A6E64F6B";
name = mono;
shapes = (
{
closed = 1;
nodes = (
(449,0,l),
(449,680,l),
(369,680,l),
(369,0,l)
);
},
{
closed = 1;
nodes = (
(99,215,l),
(383,680,l),
(305,680,l),
(39,246,l),
(39,170,l),
(544,170,l),
(544,240,l),
(74,240,l)
);
}
);
userData = {
com.hugojourdan.ColorFlow = {
"0" = 0;
"1" = 0;
"10" = 0;
"11" = 0;
"2" = 0;
"3" = 0;
"4" = 0;
"5" = 0;
"6" = 0;
"7" = 0;
"8" = 0;
"9" = 0;
};
};
width = 582;
},
{
layerId = "89695F39-7340-4A9C-8DD1-5D7FBCD503D3";
shapes = (
{
closed = 1;
nodes = (
(531,0,l),
(531,680,l),
(287,680,l),
(17,272,l),
(17,149,l),
(615,149,l),
(615,277,l),
(452,277,l),
(433,273,l),
(72,273,l),
(151,242,l),
(421,650,l),
(375,650,l),
(375,229,l),
(371,206,l),
(371,0,l)
);
}
);
userData = {
com.hugojourdan.ColorFlow = {
"0" = 0;
"1" = 0;
"10" = 0;
"11" = 0;
"2" = 0;
"3" = 0;
"4" = 0;
"5" = 0;
"6" = 0;
"7" = 0;
"8" = 0;
"9" = 0;
};
};
width = 637;
},
{
associatedMasterId = "C5561BE3-178F-4E91-92CF-CFC72B047BCB";
color = 4;
layerId = "68D618A1-23B7-4C4E-BC9F-1291A79E8F54";
name = "Feb 8, 25 at 23:26";
shapes = (
{
closed = 1;
nodes = (
(464,0,l),
(464,680,l),
(384,680,l),
(384,0,l)
);
},
{
closed = 1;
nodes = (
(100,224,l),
(403,680,l),
(320,680,l),
(39,255,l),
(39,179,l),
(574,179,l),
(574,249,l),
(74,249,l)
);
}
);
userData = {
com.hugojourdan.ColorFlow = {
"0" = 0;
"1" = 0;
"10" = 0;
"11" = 0;
"2" = 0;
"3" = 0;
"4" = 0;
"5" = 0;
"6" = 0;
"7" = 0;
"8" = 0;
"9" = 0;
};
};
width = 602;
},
{
associatedMasterId = "C5561BE3-178F-4E91-92CF-CFC72B047BCB";
color = 0;
layerId = "EDFF27C1-18EC-40DF-95F3-A444A09C5AD0";
name = "Apr 25, 25 at 22:41";
shapes = (
{
closed = 1;
nodes = (
(384,680,l),
(384,0,l),
(464,0,l),
(464,680,l),
(311,680,l),
(39,255,l),
(39,179,l),
(574,179,l),
(574,249,l),
(74,249,l),
(100,224,l),
(394,680,l)
);
}
);
userData = {
com.hugojourdan.ColorFlow = {
"0" = 0;
"1" = 0;
"10" = 0;
"11" = 0;
"2" = 0;
"3" = 0;
"4" = 0;
"5" = 0;
"6" = 0;
"7" = 0;
"8" = 0;
"9" = 0;
};
};
width = 602;
},
{
associatedMasterId = "89695F39-7340-4A9C-8DD1-5D7FBCD503D3";
color = 0;
layerId = "400ACE6C-97C1-4DE9-A6A9-C3FE39A967FB";
name = v1;
shapes = (
{
closed = 1;
nodes = (
(500,0,l),
(500,680,l),
(340,680,l),
(340,0,l)
);
},
{
closed = 1;
nodes = (
(176,240,l),
(377,680,l),
(226,680,l),
(36,270,l),
(36,133,l),
(561,133,l),
(561,272,l),
(91,272,l)
);
}
);
userData = {
com.hugojourdan.ColorFlow = {
"0" = 0;
"1" = 0;
"10" = 0;
"11" = 0;
"2" = 0;
"3" = 0;
"4" = 0;
"5" = 0;
"6" = 0;
"7" = 0;
"8" = 0;
"9" = 0;
};
};
width = 582;
},
{
associatedMasterId = "89695F39-7340-4A9C-8DD1-5D7FBCD503D3";
color = 1;
layerId = "7DC9EE28-63C8-44D6-A7BD-D90877D26D16";
name = "May 4, 25 at 22:55";
shapes = (
{
closed = 1;
nodes = (
(514,0,l),
(514,680,l),
(260,680,l),
(10,252,l),
(10,149,l),
(615,149,l),
(615,277,l),
(65,277,l),
(134,222,l),
(384,650,l),
(354,650,l),
(354,0,l)
);
}
);
userData = {
com.hugojourdan.ColorFlow = {
"0" = 0;
"1" = 0;
"10" = 0;
"11" = 0;
"2" = 0;
"3" = 0;
"4" = 0;
"5" = 0;
"6" = 0;
"7" = 0;
"8" = 0;
"9" = 0;
};
};
width = 635;
}
);
unicode = 52;
}
{
glyphname = five;
kernLeft = five;
kernRight = five;
layers = (
{
background = {
shapes = (
{
pos = (26,0);
ref = three;
}
);
};
layerId = "C5561BE3-178F-4E91-92CF-CFC72B047BCB";
shapes = (
{
closed = 1;
nodes = (
(441,-16,o),
(536,77,o),
(536,213,cs),
(536,223,ls),
(536,351,o),
(450,446,o),
(318,446,cs),
(227,446,o),
(166,399,o),
(138,341,c),
(168,341,l),
(172,646,l),
(131,608,l),
(508,608,l),
(508,680,l),
(86,680,l),
(81,306,l),
(164,306,l),
(186,349,o),
(236,374,o),
(296,374,cs),
(390,374,o),
(444,311,o),
(444,221,cs),
(444,211,ls),
(444,115,o),
(386,58,o),
(294,58,cs),
(215,58,o),
(159,99,o),
(150,170,c),
(58,170,l),
(66,60,o),
(158,-16,o),
(292,-16,cs)
);
}
);
userData = {
com.hugojourdan.ColorFlow = {
"0" = 0;
"1" = 0;
"10" = 0;
"11" = 0;
"2" = 0;
"3" = 0;
"4" = 0;
"5" = 0;
"6" = 0;
"7" = 0;
"8" = 0;
"9" = 0;
};
};
width = 590;
},
{
associatedMasterId = "C5561BE3-178F-4E91-92CF-CFC72B047BCB";
color = 1;
layerId = "E8EF799C-601F-41AA-A93A-5365A18795B4";
name = v1;
shapes = (
{
closed = 1;
nodes = (
(502,608,l),
(502,680,l),
(135,680,l),
(135,608,l)
);
},
{
closed = 1;
nodes = (
(153,305,l),
(175,348,o),
(223,376,o),
(289,376,cs),
(386,376,o),
(448,316,o),
(448,215,cs),
(448,116,o),
(384,62,o),
(293,62,cs),
(208,62,o),
(152,109,o),
(148,202,c),
(66,202,l),
(72,76,o),
(163,-10,o),
(293,-10,cs),
(432,-10,o),
(529,86,o),
(529,220,cs),
(529,347,o),
(441,441,o),
(311,441,cs),
(224,441,o),
(169,397,o),
(150,335,c),
(168,356,l),
(192,680,l),
(113,680,l),
(83,305,l)
);
}
);
userData = {
com.hugojourdan.ColorFlow = {
"0" = 0;
"1" = 0;
"10" = 0;
"11" = 0;
"2" = 0;
"3" = 0;
"4" = 0;
"5" = 0;
"6" = 0;
"7" = 0;
"8" = 0;
"9" = 0;
};
};
width = 582;
},
{
associatedMasterId = "C5561BE3-178F-4E91-92CF-CFC72B047BCB";
color = 4;
layerId = "7EB6361C-7CEF-4ECF-98CC-6BBE13F640E6";
name = "Feb 7, 25 at 19:15";
shapes = (
{
closed = 1;
nodes = (
(502,612,l),
(502,680,l),
(135,680,l),
(135,612,l)
);
},
{
closed = 1;
nodes = (
(168,300,l),
(187,346,o),
(237,374,o),
(297,374,cs),
(389,374,o),
(448,308,o),
(448,218,cs),
(448,124,o),
(384,60,o),
(295,60,cs),
(214,60,o),
(155,112,o),
(148,192,c),
(66,192,l),
(72,72,o),
(163,-10,o),
(293,-10,cs),
(432,-10,o),
(529,86,o),
(529,220,cs),
(529,347,o),
(442,441,o),
(317,441,cs),
(229,441,o),
(169,394,o),
(152,335,c),
(158,335,l),
(177,680,l),
(102,680,l),
(81,300,l)
);
}
);
userData = {
com.hugojourdan.ColorFlow = {
"0" = 0;
"1" = 0;
"10" = 0;
"11" = 0;
"2" = 0;
"3" = 0;
"4" = 0;
"5" = 0;
"6" = 0;
"7" = 0;
"8" = 0;
"9" = 0;
};
};
width = 582;
},
{
layerId = "89695F39-7340-4A9C-8DD1-5D7FBCD503D3";
shapes = (
{
closed = 1;
nodes = (
(431,-16,o),
(543,74,o),
(543,222,cs),
(543,232,ls),
(543,367,o),
(449,456,o),
(318,456,cs),
(228,456,o),
(175,411,o),
(157,345,c),
(182,346,l),
(185,627,l),
(89,552,l),
(515,552,l),
(515,680,l),
(40,680,l),
(35,283,l),
(180,283,l),
(198,315,o),
(233,337,o),
(277,337,cs),
(338,337,o),
(381,296,o),
(381,228,cs),
(381,218,ls),
(381,149,o),
(336,112,o),
(277,112,cs),
(223,112,o),
(182,143,o),
(174,195,c),
(14,195,l),
(21,72,o),
(121,-16,o),
(274,-16,cs)
);
}
);
userData = {
com.hugojourdan.ColorFlow = {
"0" = 0;
"1" = 0;
"10" = 0;
"11" = 0;
"2" = 0;
"3" = 0;
"4" = 0;
"5" = 0;
"6" = 0;
"7" = 0;
"8" = 0;
"9" = 0;
};
};
width = 572;
},
{
associatedMasterId = "C5561BE3-178F-4E91-92CF-CFC72B047BCB";
color = 4;
layerId = "80D2ACE3-664D-40BC-9AE3-007CE044F872";
name = "Feb 8, 25 at 23:31";
shapes = (
{
closed = 1;
nodes = (
(492,610,l),
(492,680,l),
(125,680,l),
(125,610,l)
);
},
{
closed = 1;
nodes = (
(158,300,l),
(177,346,o),
(227,374,o),
(287,374,cs),
(379,374,o),
(438,308,o),
(438,218,cs),
(438,123,o),
(374,58,o),
(285,58,cs),
(204,58,o),
(147,106,o),
(138,180,c),
(56,180,l),
(64,66,o),
(153,-12,o),
(283,-12,cs),
(422,-12,o),
(519,85,o),
(519,220,cs),
(519,347,o),
(432,441,o),
(307,441,cs),
(219,441,o),
(159,394,o),
(142,335,c),
(148,335,l),
(167,680,l),
(92,680,l),
(71,300,l)
);
}
);
userData = {
com.hugojourdan.ColorFlow = {
"0" = 0;
"1" = 0;
"10" = 0;
"11" = 0;
"2" = 0;
"3" = 0;
"4" = 0;
"5" = 0;
"6" = 0;
"7" = 0;
"8" = 0;
"9" = 0;
};
};
width = 569;
},
{
associatedMasterId = "C5561BE3-178F-4E91-92CF-CFC72B047BCB";
color = 0;
layerId = "A30386F9-D5DC-4F71-8287-0E5ED866EBDB";
name = "Apr 25, 25 at 22:47";
shapes = (
{
closed = 1;
nodes = (
(492,610,l),
(492,680,l),
(125,680,l),
(125,610,l)
);
},
{
closed = 1;
nodes = (
(158,306,l),
(177,350,o),
(227,376,o),
(287,376,cs),
(382,376,o),
(438,312,o),
(438,218,cs),
(438,118,o),
(379,58,o),
(285,58,cs),
(204,58,o),
(147,102,o),
(138,170,c),
(56,170,l),
(64,62,o),
(153,-12,o),
(283,-12,cs),
(427,-12,o),
(519,80,o),
(519,220,cs),
(519,351,o),
(435,443,o),
(307,443,cs),
(219,443,o),
(159,398,o),
(142,341,c),
(148,341,l),
(167,680,l),
(92,680,l),
(71,306,l)
);
}
);
userData = {
com.hugojourdan.ColorFlow = {
"0" = 0;
"1" = 0;
"10" = 0;
"11" = 0;
"2" = 0;
"3" = 0;
"4" = 0;
"5" = 0;
"6" = 0;
"7" = 0;
"8" = 0;
"9" = 0;
};
};
width = 569;
},
{
associatedMasterId = "C5561BE3-178F-4E91-92CF-CFC72B047BCB";
background = {
shapes = (
{
pos = (22,0);
ref = three;
}
);
};
color = 3;
layerId = "8B713CD1-2CC9-4EA2-BA6B-F804CA78D8A6";
name = "Apr 27, 25 at 21:39";
shapes = (
{
closed = 1;
nodes = (
(447,-12,o),
(542,80,o),
(542,215,cs),
(542,225,ls),
(542,351,o),
(456,444,o),
(324,444,cs),
(233,444,o),
(172,398,o),
(144,341,c),
(170,341,l),
(189,680,l),
(104,680,l),
(83,306,l),
(170,306,l),
(190,350,o),
(242,374,o),
(304,374,cs),
(396,374,o),
(450,312,o),
(450,223,cs),
(450,213,ls),
(450,118,o),
(392,62,o),
(300,62,cs),
(221,62,o),
(165,102,o),
(156,170,c),
(64,170,l),
(72,62,o),
(164,-12,o),
(298,-12,cs)
);
},
{
closed = 1;
nodes = (
(514,608,l),
(514,680,l),
(137,680,l),
(137,608,l)
);
}
);
userData = {
com.hugojourdan.ColorFlow = {
"0" = 0;
"1" = 0;
"10" = 0;
"11" = 0;
"2" = 0;
"3" = 0;
"4" = 0;
"5" = 0;
"6" = 0;
"7" = 0;
"8" = 0;
"9" = 0;
};
};
width = 602;
},
{
associatedMasterId = "89695F39-7340-4A9C-8DD1-5D7FBCD503D3";
color = 0;
layerId = "3FC51B90-8FD1-4D21-80E1-0289BC7F1054";
name = v1;
shapes = (
{
closed = 1;
nodes = (
(520,534,l),
(520,680,l),
(130,680,l),
(130,534,l)
);
},
{
closed = 1;
nodes = (
(196,263,l),
(206,303,o),
(241,330,o),
(290,330,cs),
(346,330,o),
(386,292,o),
(386,226,cs),
(386,162,o),
(346,129,o),
(291,129,cs),
(242,129,o),
(208,156,o),
(206,205,c),
(44,205,l),
(51,80,o),
(147,-10,o),
(294,-10,cs),
(442,-10,o),
(548,82,o),
(548,230,cs),
(548,367,o),
(457,456,o),
(331,456,cs),
(245,456,o),
(195,411,o),
(178,345,c),
(204,346,l),
(229,680,l),
(84,680,l),
(57,263,l)
);
}
);
userData = {
com.hugojourdan.ColorFlow = {
"0" = 0;
"1" = 0;
"10" = 0;
"11" = 0;
"2" = 0;
"3" = 0;
"4" = 0;
"5" = 0;
"6" = 0;
"7" = 0;
"8" = 0;
"9" = 0;
};
};
width = 582;
},
{
associatedMasterId = "89695F39-7340-4A9C-8DD1-5D7FBCD503D3";
color = 1;
layerId = "4C6A9647-BB37-45F5-8642-6B0266CD4794";
name = "May 4, 25 at 23:06";
shapes = (
{
closed = 1;
nodes = (
(438,-16,o),
(548,74,o),
(548,220,cs),
(548,230,ls),
(548,367,o),
(453,456,o),
(321,456,cs),
(229,456,o),
(176,411,o),
(158,345,c),
(180,346,l),
(194,680,l),
(54,680,l),
(37,283,l),
(181,283,l),
(199,315,o),
(235,337,o),
(280,337,cs),
(342,337,o),
(386,296,o),
(386,226,cs),
(386,216,ls),
(386,149,o),
(340,112,o),
(281,112,cs),
(230,112,o),
(190,143,o),
(182,195,c),
(24,195,l),
(31,72,o),
(131,-16,o),
(284,-16,cs)
);
},
{
closed = 1;
nodes = (
(520,552,l),
(520,680,l),
(100,680,l),
(100,552,l)
);
}
);
userData = {
com.hugojourdan.ColorFlow = {
"0" = 0;
"1" = 0;
"10" = 0;
"11" = 0;
"2" = 0;
"3" = 0;
"4" = 0;
"5" = 0;
"6" = 0;
"7" = 0;
"8" = 0;
"9" = 0;
};
};
width = 582;
},
{
associatedMasterId = "C5561BE3-178F-4E91-92CF-CFC72B047BCB";
background = {
shapes = (
{
pos = (22,0);
ref = three;
}
);
};
color = 3;
layerId = "32CB034A-E8E1-4E2A-BB18-41B78891C5E0";
name = "May 4, 25 at 23:13";
shapes = (
{
closed = 1;
nodes = (
(447,-16,o),
(542,77,o),
(542,213,cs),
(542,223,ls),
(542,350,o),
(456,444,o),
(324,444,cs),
(233,444,o),
(172,398,o),
(144,341,c),
(170,341,l),
(189,680,l),
(104,680,l),
(83,306,l),
(170,306,l),
(190,350,o),
(242,374,o),
(304,374,cs),
(396,374,o),
(450,311,o),
(450,221,cs),
(450,211,ls),
(450,115,o),
(392,58,o),
(300,58,cs),
(221,58,o),
(165,99,o),
(156,170,c),
(64,170,l),
(72,60,o),
(164,-16,o),
(298,-16,cs)
);
},
{
closed = 1;
nodes = (
(514,608,l),
(514,680,l),
(137,680,l),
(137,608,l)
);
}
);
userData = {
com.hugojourdan.ColorFlow = {
"0" = 0;
"1" = 0;
"10" = 0;
"11" = 0;
"2" = 0;
"3" = 0;
"4" = 0;
"5" = 0;
"6" = 0;
"7" = 0;
"8" = 0;
"9" = 0;
};
};
visible = 1;
width = 602;
}
);
unicode = 53;
}
{
glyphname = six;
kernLeft = zero;
kernRight = six;
layers = (
{
layerId = "C5561BE3-178F-4E91-92CF-CFC72B047BCB";
shapes = (
{
closed = 1;
nodes = (
(563,221,ls),
(563,341,o),
(469,434,o),
(337,434,cs),
(217,434,o),
(136,356,o),
(132,272,c),
(155,270,l),
(155,375,ls),
(155,542,o),
(221,622,o),
(326,622,cs),
(401,622,o),
(449,581,o),
(460,525,c),
(552,525,l),
(541,621,o),
(462,696,o),
(333,696,cs),
(177,696,o),
(64,584,o),
(64,370,cs),
(64,300,ls),
(64,195,o),
(83,118,o),
(128,65,cs),
(173,12,o),
(241,-16,o),
(318,-16,cs),
(457,-16,o),
(563,83,o),
(563,211,cs)
);
},
{
closed = 1;
nodes = (
(162,219,ls),
(162,301,o),
(225,362,o),
(315,362,cs),
(406,362,o),
(471,301,o),
(471,217,cs),
(471,207,ls),
(471,121,o),
(408,58,o),
(318,58,cs),
(228,58,o),
(162,122,o),
(162,209,cs)
);
}
);
userData = {
com.hugojourdan.ColorFlow = {
"0" = 0;
"1" = 0;
"10" = 0;
"11" = 0;
"2" = 0;
"3" = 0;
"4" = 0;
"5" = 0;
"6" = 0;
"7" = 0;
"8" = 0;
"9" = 0;
};
};
width = 619;
},
{
associatedMasterId = "C5561BE3-178F-4E91-92CF-CFC72B047BCB";
color = 1;
layerId = "8CF6B53F-BA11-4443-8CA1-2B7D9EC659CB";
name = v1;
shapes = (
{
closed = 1;
nodes = (
(431,-10,o),
(530,84,o),
(530,215,cs),
(530,342,o),
(433,430,o),
(312,430,cs),
(205,430,o),
(124,359,o),
(124,265,c),
(133,270,l),
(133,365,ls),
(133,539,o),
(192,618,o),
(296,618,cs),
(376,618,o),
(432,569,o),
(438,495,c),
(520,495,l),
(510,596,o),
(432,690,o),
(300,690,cs),
(157,690,o),
(52,580,o),
(52,350,cs),
(52,310,ls),
(52,90,o),
(154,-10,o),
(296,-10,cs)
);
},
{
closed = 1;
nodes = (
(194,62,o),
(138,139,o),
(138,221,cs),
(138,306,o),
(200,362,o),
(291,362,cs),
(384,362,o),
(448,304,o),
(448,210,cs),
(448,116,o),
(383,62,o),
(296,62,cs)
);
}
);
userData = {
com.hugojourdan.ColorFlow = {
"0" = 0;
"1" = 0;
"10" = 0;
"11" = 0;
"2" = 0;
"3" = 0;
"4" = 0;
"5" = 0;
"6" = 0;
"7" = 0;
"8" = 0;
"9" = 0;
};
};
width = 582;
},
{
layerId = "89695F39-7340-4A9C-8DD1-5D7FBCD503D3";
shapes = (
{
closed = 1;
nodes = (
(583,227,ls),
(583,356,o),
(486,440,o),
(362,440,cs),
(248,440,o),
(170,369,o),
(168,268,c),
(197,266,l),
(197,407,ls),
(197,495,o),
(228,568,o),
(317,568,cs),
(367,568,o),
(403,544,o),
(409,504,c),
(571,504,l),
(563,610,o),
(472,696,o),
(327,696,cs),
(162,696,o),
(37,583,o),
(37,382,cs),
(37,304,ls),
(37,204,o),
(54,129,o),
(102,72,cs),
(150,15,o),
(226,-16,o),
(316,-16,cs),
(479,-16,o),
(583,86,o),
(583,217,cs)
);
},
{
closed = 1;
nodes = (
(204,224,ls),
(204,285,o),
(245,328,o),
(312,328,cs),
(377,328,o),
(421,286,o),
(421,221,cs),
(421,211,ls),
(421,145,o),
(378,109,o),
(314,109,cs),
(241,109,o),
(204,160,o),
(204,214,cs)
);
}
);
userData = {
com.hugojourdan.ColorFlow = {
"0" = 0;
"1" = 0;
"10" = 0;
"11" = 0;
"2" = 0;
"3" = 0;
"4" = 0;
"5" = 0;
"6" = 0;
"7" = 0;
"8" = 0;
"9" = 0;
};
};
width = 614;
},
{
associatedMasterId = "C5561BE3-178F-4E91-92CF-CFC72B047BCB";
color = 4;
layerId = "EEC18F09-1253-4A41-8D72-EB5DBD0E9452";
name = "Feb 8, 25 at 23:32";
shapes = (
{
closed = 1;
nodes = (
(433,-12,o),
(534,84,o),
(534,214,cs),
(534,337,o),
(436,430,o),
(314,430,cs),
(209,430,o),
(132,353,o),
(128,270,c),
(137,270,l),
(137,365,ls),
(137,539,o),
(200,622,o),
(308,622,cs),
(380,622,o),
(432,585,o),
(442,515,c),
(524,515,l),
(512,615,o),
(433,692,o),
(312,692,cs),
(161,692,o),
(56,579,o),
(56,360,cs),
(56,300,ls),
(56,198,o),
(75,119,o),
(120,66,cs),
(165,13,o),
(227,-12,o),
(300,-12,cs)
);
},
{
closed = 1;
nodes = (
(211,58,o),
(146,120,o),
(146,210,cs),
(146,300,o),
(209,362,o),
(297,362,cs),
(388,362,o),
(453,300,o),
(453,210,cs),
(453,120,o),
(390,58,o),
(302,58,cs)
);
}
);
userData = {
com.hugojourdan.ColorFlow = {
"0" = 0;
"1" = 0;
"10" = 0;
"11" = 0;
"2" = 0;
"3" = 0;
"4" = 0;
"5" = 0;
"6" = 0;
"7" = 0;
"8" = 0;
"9" = 0;
};
};
width = 579;
},
{
associatedMasterId = "C5561BE3-178F-4E91-92CF-CFC72B047BCB";
color = 4;
layerId = "5AB86B2D-5C1C-4EE9-9FEB-5D4DFA3B3C8D";
name = "Feb 10, 25 at 19:18";
shapes = (
{
closed = 1;
nodes = (
(433,-12,o),
(534,84,o),
(534,214,cs),
(534,337,o),
(436,430,o),
(314,430,cs),
(205,430,o),
(128,353,o),
(124,270,c),
(137,270,l),
(137,375,ls),
(137,542,o),
(200,622,o),
(308,622,cs),
(380,622,o),
(432,588,o),
(442,525,c),
(524,525,l),
(512,619,o),
(433,692,o),
(312,692,cs),
(161,692,o),
(56,582,o),
(56,370,cs),
(56,300,ls),
(56,198,o),
(75,119,o),
(120,66,cs),
(165,13,o),
(227,-12,o),
(300,-12,cs)
);
},
{
closed = 1;
nodes = (
(211,58,o),
(146,120,o),
(146,210,cs),
(146,300,o),
(209,362,o),
(297,362,cs),
(388,362,o),
(453,300,o),
(453,210,cs),
(453,120,o),
(390,58,o),
(302,58,cs)
);
}
);
userData = {
com.hugojourdan.ColorFlow = {
"0" = 0;
"1" = 0;
"10" = 0;
"11" = 0;
"2" = 0;
"3" = 0;
"4" = 0;
"5" = 0;
"6" = 0;
"7" = 0;
"8" = 0;
"9" = 0;
};
};
width = 579;
},
{
associatedMasterId = "C5561BE3-178F-4E91-92CF-CFC72B047BCB";
color = 0;
layerId = "3CE33F19-F623-4437-95EF-099424A9E319";
name = "Apr 25, 25 at 22:58";
shapes = (
{
closed = 1;
nodes = (
(433,-12,o),
(534,85,o),
(534,216,cs),
(534,340,o),
(436,434,o),
(314,434,cs),
(205,434,o),
(128,356,o),
(124,272,c),
(137,270,l),
(137,375,ls),
(137,542,o),
(200,622,o),
(308,622,cs),
(380,622,o),
(432,588,o),
(442,525,c),
(524,525,l),
(512,619,o),
(433,692,o),
(312,692,cs),
(161,692,o),
(56,582,o),
(56,370,cs),
(56,300,ls),
(56,198,o),
(75,119,o),
(120,66,cs),
(165,13,o),
(227,-12,o),
(300,-12,cs)
);
},
{
closed = 1;
nodes = (
(211,58,o),
(146,121,o),
(146,212,cs),
(146,303,o),
(209,366,o),
(297,366,cs),
(388,366,o),
(453,303,o),
(453,212,cs),
(453,121,o),
(390,58,o),
(302,58,cs)
);
}
);
userData = {
com.hugojourdan.ColorFlow = {
"0" = 0;
"1" = 0;
"10" = 0;
"11" = 0;
"2" = 0;
"3" = 0;
"4" = 0;
"5" = 0;
"6" = 0;
"7" = 0;
"8" = 0;
"9" = 0;
};
};
width = 579;
},
{
associatedMasterId = "C5561BE3-178F-4E91-92CF-CFC72B047BCB";
color = 3;
layerId = "A6255156-2C86-485A-AD5A-D7374EF6B6E8";
name = "Apr 27, 25 at 21:39";
shapes = (
{
closed = 1;
nodes = (
(571,221,ls),
(571,341,o),
(477,434,o),
(345,434,cs),
(225,434,o),
(144,356,o),
(140,272,c),
(163,270,l),
(163,375,ls),
(163,539,o),
(229,618,o),
(334,618,cs),
(409,618,o),
(457,579,o),
(468,525,c),
(560,525,l),
(549,619,o),
(470,692,o),
(341,692,cs),
(185,692,o),
(72,581,o),
(72,370,cs),
(72,300,ls),
(72,198,o),
(91,119,o),
(136,66,cs),
(182,12,o),
(249,-12,o),
(326,-12,cs),
(465,-12,o),
(571,85,o),
(571,211,cs)
);
},
{
closed = 1;
nodes = (
(170,219,ls),
(170,301,o),
(233,362,o),
(323,362,cs),
(414,362,o),
(479,301,o),
(479,217,cs),
(479,207,ls),
(479,123,o),
(416,62,o),
(326,62,cs),
(236,62,o),
(170,124,o),
(170,209,cs)
);
}
);
userData = {
com.hugojourdan.ColorFlow = {
"0" = 0;
"1" = 0;
"10" = 0;
"11" = 0;
"2" = 0;
"3" = 0;
"4" = 0;
"5" = 0;
"6" = 0;
"7" = 0;
"8" = 0;
"9" = 0;
};
};
width = 631;
},
{
associatedMasterId = "89695F39-7340-4A9C-8DD1-5D7FBCD503D3";
color = 0;
layerId = "42BDB2B2-1E01-4821-AC5B-FEF91D3758B6";
name = v1;
shapes = (
{
closed = 1;
nodes = (
(446,-10,o),
(543,86,o),
(543,219,cs),
(543,345,o),
(455,426,o),
(345,426,cs),
(249,426,o),
(184,362,o),
(184,270,c),
(201,270,l),
(201,365,ls),
(201,505,o),
(233,561,o),
(296,561,cs),
(339,561,o),
(368,534,o),
(371,485,c),
(533,485,l),
(526,600,o),
(440,690,o),
(296,690,cs),
(140,690,o),
(39,578,o),
(39,350,cs),
(39,310,ls),
(39,95,o),
(144,-10,o),
(297,-10,cs)
);
},
{
closed = 1;
nodes = (
(236,119,o),
(206,166,o),
(206,217,cs),
(206,272,o),
(238,310,o),
(291,310,cs),
(345,310,o),
(381,273,o),
(381,212,cs),
(381,153,o),
(347,119,o),
(296,119,cs)
);
}
);
userData = {
com.hugojourdan.ColorFlow = {
"0" = 0;
"1" = 0;
"10" = 0;
"11" = 0;
"2" = 0;
"3" = 0;
"4" = 0;
"5" = 0;
"6" = 0;
"7" = 0;
"8" = 0;
"9" = 0;
};
};
width = 582;
},
{
associatedMasterId = "89695F39-7340-4A9C-8DD1-5D7FBCD503D3";
color = 1;
layerId = "68396450-6E82-4412-92DA-29856E8AC401";
name = "May 4, 25 at 23:10";
shapes = (
{
closed = 1;
nodes = (
(584,227,ls),
(584,356,o),
(488,440,o),
(365,440,cs),
(252,440,o),
(175,369,o),
(173,268,c),
(202,266,l),
(202,407,ls),
(202,495,o),
(232,568,o),
(320,568,cs),
(369,568,o),
(404,544,o),
(410,504,c),
(572,504,l),
(564,610,o),
(474,696,o),
(330,696,cs),
(166,696,o),
(42,583,o),
(42,382,cs),
(42,304,ls),
(42,204,o),
(59,129,o),
(107,72,cs),
(155,15,o),
(230,-16,o),
(319,-16,cs),
(481,-16,o),
(584,86,o),
(584,217,cs)
);
},
{
closed = 1;
nodes = (
(209,224,ls),
(209,285,o),
(249,328,o),
(315,328,cs),
(379,328,o),
(422,286,o),
(422,221,cs),
(422,211,ls),
(422,145,o),
(380,109,o),
(317,109,cs),
(245,109,o),
(209,160,o),
(209,214,cs)
);
}
);
userData = {
com.hugojourdan.ColorFlow = {
"0" = 0;
"1" = 0;
"10" = 0;
"11" = 0;
"2" = 0;
"3" = 0;
"4" = 0;
"5" = 0;
"6" = 0;
"7" = 0;
"8" = 0;
"9" = 0;
};
};
width = 605;
}
);
metricLeft = "=zero";
unicode = 54;
userData = {
KernOnName = six;
};
}
{
glyphname = seven;
kernLeft = seven;
kernRight = seven;
layers = (
{
layerId = "C5561BE3-178F-4E91-92CF-CFC72B047BCB";
shapes = (
{
closed = 1;
nodes = (
(180,0,l),
(531,608,l),
(531,680,l),
(40,680,l),
(40,606,l),
(464,606,l),
(454,644,l),
(78,0,l)
);
}
);
userData = {
com.hugojourdan.ColorFlow = {
"0" = 0;
"1" = 0;
"10" = 0;
"11" = 0;
"2" = 0;
"3" = 0;
"4" = 0;
"5" = 0;
"6" = 0;
"7" = 0;
"8" = 0;
"9" = 0;
};
};
width = 573;
},
{
associatedMasterId = "C5561BE3-178F-4E91-92CF-CFC72B047BCB";
color = 0;
layerId = "BDBDC4B9-07F4-49C7-985E-E00BC1153470";
name = v1;
shapes = (
{
closed = 1;
nodes = (
(244,0,l),
(525,634,l),
(525,680,l),
(465,680,l),
(155,0,l)
);
},
{
closed = 1;
nodes = (
(490,608,l),
(490,680,l),
(60,680,l),
(60,608,l)
);
}
);
userData = {
com.hugojourdan.ColorFlow = {
"0" = 0;
"1" = 0;
"10" = 0;
"11" = 0;
"2" = 0;
"3" = 0;
"4" = 0;
"5" = 0;
"6" = 0;
"7" = 0;
"8" = 0;
"9" = 0;
};
};
width = 582;
},
{
layerId = "89695F39-7340-4A9C-8DD1-5D7FBCD503D3";
shapes = (
{
closed = 1;
nodes = (
(219,0,l),
(558,558,l),
(558,680,l),
(30,680,l),
(30,548,l),
(464,548,l),
(410,594,l),
(44,0,l)
);
}
);
userData = {
com.hugojourdan.ColorFlow = {
"0" = 0;
"1" = 0;
"10" = 0;
"11" = 0;
"2" = 0;
"3" = 0;
"4" = 0;
"5" = 0;
"6" = 0;
"7" = 0;
"8" = 0;
"9" = 0;
};
};
width = 582;
},
{
associatedMasterId = "C5561BE3-178F-4E91-92CF-CFC72B047BCB";
color = 0;
layerId = "B7A0DA32-863B-4536-A738-971390C9F578";
name = "Apr 25, 25 at 23:03";
shapes = (
{
closed = 1;
nodes = (
(209,0,l),
(509,604,l),
(509,680,l),
(38,680,l),
(38,610,l),
(452,610,l),
(448,640,l),
(117,0,l)
);
}
);
userData = {
com.hugojourdan.ColorFlow = {
"0" = 0;
"1" = 0;
"10" = 0;
"11" = 0;
"2" = 0;
"3" = 0;
"4" = 0;
"5" = 0;
"6" = 0;
"7" = 0;
"8" = 0;
"9" = 0;
};
};
width = 547;
},
{
associatedMasterId = "89695F39-7340-4A9C-8DD1-5D7FBCD503D3";
color = 0;
layerId = "1871A8CF-80E3-4DAB-ACB7-22214C8A1EE8";
name = v1;
shapes = (
{
closed = 1;
nodes = (
(305,0,l),
(546,579,l),
(546,680,l),
(423,680,l),
(128,0,l)
);
},
{
closed = 1;
nodes = (
(511,534,l),
(511,680,l),
(41,680,l),
(41,534,l)
);
}
);
userData = {
com.hugojourdan.ColorFlow = {
"0" = 0;
"1" = 0;
"10" = 0;
"11" = 0;
"2" = 0;
"3" = 0;
"4" = 0;
"5" = 0;
"6" = 0;
"7" = 0;
"8" = 0;
"9" = 0;
};
};
width = 582;
},
{
associatedMasterId = "89695F39-7340-4A9C-8DD1-5D7FBCD503D3";
color = 1;
layerId = "584A79EE-2DD3-4A80-BBAB-950DEE6324F8";
name = "May 4, 25 at 23:04";
shapes = (
{
closed = 1;
nodes = (
(249,0,l),
(548,558,l),
(548,680,l),
(40,680,l),
(40,548,l),
(454,548,l),
(400,594,l),
(74,0,l)
);
}
);
userData = {
com.hugojourdan.ColorFlow = {
"0" = 0;
"1" = 0;
"10" = 0;
"11" = 0;
"2" = 0;
"3" = 0;
"4" = 0;
"5" = 0;
"6" = 0;
"7" = 0;
"8" = 0;
"9" = 0;
};
};
width = 582;
},
{
associatedMasterId = "C5561BE3-178F-4E91-92CF-CFC72B047BCB";
color = 3;
layerId = "69D471BD-020B-4851-94E1-2716906D23E6";
name = "May 4, 25 at 23:14";
shapes = (
{
closed = 1;
nodes = (
(220,0,l),
(521,608,l),
(521,680,l),
(40,680,l),
(40,606,l),
(454,606,l),
(445,644,l),
(119,0,l)
);
}
);
userData = {
com.hugojourdan.ColorFlow = {
"0" = 0;
"1" = 0;
"10" = 0;
"11" = 0;
"2" = 0;
"3" = 0;
"4" = 0;
"5" = 0;
"6" = 0;
"7" = 0;
"8" = 0;
"9" = 0;
};
};
width = 573;
}
);
unicode = 55;
}
{
glyphname = eight;
kernLeft = eight;
kernRight = eight;
layers = (
{
background = {
shapes = (
{
closed = 1;
nodes = (
(158,265,o),
(223,316,o),
(314,316,cs),
(405,316,o),
(470,265,o),
(470,189,cs),
(470,112,o),
(405,59,o),
(314,59,cs),
(223,59,o),
(158,112,o),
(158,189,cs)
);
},
{
closed = 1;
nodes = (
(179,574,o),
(235,621,o),
(314,621,cs),
(393,621,o),
(449,574,o),
(449,503,cs),
(449,431,o),
(393,385,o),
(314,385,cs),
(235,385,o),
(179,431,o),
(179,503,cs)
);
},
{
closed = 1;
nodes = (
(344,340,l),
(443,340,o),
(534,399,o),
(534,502,cs),
(534,614,o),
(442,692,o),
(314,692,cs),
(186,692,o),
(94,613,o),
(94,499,cs),
(94,394,o),
(185,336,o),
(284,336,c),
(284,366,l),
(173,366,o),
(71,294,o),
(71,185,cs),
(71,71,o),
(173,-12,o),
(314,-12,cs),
(455,-12,o),
(557,71,o),
(557,190,cs),
(557,303,o),
(455,370,o),
(344,370,c)
);
}
);
};
layerId = "C5561BE3-178F-4E91-92CF-CFC72B047BCB";
shapes = (
{
closed = 1;
nodes = (
(462,-16,o),
(558,62,o),
(558,183,cs),
(558,301,o),
(463,369,o),
(324,369,c),
(324,344,l),
(446,344,o),
(532,414,o),
(532,516,cs),
(532,622,o),
(441,696,o),
(306,696,cs),
(169,696,o),
(76,619,o),
(76,510,cs),
(76,407,o),
(158,340,o),
(284,340,c),
(284,365,l),
(148,365,o),
(50,295,o),
(50,177,cs),
(50,61,o),
(143,-16,o),
(304,-16,cs)
);
},
{
closed = 1;
nodes = (
(204,56,o),
(142,109,o),
(142,187,cs),
(142,267,o),
(207,318,o),
(304,318,cs),
(400,318,o),
(466,264,o),
(466,182,cs),
(466,104,o),
(407,56,o),
(304,56,cs)
);
},
{
closed = 1;
nodes = (
(223,390,o),
(166,439,o),
(166,511,cs),
(166,580,o),
(219,624,o),
(303,624,cs),
(388,624,o),
(442,579,o),
(442,509,cs),
(442,438,o),
(386,390,o),
(304,390,cs)
);
}
);
userData = {
com.hugojourdan.ColorFlow = {
"0" = 0;
"1" = 0;
"10" = 0;
"11" = 0;
"2" = 0;
"3" = 0;
"4" = 0;
"5" = 0;
"6" = 0;
"7" = 0;
"8" = 0;
"9" = 0;
};
};
width = 608;
},
{
associatedMasterId = "C5561BE3-178F-4E91-92CF-CFC72B047BCB";
color = 1;
layerId = "D0093A8E-0DA5-4A83-BC4B-9D0A8F4119CD";
name = v1;
shapes = (
{
closed = 1;
nodes = (
(430,-10,o),
(528,72,o),
(528,185,cs),
(528,297,o),
(429,360,o),
(331,365,c),
(331,345,l),
(427,351,o),
(518,398,o),
(518,505,cs),
(518,611,o),
(424,690,o),
(291,690,cs),
(157,690,o),
(64,612,o),
(64,505,cs),
(64,399,o),
(158,340,o),
(251,335,c),
(251,355,l),
(150,349,o),
(54,298,o),
(54,185,cs),
(54,73,o),
(152,-10,o),
(291,-10,cs)
);
},
{
closed = 1;
nodes = (
(198,62,o),
(136,107,o),
(136,190,cs),
(136,272,o),
(198,317,o),
(291,317,cs),
(383,317,o),
(446,273,o),
(446,190,cs),
(446,108,o),
(384,62,o),
(291,62,cs)
);
},
{
closed = 1;
nodes = (
(205,383,o),
(146,423,o),
(146,500,cs),
(146,576,o),
(204,618,o),
(291,618,cs),
(378,618,o),
(436,577,o),
(436,500,cs),
(436,424,o),
(378,383,o),
(291,383,cs)
);
}
);
userData = {
com.hugojourdan.ColorFlow = {
"0" = 0;
"1" = 0;
"10" = 0;
"11" = 0;
"2" = 0;
"3" = 0;
"4" = 0;
"5" = 0;
"6" = 0;
"7" = 0;
"8" = 0;
"9" = 0;
};
};
width = 582;
},
{
associatedMasterId = "C5561BE3-178F-4E91-92CF-CFC72B047BCB";
color = 4;
layerId = "08BDD20E-E34A-4439-A8F9-CF9E3A08AAE2";
name = "Feb 7, 25 at 21:56";
shapes = (
{
closed = 1;
nodes = (
(425,-10,o),
(524,71,o),
(524,184,cs),
(524,291,o),
(435,365,o),
(307,365,c),
(307,340,l),
(424,340,o),
(508,410,o),
(508,506,cs),
(508,615,o),
(418,690,o),
(287,690,cs),
(158,690,o),
(66,613,o),
(66,506,cs),
(66,405,o),
(148,336,o),
(267,336,c),
(267,361,l),
(141,361,o),
(50,287,o),
(50,184,cs),
(50,69,o),
(147,-10,o),
(287,-10,cs)
);
},
{
closed = 1;
nodes = (
(196,56,o),
(132,109,o),
(132,184,cs),
(132,262,o),
(196,316,o),
(287,316,cs),
(378,316,o),
(442,262,o),
(442,184,cs),
(442,109,o),
(378,56,o),
(287,56,cs)
);
},
{
closed = 1;
nodes = (
(205,384,o),
(148,434,o),
(148,506,cs),
(148,575,o),
(205,624,o),
(287,624,cs),
(369,624,o),
(426,575,o),
(426,506,cs),
(426,434,o),
(369,384,o),
(287,384,cs)
);
}
);
userData = {
com.hugojourdan.ColorFlow = {
"0" = 0;
"1" = 0;
"10" = 0;
"11" = 0;
"2" = 0;
"3" = 0;
"4" = 0;
"5" = 0;
"6" = 0;
"7" = 0;
"8" = 0;
"9" = 0;
};
};
width = 574;
},
{
layerId = "89695F39-7340-4A9C-8DD1-5D7FBCD503D3";
shapes = (
{
closed = 1;
nodes = (
(485,-16,o),
(589,67,o),
(589,192,cs),
(589,312,o),
(486,377,o),
(339,377,c),
(339,336,l),
(473,336,o),
(571,403,o),
(571,507,cs),
(571,617,o),
(468,696,o),
(311,696,cs),
(152,696,o),
(47,614,o),
(47,501,cs),
(47,396,o),
(141,332,o),
(279,332,c),
(279,373,l),
(135,373,o),
(29,306,o),
(29,186,cs),
(29,66,o),
(129,-16,o),
(309,-16,cs)
);
},
{
closed = 1;
nodes = (
(234,104,o),
(191,144,o),
(191,203,cs),
(191,261,o),
(236,298,o),
(309,298,cs),
(381,298,o),
(427,258,o),
(427,198,cs),
(427,140,o),
(387,104,o),
(309,104,cs)
);
},
{
closed = 1;
nodes = (
(247,410,o),
(205,444,o),
(205,494,cs),
(205,544,o),
(243,576,o),
(308,576,cs),
(373,576,o),
(413,543,o),
(413,492,cs),
(413,443,o),
(372,410,o),
(309,410,cs)
);
}
);
userData = {
com.hugojourdan.ColorFlow = {
"0" = 0;
"1" = 0;
"10" = 0;
"11" = 0;
"2" = 0;
"3" = 0;
"4" = 0;
"5" = 0;
"6" = 0;
"7" = 0;
"8" = 0;
"9" = 0;
};
};
width = 618;
},
{
associatedMasterId = "C5561BE3-178F-4E91-92CF-CFC72B047BCB";
color = 0;
layerId = "C4BC7759-46B1-4B89-9E25-81B8051DDDE1";
name = "Apr 25, 25 at 23:05";
shapes = (
{
closed = 1;
nodes = (
(435,-12,o),
(536,69,o),
(536,183,cs),
(536,291,o),
(445,365,o),
(312,365,c),
(312,340,l),
(434,340,o),
(520,410,o),
(520,507,cs),
(520,617,o),
(428,692,o),
(292,692,cs),
(158,692,o),
(64,615,o),
(64,507,cs),
(64,405,o),
(148,336,o),
(272,336,c),
(272,361,l),
(141,361,o),
(48,287,o),
(48,183,cs),
(48,67,o),
(147,-12,o),
(292,-12,cs)
);
},
{
closed = 1;
nodes = (
(196,54,o),
(130,107,o),
(130,183,cs),
(130,262,o),
(196,316,o),
(292,316,cs),
(388,316,o),
(454,262,o),
(454,183,cs),
(454,107,o),
(388,54,o),
(292,54,cs)
);
},
{
closed = 1;
nodes = (
(205,384,o),
(146,434,o),
(146,507,cs),
(146,577,o),
(205,626,o),
(292,626,cs),
(379,626,o),
(438,577,o),
(438,507,cs),
(438,434,o),
(379,384,o),
(292,384,cs)
);
}
);
userData = {
com.hugojourdan.ColorFlow = {
"0" = 0;
"1" = 0;
"10" = 0;
"11" = 0;
"2" = 0;
"3" = 0;
"4" = 0;
"5" = 0;
"6" = 0;
"7" = 0;
"8" = 0;
"9" = 0;
};
};
width = 584;
},
{
associatedMasterId = "C5561BE3-178F-4E91-92CF-CFC72B047BCB";
background = {
shapes = (
{
closed = 1;
nodes = (
(158,265,o),
(223,316,o),
(314,316,cs),
(405,316,o),
(470,265,o),
(470,189,cs),
(470,112,o),
(405,59,o),
(314,59,cs),
(223,59,o),
(158,112,o),
(158,189,cs)
);
},
{
closed = 1;
nodes = (
(179,574,o),
(235,621,o),
(314,621,cs),
(393,621,o),
(449,574,o),
(449,503,cs),
(449,431,o),
(393,385,o),
(314,385,cs),
(235,385,o),
(179,431,o),
(179,503,cs)
);
},
{
closed = 1;
nodes = (
(344,340,l),
(443,340,o),
(534,399,o),
(534,502,cs),
(534,614,o),
(442,692,o),
(314,692,cs),
(186,692,o),
(94,613,o),
(94,499,cs),
(94,394,o),
(185,336,o),
(284,336,c),
(284,366,l),
(173,366,o),
(71,294,o),
(71,185,cs),
(71,71,o),
(173,-12,o),
(314,-12,cs),
(455,-12,o),
(557,71,o),
(557,190,cs),
(557,303,o),
(455,370,o),
(344,370,c)
);
}
);
};
color = 3;
layerId = "AAACB059-5B5C-403D-9505-F7F7E51E5287";
name = "Apr 27, 25 at 21:39";
shapes = (
{
closed = 1;
nodes = (
(472,-12,o),
(568,64,o),
(568,183,cs),
(568,299,o),
(473,365,o),
(334,365,c),
(334,340,l),
(456,340,o),
(542,410,o),
(542,512,cs),
(542,618,o),
(451,692,o),
(316,692,cs),
(179,692,o),
(86,615,o),
(86,506,cs),
(86,403,o),
(168,336,o),
(294,336,c),
(294,361,l),
(158,361,o),
(60,293,o),
(60,177,cs),
(60,63,o),
(153,-12,o),
(314,-12,cs)
);
},
{
closed = 1;
nodes = (
(214,60,o),
(152,111,o),
(152,187,cs),
(152,265,o),
(217,314,o),
(314,314,cs),
(410,314,o),
(476,262,o),
(476,182,cs),
(476,106,o),
(417,60,o),
(314,60,cs)
);
},
{
closed = 1;
nodes = (
(234,386,o),
(178,435,o),
(178,507,cs),
(178,576,o),
(230,620,o),
(313,620,cs),
(397,620,o),
(450,575,o),
(450,505,cs),
(450,434,o),
(395,386,o),
(314,386,cs)
);
}
);
userData = {
com.hugojourdan.ColorFlow = {
"0" = 0;
"1" = 0;
"10" = 0;
"11" = 0;
"2" = 0;
"3" = 0;
"4" = 0;
"5" = 0;
"6" = 0;
"7" = 0;
"8" = 0;
"9" = 0;
};
};
width = 628;
},
{
associatedMasterId = "89695F39-7340-4A9C-8DD1-5D7FBCD503D3";
color = 0;
layerId = "F1D94F38-1449-4398-AA30-68B6684C926A";
name = v1;
shapes = (
{
closed = 1;
nodes = (
(442,-10,o),
(548,63,o),
(548,186,cs),
(548,308,o),
(439,375,o),
(331,380,c),
(331,340,l),
(434,345,o),
(538,387,o),
(538,504,cs),
(538,620,o),
(436,690,o),
(291,690,cs),
(146,690,o),
(44,621,o),
(44,504,cs),
(44,388,o),
(148,325,o),
(251,320,c),
(251,360,l),
(143,355,o),
(34,309,o),
(34,186,cs),
(34,64,o),
(140,-10,o),
(291,-10,cs)
);
},
{
closed = 1;
nodes = (
(235,124,o),
(196,153,o),
(196,203,cs),
(196,254,o),
(234,283,o),
(291,283,cs),
(347,283,o),
(386,255,o),
(386,203,cs),
(386,154,o),
(348,124,o),
(291,124,cs)
);
},
{
closed = 1;
nodes = (
(238,405,o),
(201,432,o),
(201,481,cs),
(201,528,o),
(237,556,o),
(291,556,cs),
(344,556,o),
(381,529,o),
(381,481,cs),
(381,433,o),
(345,405,o),
(291,405,cs)
);
}
);
userData = {
com.hugojourdan.ColorFlow = {
"0" = 0;
"1" = 0;
"10" = 0;
"11" = 0;
"2" = 0;
"3" = 0;
"4" = 0;
"5" = 0;
"6" = 0;
"7" = 0;
"8" = 0;
"9" = 0;
};
};
width = 582;
},
{
associatedMasterId = "89695F39-7340-4A9C-8DD1-5D7FBCD503D3";
color = 1;
layerId = "C8F8698A-98E0-4938-8B72-5B4A44FF63AB";
name = "May 4, 25 at 23:11";
shapes = (
{
closed = 1;
nodes = (
(490,-16,o),
(594,66,o),
(594,190,cs),
(594,311,o),
(491,379,o),
(334,379,c),
(334,334,l),
(478,334,o),
(576,404,o),
(576,509,cs),
(576,618,o),
(473,696,o),
(316,696,cs),
(157,696,o),
(52,615,o),
(52,503,cs),
(52,397,o),
(146,330,o),
(294,330,c),
(294,375,l),
(140,375,o),
(34,305,o),
(34,184,cs),
(34,65,o),
(134,-16,o),
(314,-16,cs)
);
},
{
closed = 1;
nodes = (
(239,104,o),
(196,144,o),
(196,203,cs),
(196,261,o),
(241,298,o),
(314,298,cs),
(386,298,o),
(432,258,o),
(432,198,cs),
(432,140,o),
(392,104,o),
(314,104,cs)
);
},
{
closed = 1;
nodes = (
(254,410,o),
(214,444,o),
(214,494,cs),
(214,544,o),
(251,576,o),
(313,576,cs),
(376,576,o),
(414,543,o),
(414,492,cs),
(414,443,o),
(375,410,o),
(314,410,cs)
);
}
);
userData = {
com.hugojourdan.ColorFlow = {
"0" = 0;
"1" = 0;
"10" = 0;
"11" = 0;
"2" = 0;
"3" = 0;
"4" = 0;
"5" = 0;
"6" = 0;
"7" = 0;
"8" = 0;
"9" = 0;
};
};
width = 628;
},
{
associatedMasterId = "C5561BE3-178F-4E91-92CF-CFC72B047BCB";
background = {
shapes = (
{
closed = 1;
nodes = (
(158,265,o),
(223,316,o),
(314,316,cs),
(405,316,o),
(470,265,o),
(470,189,cs),
(470,112,o),
(405,59,o),
(314,59,cs),
(223,59,o),
(158,112,o),
(158,189,cs)
);
},
{
closed = 1;
nodes = (
(179,574,o),
(235,621,o),
(314,621,cs),
(393,621,o),
(449,574,o),
(449,503,cs),
(449,431,o),
(393,385,o),
(314,385,cs),
(235,385,o),
(179,431,o),
(179,503,cs)
);
},
{
closed = 1;
nodes = (
(344,340,l),
(443,340,o),
(534,399,o),
(534,502,cs),
(534,614,o),
(442,692,o),
(314,692,cs),
(186,692,o),
(94,613,o),
(94,499,cs),
(94,394,o),
(185,336,o),
(284,336,c),
(284,366,l),
(173,366,o),
(71,294,o),
(71,185,cs),
(71,71,o),
(173,-12,o),
(314,-12,cs),
(455,-12,o),
(557,71,o),
(557,190,cs),
(557,303,o),
(455,370,o),
(344,370,c)
);
}
);
};
color = 3;
layerId = "6007D296-4241-4123-AD8C-71B280A22601";
name = "May 4, 25 at 23:12";
shapes = (
{
closed = 1;
nodes = (
(472,-16,o),
(568,62,o),
(568,183,cs),
(568,301,o),
(473,369,o),
(334,369,c),
(334,344,l),
(456,344,o),
(542,414,o),
(542,516,cs),
(542,622,o),
(451,696,o),
(316,696,cs),
(179,696,o),
(86,619,o),
(86,510,cs),
(86,407,o),
(168,340,o),
(294,340,c),
(294,365,l),
(158,365,o),
(60,295,o),
(60,177,cs),
(60,61,o),
(153,-16,o),
(314,-16,cs)
);
},
{
closed = 1;
nodes = (
(214,56,o),
(152,109,o),
(152,187,cs),
(152,267,o),
(217,318,o),
(314,318,cs),
(410,318,o),
(476,264,o),
(476,182,cs),
(476,104,o),
(417,56,o),
(314,56,cs)
);
},
{
closed = 1;
nodes = (
(234,390,o),
(178,439,o),
(178,511,cs),
(178,580,o),
(230,624,o),
(313,624,cs),
(397,624,o),
(450,579,o),
(450,509,cs),
(450,438,o),
(395,390,o),
(314,390,cs)
);
}
);
userData = {
com.hugojourdan.ColorFlow = {
"0" = 0;
"1" = 0;
"10" = 0;
"11" = 0;
"2" = 0;
"3" = 0;
"4" = 0;
"5" = 0;
"6" = 0;
"7" = 0;
"8" = 0;
"9" = 0;
};
};
width = 628;
}
);
metricRight = "=|";
unicode = 56;
userData = {
KernOnName = eight;
};
}
{
glyphname = nine;
kernLeft = nine;
kernRight = zero;
layers = (
{
background = {
shapes = (
{
angle = 180;
pos = (627,680);
ref = six;
}
);
};
layerId = "C5561BE3-178F-4E91-92CF-CFC72B047BCB";
shapes = (
{
closed = 1;
nodes = (
(60,463,ls),
(60,342,o),
(156,250,o),
(287,250,cs),
(406,250,o),
(483,327,o),
(487,410,c),
(464,412,l),
(464,285,ls),
(464,135,o),
(403,58,o),
(296,58,cs),
(219,58,o),
(167,100,o),
(153,160,c),
(61,160,l),
(75,60,o),
(162,-16,o),
(293,-16,cs),
(451,-16,o),
(555,89,o),
(555,290,cs),
(555,390,ls),
(555,482,o),
(536,560,o),
(490,615,cs),
(444,670,o),
(380,696,o),
(303,696,cs),
(165,696,o),
(60,599,o),
(60,473,cs)
);
},
{
closed = 1;
nodes = (
(457,463,ls),
(457,382,o),
(395,322,o),
(306,322,cs),
(216,322,o),
(152,382,o),
(152,467,cs),
(152,477,ls),
(152,561,o),
(214,622,o),
(303,622,cs),
(392,622,o),
(457,559,o),
(457,473,cs)
);
}
);
userData = {
com.hugojourdan.ColorFlow = {
"0" = 0;
"1" = 0;
"10" = 0;
"11" = 0;
"2" = 0;
"3" = 0;
"4" = 0;
"5" = 0;
"6" = 0;
"7" = 0;
"8" = 0;
"9" = 0;
};
};
width = 627;
},
{
layerId = "89695F39-7340-4A9C-8DD1-5D7FBCD503D3";
shapes = (
{
closed = 1;
nodes = (
(38,456,ls),
(38,328,o),
(133,246,o),
(256,246,cs),
(369,246,o),
(446,315,o),
(448,415,c),
(419,417,l),
(419,261,ls),
(419,175,o),
(388,112,o),
(298,112,cs),
(245,112,o),
(203,136,o),
(195,182,c),
(37,182,l),
(47,68,o),
(139,-16,o),
(293,-16,cs),
(467,-16,o),
(579,87,o),
(579,288,cs),
(579,376,ls),
(579,476,o),
(562,551,o),
(514,608,cs),
(466,665,o),
(391,696,o),
(302,696,cs),
(140,696,o),
(38,596,o),
(38,466,cs)
);
},
{
closed = 1;
nodes = (
(412,459,ls),
(412,399,o),
(372,358,o),
(306,358,cs),
(242,358,o),
(200,398,o),
(200,462,cs),
(200,472,ls),
(200,535,o),
(241,571,o),
(304,571,cs),
(376,571,o),
(412,522,o),
(412,469,cs)
);
}
);
userData = {
com.hugojourdan.ColorFlow = {
"0" = 0;
"1" = 0;
"10" = 0;
"11" = 0;
"2" = 0;
"3" = 0;
"4" = 0;
"5" = 0;
"6" = 0;
"7" = 0;
"8" = 0;
"9" = 0;
};
};
width = 621;
},
{
associatedMasterId = "C5561BE3-178F-4E91-92CF-CFC72B047BCB";
background = {
shapes = (
{
angle = 180;
pos = (574,680);
ref = six;
}
);
};
color = 4;
layerId = "CBB233BB-EE33-453F-BAB4-8F209FE7B449";
name = "Feb 8, 25 at 23:33";
shapes = (
{
closed = 1;
nodes = (
(148,692,o),
(48,597,o),
(48,469,cs),
(48,348,o),
(145,256,o),
(266,256,cs),
(370,256,o),
(446,331,o),
(450,413,c),
(441,410,l),
(441,295,ls),
(441,136,o),
(383,58,o),
(278,58,cs),
(202,58,o),
(143,97,o),
(130,170,c),
(48,170,l),
(61,67,o),
(145,-12,o),
(272,-12,cs),
(430,-12,o),
(522,94,o),
(522,300,cs),
(522,380,ls),
(522,482,o),
(503,561,o),
(458,614,cs),
(413,667,o),
(352,692,o),
(280,692,cs)
);
},
{
closed = 1;
nodes = (
(368,622,o),
(432,561,o),
(432,473,cs),
(432,385,o),
(370,324,o),
(283,324,cs),
(193,324,o),
(129,385,o),
(129,473,cs),
(129,561,o),
(191,622,o),
(278,622,cs)
);
}
);
userData = {
com.hugojourdan.ColorFlow = {
"0" = 0;
"1" = 0;
"10" = 0;
"11" = 0;
"2" = 0;
"3" = 0;
"4" = 0;
"5" = 0;
"6" = 0;
"7" = 0;
"8" = 0;
"9" = 0;
};
};
width = 578;
},
{
associatedMasterId = "C5561BE3-178F-4E91-92CF-CFC72B047BCB";
background = {
shapes = (
{
angle = 180;
pos = (574,680);
ref = six;
}
);
};
color = 4;
layerId = "15F1CFD9-034E-4CF9-AAE1-F9F29DEC2D85";
name = "Feb 10, 25 at 19:18";
shapes = (
{
closed = 1;
nodes = (
(148,692,o),
(48,597,o),
(48,469,cs),
(48,348,o),
(145,256,o),
(266,256,cs),
(374,256,o),
(450,331,o),
(454,413,c),
(441,410,l),
(441,285,ls),
(441,133,o),
(383,58,o),
(278,58,cs),
(202,58,o),
(143,94,o),
(130,160,c),
(48,160,l),
(61,63,o),
(145,-12,o),
(272,-12,cs),
(430,-12,o),
(522,91,o),
(522,290,cs),
(522,380,ls),
(522,482,o),
(503,561,o),
(458,614,cs),
(413,667,o),
(352,692,o),
(280,692,cs)
);
},
{
closed = 1;
nodes = (
(368,622,o),
(432,561,o),
(432,473,cs),
(432,385,o),
(370,324,o),
(283,324,cs),
(193,324,o),
(129,385,o),
(129,473,cs),
(129,561,o),
(191,622,o),
(278,622,cs)
);
}
);
userData = {
com.hugojourdan.ColorFlow = {
"0" = 0;
"1" = 0;
"10" = 0;
"11" = 0;
"2" = 0;
"3" = 0;
"4" = 0;
"5" = 0;
"6" = 0;
"7" = 0;
"8" = 0;
"9" = 0;
};
};
width = 578;
},
{
associatedMasterId = "C5561BE3-178F-4E91-92CF-CFC72B047BCB";
background = {
shapes = (
{
angle = 180;
pos = (574,680);
ref = six;
}
);
};
color = 0;
layerId = "3AA63D38-03E8-4B5A-AD23-DAA42CF6D042";
name = "Apr 25, 25 at 23:13";
shapes = (
{
closed = 1;
nodes = (
(148,692,o),
(48,596,o),
(48,467,cs),
(48,345,o),
(145,252,o),
(266,252,cs),
(374,252,o),
(450,328,o),
(454,411,c),
(441,410,l),
(441,285,ls),
(441,133,o),
(383,58,o),
(278,58,cs),
(202,58,o),
(143,94,o),
(130,160,c),
(48,160,l),
(61,63,o),
(145,-12,o),
(272,-12,cs),
(430,-12,o),
(522,91,o),
(522,290,cs),
(522,380,ls),
(522,482,o),
(505,561,o),
(460,614,cs),
(415,667,o),
(357,692,o),
(280,692,cs)
);
},
{
closed = 1;
nodes = (
(368,622,o),
(432,560,o),
(432,471,cs),
(432,382,o),
(370,320,o),
(283,320,cs),
(193,320,o),
(129,382,o),
(129,471,cs),
(129,560,o),
(191,622,o),
(278,622,cs)
);
}
);
userData = {
com.hugojourdan.ColorFlow = {
"0" = 0;
"1" = 0;
"10" = 0;
"11" = 0;
"2" = 0;
"3" = 0;
"4" = 0;
"5" = 0;
"6" = 0;
"7" = 0;
"8" = 0;
"9" = 0;
};
};
width = 578;
},
{
associatedMasterId = "C5561BE3-178F-4E91-92CF-CFC72B047BCB";
background = {
shapes = (
{
angle = 180;
pos = (601,680);
ref = six;
}
);
};
color = 3;
layerId = "AC7C836C-2CF0-4533-9D4A-A775B6256A8C";
name = "Apr 27, 25 at 21:39";
shapes = (
{
closed = 1;
nodes = (
(60,462,ls),
(60,342,o),
(156,250,o),
(287,250,cs),
(406,250,o),
(483,327,o),
(487,410,c),
(464,412,l),
(464,285,ls),
(464,138,o),
(403,62,o),
(296,62,cs),
(219,62,o),
(167,102,o),
(153,160,c),
(61,160,l),
(75,62,o),
(162,-12,o),
(293,-12,cs),
(451,-12,o),
(555,92,o),
(555,290,cs),
(555,390,ls),
(555,482,o),
(536,559,o),
(490,614,cs),
(444,669,o),
(380,692,o),
(303,692,cs),
(165,692,o),
(60,596,o),
(60,472,cs)
);
},
{
closed = 1;
nodes = (
(457,463,ls),
(457,382,o),
(395,322,o),
(306,322,cs),
(216,322,o),
(152,382,o),
(152,466,cs),
(152,476,ls),
(152,558,o),
(214,618,o),
(303,618,cs),
(392,618,o),
(457,557,o),
(457,473,cs)
);
}
);
userData = {
com.hugojourdan.ColorFlow = {
"0" = 0;
"1" = 0;
"10" = 0;
"11" = 0;
"2" = 0;
"3" = 0;
"4" = 0;
"5" = 0;
"6" = 0;
"7" = 0;
"8" = 0;
"9" = 0;
};
};
width = 627;
},
{
associatedMasterId = "89695F39-7340-4A9C-8DD1-5D7FBCD503D3";
color = 0;
layerId = "00FF51FB-468D-4667-9642-7315DA3A7806";
name = "May 4, 25 at 22:37";
shapes = (
{
angle = 180;
pos = (624,680);
ref = six;
}
);
userData = {
com.hugojourdan.ColorFlow = {
"0" = 0;
"1" = 0;
"10" = 0;
"11" = 0;
"2" = 0;
"3" = 0;
"4" = 0;
"5" = 0;
"6" = 0;
"7" = 0;
"8" = 0;
"9" = 0;
};
};
visible = 1;
width = 624;
},
{
associatedMasterId = "89695F39-7340-4A9C-8DD1-5D7FBCD503D3";
color = 1;
layerId = "5D5B7DE2-0626-41D5-88CE-F94BDB5039B5";
name = "May 4, 25 at 23:11";
shapes = (
{
closed = 1;
nodes = (
(26,456,ls),
(26,328,o),
(120,246,o),
(242,246,cs),
(354,246,o),
(430,315,o),
(432,415,c),
(403,417,l),
(403,261,ls),
(403,175,o),
(372,112,o),
(284,112,cs),
(232,112,o),
(191,136,o),
(183,182,c),
(25,182,l),
(35,68,o),
(126,-16,o),
(279,-16,cs),
(452,-16,o),
(563,87,o),
(563,288,cs),
(563,376,ls),
(563,476,o),
(546,551,o),
(498,608,cs),
(450,665,o),
(376,696,o),
(288,696,cs),
(128,696,o),
(26,596,o),
(26,466,cs)
);
},
{
closed = 1;
nodes = (
(396,459,ls),
(396,399,o),
(357,358,o),
(292,358,cs),
(230,358,o),
(188,398,o),
(188,462,cs),
(188,472,ls),
(188,535,o),
(229,571,o),
(290,571,cs),
(361,571,o),
(396,522,o),
(396,469,cs)
);
}
);
userData = {
com.hugojourdan.ColorFlow = {
"0" = 0;
"1" = 0;
"10" = 0;
"11" = 0;
"2" = 0;
"3" = 0;
"4" = 0;
"5" = 0;
"6" = 0;
"7" = 0;
"8" = 0;
"9" = 0;
};
};
width = 605;
}
);
metricRight = "=zero";
unicode = 57;
}
{
glyphname = equal;
kernLeft = equal;
kernRight = equal;
layers = (
{
layerId = "C5561BE3-178F-4E91-92CF-CFC72B047BCB";
shapes = (
{
closed = 1;
nodes = (
(525,383,l),
(525,459,l),
(95,459,l),
(95,383,l)
);
},
{
closed = 1;
nodes = (
(525,181,l),
(525,257,l),
(95,257,l),
(95,181,l)
);
}
);
userData = {
com.hugojourdan.ColorFlow = {
"0" = 0;
"1" = 0;
"10" = 0;
"11" = 0;
"2" = 0;
"3" = 0;
"4" = 0;
"5" = 0;
"6" = 0;
"7" = 0;
"8" = 0;
"9" = 0;
};
};
width = 620;
},
{
layerId = "89695F39-7340-4A9C-8DD1-5D7FBCD503D3";
shapes = (
{
closed = 1;
nodes = (
(550,367,l),
(550,508,l),
(70,508,l),
(70,367,l)
);
},
{
closed = 1;
nodes = (
(550,132,l),
(550,273,l),
(70,273,l),
(70,132,l)
);
}
);
userData = {
com.hugojourdan.ColorFlow = {
"0" = 0;
"1" = 0;
"10" = 0;
"11" = 0;
"2" = 0;
"3" = 0;
"4" = 0;
"5" = 0;
"6" = 0;
"7" = 0;
"8" = 0;
"9" = 0;
};
};
width = 620;
},
{
associatedMasterId = "C5561BE3-178F-4E91-92CF-CFC72B047BCB";
color = 0;
layerId = "E91E9168-855A-44AB-A9EA-7A45C9DD35AB";
name = "Apr 27, 25 at 22:47";
shapes = (
{
closed = 1;
nodes = (
(531,383,l),
(531,457,l),
(51,457,l),
(51,383,l)
);
},
{
closed = 1;
nodes = (
(531,183,l),
(531,257,l),
(51,257,l),
(51,183,l)
);
}
);
userData = {
com.hugojourdan.ColorFlow = {
"0" = 0;
"1" = 0;
"10" = 0;
"11" = 0;
"2" = 0;
"3" = 0;
"4" = 0;
"5" = 0;
"6" = 0;
"7" = 0;
"8" = 0;
"9" = 0;
};
};
width = 582;
}
);
unicode = 61;
userData = {
KernOnSpecialSpacing = {
L = math;
R = math;
};
};
}
{
glyphname = greater;
kernLeft = greater;
kernRight = greater;
layers = (
{
layerId = "C5561BE3-178F-4E91-92CF-CFC72B047BCB";
shapes = (
{
closed = 1;
nodes = (
(515,293,l),
(515,347,l),
(90,143,l),
(90,53,l),
(530,268,l),
(530,372,l),
(90,587,l),
(90,497,l)
);
}
);
userData = {
com.hugojourdan.ColorFlow = {
"0" = 0;
"1" = 0;
"10" = 0;
"11" = 0;
"2" = 0;
"3" = 0;
"4" = 0;
"5" = 0;
"6" = 0;
"7" = 0;
"8" = 0;
"9" = 0;
};
};
width = 620;
},
{
layerId = "89695F39-7340-4A9C-8DD1-5D7FBCD503D3";
shapes = (
{
closed = 1;
nodes = (
(535,273,l),
(535,367,l),
(70,203,l),
(70,43,l),
(550,238,l),
(550,402,l),
(70,597,l),
(70,437,l)
);
}
);
userData = {
com.hugojourdan.ColorFlow = {
"0" = 0;
"1" = 0;
"10" = 0;
"11" = 0;
"2" = 0;
"3" = 0;
"4" = 0;
"5" = 0;
"6" = 0;
"7" = 0;
"8" = 0;
"9" = 0;
};
};
width = 620;
},
{
associatedMasterId = "C5561BE3-178F-4E91-92CF-CFC72B047BCB";
color = 0;
layerId = "94122B79-5A22-4945-A614-AAA7A931781E";
name = "Apr 27, 25 at 22:48";
shapes = (
{
closed = 1;
nodes = (
(531,298,l),
(531,377,l),
(51,587,l),
(51,503,l)
);
},
{
closed = 1;
nodes = (
(531,263,l),
(531,342,l),
(51,137,l),
(51,53,l)
);
}
);
userData = {
com.hugojourdan.ColorFlow = {
"0" = 0;
"1" = 0;
"10" = 0;
"11" = 0;
"2" = 0;
"3" = 0;
"4" = 0;
"5" = 0;
"6" = 0;
"7" = 0;
"8" = 0;
"9" = 0;
};
};
width = 582;
},
{
associatedMasterId = "89695F39-7340-4A9C-8DD1-5D7FBCD503D3";
color = 0;
layerId = "6E1BAEDD-69ED-4935-94A3-61419DAC8AD4";
name = "Jun 2, 25 at 22:56";
shapes = (
{
closed = 1;
nodes = (
(541,288,l),
(541,432,l),
(41,597,l),
(41,441,l)
);
},
{
closed = 1;
nodes = (
(541,208,l),
(541,352,l),
(41,199,l),
(41,43,l)
);
}
);
userData = {
com.hugojourdan.ColorFlow = {
"0" = 0;
"1" = 0;
"10" = 0;
"11" = 0;
"2" = 0;
"3" = 0;
"4" = 0;
"5" = 0;
"6" = 0;
"7" = 0;
"8" = 0;
"9" = 0;
};
};
visible = 1;
width = 582;
}
);
unicode = 62;
userData = {
KernOnSpecialSpacing = {
L = math;
R = math;
};
};
}
{
glyphname = question;
kernLeft = question;
kernRight = question;
layers = (
{
layerId = "C5561BE3-178F-4E91-92CF-CFC72B047BCB";
shapes = (
{
closed = 1;
nodes = (
(263,190,l),
(263,268,l),
(233,232,l),
(349,296,ls),
(444,349,o),
(488,414,o),
(488,494,cs),
(488,504,ls),
(488,615,o),
(397,692,o),
(270,692,cs),
(135,692,o),
(40,611,o),
(30,490,c),
(122,490,l),
(128,568,o),
(183,618,o),
(263,618,cs),
(341,618,o),
(396,570,o),
(396,497,cs),
(396,487,ls),
(396,438,o),
(368,393,o),
(306,357,cs),
(191,290,l),
(191,190,l)
);
},
{
closed = 1;
nodes = (
(281,0,l),
(281,114,l),
(173,114,l),
(173,0,l)
);
}
);
userData = {
com.hugojourdan.ColorFlow = {
"0" = 0;
"1" = 0;
"10" = 0;
"11" = 0;
"2" = 0;
"3" = 0;
"4" = 0;
"5" = 0;
"6" = 0;
"7" = 0;
"8" = 0;
"9" = 0;
};
};
width = 528;
},
{
layerId = "89695F39-7340-4A9C-8DD1-5D7FBCD503D3";
shapes = (
{
closed = 1;
nodes = (
(323,180,l),
(323,308,l),
(251,216,l),
(386,277,ls),
(498,328,o),
(553,386,o),
(553,478,cs),
(553,488,ls),
(553,623,o),
(440,696,o),
(290,696,cs),
(133,696,o),
(20,615,o),
(12,463,c),
(172,463,l),
(177,535,o),
(225,566,o),
(286,566,cs),
(349,566,o),
(391,533,o),
(391,479,cs),
(391,469,ls),
(391,430,o),
(367,401,o),
(317,378,cs),
(191,319,l),
(191,180,l)
);
},
{
closed = 1;
nodes = (
(341,0,l),
(341,134,l),
(173,134,l),
(173,0,l)
);
}
);
userData = {
com.hugojourdan.ColorFlow = {
"0" = 0;
"1" = 0;
"10" = 0;
"11" = 0;
"2" = 0;
"3" = 0;
"4" = 0;
"5" = 0;
"6" = 0;
"7" = 0;
"8" = 0;
"9" = 0;
};
};
width = 580;
},
{
associatedMasterId = "C5561BE3-178F-4E91-92CF-CFC72B047BCB";
color = 0;
layerId = "2E4EE943-24A4-4D5A-B9B5-072DC9A19354";
name = "Feb 8, 25 at 23:15";
shapes = (
{
closed = 1;
nodes = (
(298,0,l),
(298,100,l),
(195,100,l),
(195,0,l)
);
},
{
closed = 1;
nodes = (
(194,174,l),
(313,275,ls),
(410,357,o),
(461,411,o),
(461,498,cs),
(461,610,o),
(376,690,o),
(256,690,cs),
(128,690,o),
(41,602,o),
(34,470,c),
(114,470,l),
(119,571,o),
(174,618,o),
(252,618,cs),
(323,618,o),
(381,576,o),
(381,496,cs),
(381,438,o),
(350,399,o),
(270,332,cs),
(194,268,l)
);
}
);
userData = {
com.hugojourdan.ColorFlow = {
"0" = 0;
"1" = 0;
"10" = 0;
"11" = 0;
"2" = 0;
"3" = 0;
"4" = 0;
"5" = 0;
"6" = 0;
"7" = 0;
"8" = 0;
"9" = 0;
};
};
width = 515;
},
{
associatedMasterId = "C5561BE3-178F-4E91-92CF-CFC72B047BCB";
color = 4;
layerId = "ACFC34A3-45E8-406C-AA59-FE1226AD4757";
name = "Feb 8, 25 at 23:19";
shapes = (
{
closed = 1;
nodes = (
(295,0,l),
(295,100,l),
(195,100,l),
(195,0,l)
);
},
{
closed = 1;
nodes = (
(195,189,l),
(314,272,ls),
(419,345,o),
(462,411,o),
(462,498,cs),
(462,611,o),
(378,690,o),
(257,690,cs),
(131,690,o),
(43,609,o),
(35,490,c),
(117,490,l),
(122,573,o),
(178,620,o),
(253,620,cs),
(322,620,o),
(380,576,o),
(380,496,cs),
(380,438,o),
(355,393,o),
(271,332,cs),
(195,277,l)
);
}
);
userData = {
com.hugojourdan.ColorFlow = {
"0" = 0;
"1" = 0;
"10" = 0;
"11" = 0;
"2" = 0;
"3" = 0;
"4" = 0;
"5" = 0;
"6" = 0;
"7" = 0;
"8" = 0;
"9" = 0;
};
};
width = 515;
},
{
associatedMasterId = "C5561BE3-178F-4E91-92CF-CFC72B047BCB";
color = 4;
layerId = "BE0D71FB-768C-4844-9932-BA356B661CD7";
name = "Feb 8, 25 at 23:24";
shapes = (
{
closed = 1;
nodes = (
(310,0,l),
(310,100,l),
(210,100,l),
(210,0,l)
);
},
{
closed = 1;
nodes = (
(210,185,l),
(332,267,ls),
(437,338,o),
(482,405,o),
(482,493,cs),
(482,610,o),
(393,692,o),
(266,692,cs),
(135,692,o),
(44,610,o),
(36,490,c),
(118,490,l),
(124,573,o),
(182,622,o),
(262,622,cs),
(335,622,o),
(400,574,o),
(400,491,cs),
(400,431,o),
(375,384,o),
(289,323,cs),
(210,267,l)
);
}
);
userData = {
com.hugojourdan.ColorFlow = {
"0" = 0;
"1" = 0;
"10" = 0;
"11" = 0;
"2" = 0;
"3" = 0;
"4" = 0;
"5" = 0;
"6" = 0;
"7" = 0;
"8" = 0;
"9" = 0;
};
};
width = 538;
},
{
associatedMasterId = "C5561BE3-178F-4E91-92CF-CFC72B047BCB";
color = 0;
layerId = "EFC0353D-24A8-4AE2-9B77-3D9EAE249F21";
name = "Apr 24, 25 at 21:03";
shapes = (
{
closed = 1;
nodes = (
(310,0,l),
(310,100,l),
(210,100,l),
(210,0,l)
);
},
{
closed = 1;
nodes = (
(210,190,l),
(214,190,l),
(332,267,ls),
(438,336,o),
(482,405,o),
(482,493,cs),
(482,610,o),
(393,692,o),
(266,692,cs),
(135,692,o),
(44,610,o),
(36,490,c),
(118,490,l),
(124,573,o),
(182,622,o),
(262,622,cs),
(335,622,o),
(400,574,o),
(400,491,cs),
(400,431,o),
(376,383,o),
(289,323,cs),
(210,269,l)
);
}
);
userData = {
com.hugojourdan.ColorFlow = {
"0" = 0;
"1" = 0;
"10" = 0;
"11" = 0;
"2" = 0;
"3" = 0;
"4" = 0;
"5" = 0;
"6" = 0;
"7" = 0;
"8" = 0;
"9" = 0;
};
};
width = 538;
},
{
associatedMasterId = "C5561BE3-178F-4E91-92CF-CFC72B047BCB";
color = 4;
layerId = "5EF20E35-1EF5-4E1B-9B61-6789DC7E5AFC";
name = "Apr 25, 25 at 22:12";
shapes = (
{
closed = 1;
nodes = (
(308,0,l),
(308,106,l),
(212,106,l),
(212,0,l)
);
},
{
closed = 1;
nodes = (
(212,184,l),
(216,184,l),
(334,261,ls),
(443,332,o),
(492,404,o),
(492,493,cs),
(492,613,o),
(403,692,o),
(269,692,cs),
(133,692,o),
(36,611,o),
(26,490,c),
(118,490,l),
(124,568,o),
(180,618,o),
(260,618,cs),
(343,618,o),
(400,564,o),
(400,484,cs),
(400,423,o),
(367,376,o),
(291,324,cs),
(212,270,l)
);
}
);
userData = {
com.hugojourdan.ColorFlow = {
"0" = 0;
"1" = 0;
"10" = 0;
"11" = 0;
"2" = 0;
"3" = 0;
"4" = 0;
"5" = 0;
"6" = 0;
"7" = 0;
"8" = 0;
"9" = 0;
};
};
width = 538;
},
{
associatedMasterId = "89695F39-7340-4A9C-8DD1-5D7FBCD503D3";
color = 0;
layerId = "B0075611-C9F2-4852-9958-D35FB2F47EC0";
name = "May 6, 25 at 02:08";
shapes = (
{
closed = 1;
nodes = (
(359,0,l),
(359,152,l),
(183,152,l),
(183,0,l)
);
},
{
closed = 1;
nodes = (
(181,178,l),
(347,262,ls),
(453,315,o),
(505,385,o),
(505,485,cs),
(505,615,o),
(408,690,o),
(275,690,cs),
(137,690,o),
(40,612,o),
(31,455,c),
(193,455,l),
(197,530,o),
(231,551,o),
(272,551,cs),
(314,551,o),
(343,527,o),
(343,480,cs),
(343,438,o),
(321,406,o),
(261,376,cs),
(181,336,l)
);
}
);
userData = {
com.hugojourdan.ColorFlow = {
"0" = 0;
"1" = 0;
"10" = 0;
"11" = 0;
"2" = 0;
"3" = 0;
"4" = 0;
"5" = 0;
"6" = 0;
"7" = 0;
"8" = 0;
"9" = 0;
};
};
width = 560;
},
{
associatedMasterId = "89695F39-7340-4A9C-8DD1-5D7FBCD503D3";
color = 1;
layerId = "93288421-85EC-4B36-B528-F1EED9D2DE61";
name = "May 6, 25 at 02:18";
shapes = (
{
closed = 1;
nodes = (
(333,180,l),
(333,308,l),
(261,224,l),
(379,282,ls),
(486,334,o),
(538,393,o),
(538,484,cs),
(538,494,ls),
(538,618,o),
(438,696,o),
(294,696,cs),
(142,696,o),
(31,613,o),
(20,480,c),
(182,480,l),
(186,535,o),
(228,566,o),
(283,566,cs),
(336,566,o),
(376,531,o),
(376,482,cs),
(376,472,ls),
(376,446,o),
(365,412,o),
(318,387,cs),
(201,326,l),
(201,180,l)
);
},
{
closed = 1;
nodes = (
(350,0,l),
(350,134,l),
(184,134,l),
(184,0,l)
);
}
);
userData = {
com.hugojourdan.ColorFlow = {
"0" = 0;
"1" = 0;
"10" = 0;
"11" = 0;
"2" = 0;
"3" = 0;
"4" = 0;
"5" = 0;
"6" = 0;
"7" = 0;
"8" = 0;
"9" = 0;
};
};
width = 560;
},
{
associatedMasterId = "89695F39-7340-4A9C-8DD1-5D7FBCD503D3";
color = 1;
layerId = "D526A840-2202-4E5E-B9D4-BC8515E6136A";
name = "Jun 2, 25 at 17:23";
shapes = (
{
closed = 1;
nodes = (
(333,180,l),
(333,308,l),
(261,219,l),
(389,277,ls),
(500,327,o),
(553,388,o),
(553,479,cs),
(553,489,ls),
(553,616,o),
(449,696,o),
(296,696,cs),
(138,696,o),
(21,612,o),
(10,470,c),
(172,470,l),
(177,533,o),
(225,566,o),
(285,566,cs),
(349,566,o),
(391,529,o),
(391,479,cs),
(391,469,ls),
(391,434,o),
(369,402,o),
(320,378,cs),
(201,319,l),
(201,180,l)
);
},
{
closed = 1;
nodes = (
(351,0,l),
(351,134,l),
(183,134,l),
(183,0,l)
);
}
);
userData = {
com.hugojourdan.ColorFlow = {
"0" = 0;
"1" = 0;
"10" = 0;
"11" = 0;
"2" = 0;
"3" = 0;
"4" = 0;
"5" = 0;
"6" = 0;
"7" = 0;
"8" = 0;
"9" = 0;
};
};
width = 580;
}
);
unicode = 63;
userData = {
KernOnName = question;
KernOnSpecialSpacing = {
L = "spaced-off";
};
};
}
{
glyphname = at;
kernLeft = at;
kernRight = at;
layers = (
{
layerId = "C5561BE3-178F-4E91-92CF-CFC72B047BCB";
shapes = (
{
closed = 1;
nodes = (
(669,49,ls),
(799,49,o),
(912,165,o),
(912,329,cs),
(912,550,o),
(730,696,o),
(501,696,cs),
(240,696,o),
(57,502,o),
(57,250,cs),
(57,4,o),
(227,-154,o),
(473,-154,cs),
(656,-154,l),
(656,-90,l),
(476,-90,ls),
(272,-90,o),
(133,41,o),
(133,253,cs),
(133,468,o),
(286,632,o),
(501,632,cs),
(686,632,o),
(836,513,o),
(836,329,cs),
(836,200,o),
(759,113,o),
(685,113,cs),
(642,113,l),
(659,65,l),
(716,477,l),
(635,477,l),
(619,333,l),
(648,304,l),
(639,418,o),
(574,487,o),
(476,487,cs),
(334,487,o),
(265,359,o),
(265,240,cs),
(265,123,o),
(336,45,o),
(443,45,cs),
(526,45,o),
(586,92,o),
(614,170,c),
(597,164,l),
(582,49,l)
);
},
{
closed = 1;
nodes = (
(393,113,o),
(354,158,o),
(351,233,cs),
(348,309,o),
(383,419,o),
(485,419,cs),
(564,419,o),
(601,360,o),
(601,288,cs),
(601,221,o),
(566,113,o),
(457,113,cs)
);
}
);
userData = {
com.hugojourdan.ColorFlow = {
"0" = 0;
"1" = 0;
"10" = 0;
"11" = 0;
"2" = 0;
"3" = 0;
"4" = 0;
"5" = 0;
"6" = 0;
"7" = 0;
"8" = 0;
"9" = 0;
};
};
width = 962;
},
{
layerId = "89695F39-7340-4A9C-8DD1-5D7FBCD503D3";
shapes = (
{
closed = 1;
nodes = (
(655,39,ls),
(794,39,o),
(914,159,o),
(914,329,cs),
(914,557,o),
(726,706,o),
(487,706,cs),
(218,706,o),
(27,506,o),
(27,250,cs),
(27,-2,o),
(207,-164,o),
(469,-164,cs),
(652,-164,l),
(652,-70,l),
(472,-70,ls),
(274,-70,o),
(139,53,o),
(139,253,cs),
(139,458,o),
(282,612,o),
(487,612,cs),
(660,612,o),
(802,501,o),
(802,329,cs),
(802,212,o),
(735,133,o),
(671,133,cs),
(628,133,l),
(671,65,l),
(722,487,l),
(581,487,l),
(565,333,l),
(599,344,l),
(599,424,o),
(551,497,o),
(444,497,cs),
(297,497,o),
(231,364,o),
(231,240,cs),
(231,107,o),
(304,35,o),
(410,35,cs),
(499,35,o),
(551,86,o),
(570,170,c),
(553,164,l),
(538,39,l)
);
},
{
closed = 1;
nodes = (
(414,158,o),
(382,192,o),
(382,247,cs),
(382,325,o),
(416,374,o),
(475,374,cs),
(525,374,o),
(552,338,o),
(552,283,cs),
(552,205,o),
(514,158,o),
(459,158,cs)
);
}
);
userData = {
com.hugojourdan.ColorFlow = {
"0" = 0;
"1" = 0;
"10" = 0;
"11" = 0;
"2" = 0;
"3" = 0;
"4" = 0;
"5" = 0;
"6" = 0;
"7" = 0;
"8" = 0;
"9" = 0;
};
};
width = 938;
},
{
associatedMasterId = "C5561BE3-178F-4E91-92CF-CFC72B047BCB";
color = 0;
layerId = "94F53EB9-4CDC-49B3-83D4-9A0F1601B7A1";
name = v1;
shapes = (
{
closed = 1;
nodes = (
(531,-177,o),
(618,-163,o),
(691,-130,c),
(691,-59,l),
(618,-94,o),
(534,-111,o),
(461,-111,cs),
(262,-111,o),
(126,25,o),
(126,217,cs),
(126,426,o),
(280,595,o),
(486,595,cs),
(660,595,o),
(807,474,o),
(807,293,cs),
(807,179,o),
(746,74,o),
(638,74,cs),
(592,74,l),
(635,40,l),
(709,460,l),
(636,460,l),
(610,310,l),
(630,280,l),
(625,401,o),
(570,470,o),
(467,470,cs),
(313,470,o),
(250,317,o),
(250,199,cs),
(250,69,o),
(325,10,o),
(416,10,cs),
(501,10,o),
(552,62,o),
(590,140,c),
(578,134,l),
(557,10,l),
(625,10,ls),
(780,10,o),
(877,137,o),
(877,293,cs),
(877,509,o),
(699,660,o),
(486,660,cs),
(237,660,o),
(56,463,o),
(56,214,cs),
(56,-15,o),
(219,-177,o),
(458,-177,cs)
);
},
{
closed = 1;
nodes = (
(365,74,o),
(323,118,o),
(323,203,cs),
(323,298,o),
(374,406,o),
(480,406,cs),
(544,406,o),
(596,364,o),
(596,269,cs),
(596,196,o),
(555,74,o),
(437,74,cs)
);
}
);
userData = {
com.hugojourdan.ColorFlow = {
"0" = 0;
"1" = 0;
"10" = 0;
"11" = 0;
"2" = 0;
"3" = 0;
"4" = 0;
"5" = 0;
"6" = 0;
"7" = 0;
"8" = 0;
"9" = 0;
};
};
width = 932;
},
{
associatedMasterId = "C5561BE3-178F-4E91-92CF-CFC72B047BCB";
color = 4;
layerId = "DC4FCEF3-EEF9-4323-9338-C8A60FCC198D";
name = "Feb 9, 25 at 01:19";
shapes = (
{
closed = 1;
nodes = (
(729,19,l),
(835,61,o),
(877,192,o),
(877,293,cs),
(877,514,o),
(704,660,o),
(486,660,cs),
(232,660,o),
(56,468,o),
(56,214,cs),
(56,-20,o),
(214,-177,o),
(458,-177,cs),
(741,-177,l),
(741,-111,l),
(461,-111,ls),
(257,-111,o),
(126,20,o),
(126,217,cs),
(126,431,o),
(275,595,o),
(486,595,cs),
(665,595,o),
(807,479,o),
(807,293,cs),
(807,181,o),
(748,65,o),
(607,19,c)
);
},
{
closed = 1;
nodes = (
(369,80,o),
(329,123,o),
(329,204,cs),
(329,296,o),
(378,400,o),
(480,400,cs),
(542,400,o),
(591,359,o),
(591,268,cs),
(591,198,o),
(552,80,o),
(439,80,cs)
);
},
{
closed = 1;
nodes = (
(624,19,l),
(700,451,l),
(630,451,l),
(605,307,l),
(624,278,l),
(619,395,o),
(566,461,o),
(467,461,cs),
(319,461,o),
(259,314,o),
(259,201,cs),
(259,76,o),
(331,19,o),
(418,19,cs),
(500,19,o),
(549,69,o),
(586,144,c),
(574,138,l),
(554,19,l)
);
}
);
userData = {
com.hugojourdan.ColorFlow = {
"0" = 0;
"1" = 0;
"10" = 0;
"11" = 0;
"2" = 0;
"3" = 0;
"4" = 0;
"5" = 0;
"6" = 0;
"7" = 0;
"8" = 0;
"9" = 0;
};
};
width = 932;
},
{
associatedMasterId = "C5561BE3-178F-4E91-92CF-CFC72B047BCB";
color = 4;
layerId = "DA4E63CD-E326-435E-8429-A3BEB4D1B64B";
name = "Feb 10, 25 at 01:44";
shapes = (
{
closed = 1;
nodes = (
(604,19,ls),
(776,19,o),
(883,137,o),
(883,303,cs),
(883,524,o),
(707,670,o),
(486,670,cs),
(230,670,o),
(50,476,o),
(50,224,cs),
(50,-22,o),
(217,-180,o),
(458,-180,cs),
(641,-180,l),
(641,-118,l),
(461,-118,ls),
(254,-118,o),
(114,13,o),
(114,227,cs),
(114,443,o),
(268,608,o),
(486,608,cs),
(670,608,o),
(819,489,o),
(819,303,cs),
(819,169,o),
(743,79,o),
(630,79,c),
(631,39,l),
(702,451,l),
(630,451,l),
(605,307,l),
(624,278,l),
(619,392,o),
(563,461,o),
(465,461,cs),
(319,461,o),
(253,319,o),
(253,201,cs),
(253,79,o),
(330,19,o),
(416,19,cs),
(499,19,o),
(555,66,o),
(586,144,c),
(577,138,l),
(557,19,l)
);
},
{
closed = 1;
nodes = (
(369,83,o),
(325,128,o),
(325,204,cs),
(325,294,o),
(375,397,o),
(478,397,cs),
(538,397,o),
(591,354,o),
(591,268,cs),
(591,199,o),
(552,83,o),
(437,83,cs)
);
}
);
userData = {
com.hugojourdan.ColorFlow = {
"0" = 0;
"1" = 0;
"10" = 0;
"11" = 0;
"2" = 0;
"3" = 0;
"4" = 0;
"5" = 0;
"6" = 0;
"7" = 0;
"8" = 0;
"9" = 0;
};
};
width = 932;
},
{
associatedMasterId = "C5561BE3-178F-4E91-92CF-CFC72B047BCB";
color = 4;
layerId = "A256AEB3-7453-475C-9675-72B50D19E5BE";
name = "Feb 10, 25 at 19:19";
shapes = (
{
closed = 1;
nodes = (
(604,23,ls),
(776,23,o),
(883,139,o),
(883,303,cs),
(883,524,o),
(707,670,o),
(486,670,cs),
(230,670,o),
(50,476,o),
(50,224,cs),
(50,-22,o),
(217,-180,o),
(458,-180,cs),
(641,-180,l),
(641,-118,l),
(461,-118,ls),
(254,-118,o),
(114,13,o),
(114,227,cs),
(114,443,o),
(268,608,o),
(486,608,cs),
(670,608,o),
(819,489,o),
(819,303,cs),
(819,172,o),
(743,83,o),
(630,83,c),
(631,39,l),
(702,451,l),
(631,451,l),
(606,307,l),
(624,278,l),
(619,392,o),
(563,461,o),
(465,461,cs),
(321,461,o),
(253,319,o),
(253,201,cs),
(253,79,o),
(330,19,o),
(416,19,cs),
(499,19,o),
(555,66,o),
(586,144,c),
(578,138,l),
(557,23,l)
);
},
{
closed = 1;
nodes = (
(369,83,o),
(325,128,o),
(325,204,cs),
(325,294,o),
(369,397,o),
(478,397,cs),
(538,397,o),
(591,354,o),
(591,268,cs),
(591,199,o),
(552,83,o),
(437,83,cs)
);
}
);
userData = {
com.hugojourdan.ColorFlow = {
"0" = 0;
"1" = 0;
"10" = 0;
"11" = 0;
"2" = 0;
"3" = 0;
"4" = 0;
"5" = 0;
"6" = 0;
"7" = 0;
"8" = 0;
"9" = 0;
};
};
width = 932;
},
{
associatedMasterId = "C5561BE3-178F-4E91-92CF-CFC72B047BCB";
color = 0;
layerId = "04725357-401F-4034-996A-3987F232A354";
name = "Apr 25, 25 at 02:55";
shapes = (
{
closed = 1;
nodes = (
(604,23,ls),
(776,23,o),
(883,139,o),
(883,303,cs),
(883,524,o),
(707,670,o),
(486,670,cs),
(230,670,o),
(50,476,o),
(50,224,cs),
(50,-22,o),
(217,-180,o),
(458,-180,cs),
(641,-180,l),
(641,-118,l),
(461,-118,ls),
(254,-118,o),
(114,13,o),
(114,227,cs),
(114,443,o),
(268,608,o),
(486,608,cs),
(670,608,o),
(819,489,o),
(819,303,cs),
(819,172,o),
(743,83,o),
(630,83,c),
(638,39,l),
(695,451,l),
(624,451,l),
(604,307,l),
(623,278,l),
(614,392,o),
(555,461,o),
(457,461,cs),
(322,461,o),
(254,329,o),
(254,209,cs),
(254,95,o),
(319,19,o),
(424,19,cs),
(507,19,o),
(561,66,o),
(589,144,c),
(582,138,l),
(565,23,l)
);
},
{
closed = 1;
nodes = (
(372,83,o),
(329,129,o),
(326,207,cs),
(323,285,o),
(360,397,o),
(470,397,cs),
(552,397,o),
(590,336,o),
(590,262,cs),
(590,193,o),
(554,83,o),
(442,83,cs)
);
}
);
userData = {
com.hugojourdan.ColorFlow = {
"0" = 0;
"1" = 0;
"10" = 0;
"11" = 0;
"2" = 0;
"3" = 0;
"4" = 0;
"5" = 0;
"6" = 0;
"7" = 0;
"8" = 0;
"9" = 0;
};
};
width = 932;
},
{
associatedMasterId = "89695F39-7340-4A9C-8DD1-5D7FBCD503D3";
color = 0;
layerId = "6A0267C1-8CC7-4C89-BEE5-6FA5F7FECE1F";
name = v1;
shapes = (
{
closed = 1;
nodes = (
(548,-187,o),
(640,-169,o),
(721,-128,c),
(721,-28,l),
(641,-70,o),
(545,-91,o),
(464,-91,cs),
(267,-91,o),
(135,38,o),
(135,223,cs),
(135,421,o),
(284,584,o),
(482,584,cs),
(651,584,o),
(793,471,o),
(793,301,cs),
(793,196,o),
(737,103,o),
(637,103,cs),
(590,103,l),
(649,40,l),
(724,464,l),
(577,464,l),
(549,310,l),
(577,294,l),
(561,410,o),
(526,474,o),
(430,474,cs),
(284,474,o),
(224,327,o),
(224,199,cs),
(224,60,o),
(298,11,o),
(376,11,cs),
(456,11,o),
(500,60,o),
(536,133,c),
(517,134,l),
(495,11,l),
(610,11,ls),
(787,11,o),
(895,142,o),
(895,308,cs),
(895,522,o),
(716,680,o),
(482,680,cs),
(223,680,o),
(33,477,o),
(33,220,cs),
(33,-17,o),
(204,-187,o),
(461,-187,cs)
);
},
{
closed = 1;
nodes = (
(399,123,o),
(373,152,o),
(373,214,cs),
(373,280,o),
(403,360,o),
(472,360,cs),
(518,360,o),
(543,323,o),
(543,269,cs),
(543,209,o),
(517,123,o),
(442,123,cs)
);
}
);
userData = {
com.hugojourdan.ColorFlow = {
"0" = 0;
"1" = 0;
"10" = 0;
"11" = 0;
"2" = 0;
"3" = 0;
"4" = 0;
"5" = 0;
"6" = 0;
"7" = 0;
"8" = 0;
"9" = 0;
};
};
width = 928;
},
{
associatedMasterId = "C5561BE3-178F-4E91-92CF-CFC72B047BCB";
color = 4;
layerId = "93AB0F44-8B94-4D1F-AE92-E77FFB52C388";
name = "Jun 2, 25 at 18:37";
shapes = (
{
closed = 1;
nodes = (
(668,49,ls),
(798,49,o),
(911,165,o),
(911,329,cs),
(911,550,o),
(729,696,o),
(500,696,cs),
(239,696,o),
(56,502,o),
(56,250,cs),
(56,4,o),
(226,-154,o),
(472,-154,cs),
(655,-154,l),
(655,-90,l),
(475,-90,ls),
(271,-90,o),
(132,41,o),
(132,253,cs),
(132,468,o),
(285,632,o),
(500,632,cs),
(685,632,o),
(835,513,o),
(835,329,cs),
(835,200,o),
(758,113,o),
(684,113,cs),
(641,113,l),
(658,65,l),
(715,477,l),
(634,477,l),
(614,333,l),
(637,304,l),
(628,418,o),
(569,487,o),
(471,487,cs),
(333,487,o),
(264,359,o),
(264,237,cs),
(264,123,o),
(331,45,o),
(438,45,cs),
(521,45,o),
(575,92,o),
(603,170,c),
(592,164,l),
(575,49,l)
);
},
{
closed = 1;
nodes = (
(392,113,o),
(353,158,o),
(350,233,cs),
(347,309,o),
(382,419,o),
(484,419,cs),
(563,419,o),
(600,360,o),
(600,288,cs),
(600,221,o),
(565,113,o),
(456,113,cs)
);
}
);
userData = {
com.hugojourdan.ColorFlow = {
"0" = 0;
"1" = 0;
"10" = 0;
"11" = 0;
"2" = 0;
"3" = 0;
"4" = 0;
"5" = 0;
"6" = 0;
"7" = 0;
"8" = 0;
"9" = 0;
};
};
width = 967;
},
{
associatedMasterId = "89695F39-7340-4A9C-8DD1-5D7FBCD503D3";
color = 0;
layerId = "7BB01EDD-3FE8-4A03-BFF9-C5497E1C7C28";
name = "Jun 2, 25 at 18:39";
shapes = (
{
closed = 1;
nodes = (
(721,-167,l),
(721,-81,l),
(464,-81,ls),
(257,-81,o),
(125,52,o),
(125,243,cs),
(125,446,o),
(274,614,o),
(482,614,cs),
(661,614,o),
(803,497,o),
(803,321,cs),
(803,216,o),
(742,123,o),
(652,123,cs),
(603,123,l),
(667,60,l),
(712,484,l),
(565,484,l),
(548,330,l),
(577,316,l),
(553,432,o),
(515,494,o),
(419,494,cs),
(284,494,o),
(230,366,o),
(230,245,cs),
(230,129,o),
(278,31,o),
(394,31,cs),
(474,31,o),
(515,82,o),
(546,155,c),
(528,154,l),
(515,31,l),
(628,31,ls),
(795,31,o),
(905,162,o),
(905,328,cs),
(905,542,o),
(726,700,o),
(482,700,cs),
(213,700,o),
(23,497,o),
(23,240,cs),
(23,3,o),
(194,-167,o),
(461,-167,cs)
);
},
{
closed = 1;
nodes = (
(397,143,o),
(375,205,o),
(378,253,cs),
(378,315,o),
(403,380,o),
(466,380,cs),
(523,380,o),
(549,316,o),
(546,271,cs),
(546,213,o),
(525,143,o),
(456,143,cs)
);
}
);
userData = {
com.hugojourdan.ColorFlow = {
"0" = 0;
"1" = 0;
"10" = 0;
"11" = 0;
"2" = 0;
"3" = 0;
"4" = 0;
"5" = 0;
"6" = 0;
"7" = 0;
"8" = 0;
"9" = 0;
};
};
width = 928;
}
);
unicode = 64;
userData = {
KernOnSpecialSpacing = {
L = symbols;
R = symbols;
};
};
}
{
glyphname = A;
kernLeft = A;
kernRight = A;
layers = (
{
anchors = (
{
name = bottom;
pos = (334,0);
},
{
name = ogonek;
pos = (665,0);
},
{
name = top;
pos = (343,680);
}
);
layerId = "C5561BE3-178F-4E91-92CF-CFC72B047BCB";
shapes = (
{
closed = 1;
nodes = (
(334,660,l),
(567,0,l),
(665,0,l),
(415,680,l),
(273,680,l),
(25,0,l),
(119,0,l),
(350,660,l)
);
},
{
closed = 1;
nodes = (
(343,203,l),
(534,203,l),
(534,277,l),
(154,277,l),
(154,203,l)
);
}
);
userData = {
com.hugojourdan.ColorFlow = {
"0" = 0;
"1" = 0;
"10" = 0;
"11" = 0;
"2" = 0;
"3" = 0;
"4" = 0;
"5" = 0;
"6" = 0;
"7" = 0;
"8" = 0;
"9" = 0;
};
};
width = 690;
},
{
anchors = (
{
name = bottom;
pos = (356,0);
},
{
name = ogonek;
pos = (717,0);
},
{
name = top;
pos = (354,680);
}
);
layerId = "89695F39-7340-4A9C-8DD1-5D7FBCD503D3";
shapes = (
{
closed = 1;
nodes = (
(344,660,l),
(542,0,l),
(717,0,l),
(498,680,l),
(210,680,l),
(-5,0,l),
(162,0,l),
(360,660,l)
);
},
{
closed = 1;
nodes = (
(354,166,l),
(542,166,l),
(542,296,l),
(162,296,l),
(162,166,l)
);
}
);
userData = {
com.hugojourdan.ColorFlow = {
"0" = 0;
"1" = 0;
"10" = 0;
"11" = 0;
"2" = 0;
"3" = 0;
"4" = 0;
"5" = 0;
"6" = 0;
"7" = 0;
"8" = 0;
"9" = 0;
};
};
width = 712;
},
{
anchors = (
{
name = bottom;
pos = (335,0);
},
{
name = ogonek;
pos = (643,0);
},
{
name = top;
pos = (335,680);
}
);
associatedMasterId = "C5561BE3-178F-4E91-92CF-CFC72B047BCB";
color = 0;
hints = (
{
name = _corner.sharp;
options = 2;
origin = (0,1,0,7);
stem = 1000;
type = Corner;
}
);
layerId = "1D2660E1-3BCB-4365-9D1C-68217182A05C";
name = "Feb 8, 25 at 21:40";
shapes = (
{
closed = 1;
nodes = (
(316,680,l),
(557,0,l),
(643,0,l),
(396,680,l),
(275,680,l),
(28,0,l),
(113,0,l),
(353,680,l)
);
},
{
closed = 1;
nodes = (
(525,207,l),
(525,280,l),
(145,280,l),
(145,207,l)
);
}
);
userData = {
com.hugojourdan.ColorFlow = {
"0" = 0;
"1" = 0;
"10" = 0;
"11" = 0;
"2" = 0;
"3" = 0;
"4" = 0;
"5" = 0;
"6" = 0;
"7" = 0;
"8" = 0;
"9" = 0;
};
};
width = 669;
},
{
anchors = (
{
name = bottom;
pos = (335,0);
},
{
name = ogonek;
pos = (643,0);
},
{
name = top;
pos = (335,680);
}
);
associatedMasterId = "C5561BE3-178F-4E91-92CF-CFC72B047BCB";
color = 4;
layerId = "07A19BA6-05FC-4903-84A8-D867F7B3A21D";
name = "Feb 9, 25 at 01:07";
shapes = (
{
closed = 1;
nodes = (
(316,680,l),
(558,0,l),
(643,0,l),
(396,680,l),
(275,680,l),
(28,0,l),
(111,0,l),
(351,680,l)
);
},
{
closed = 1;
nodes = (
(525,207,l),
(525,277,l),
(145,277,l),
(145,207,l)
);
}
);
userData = {
com.hugojourdan.ColorFlow = {
"0" = 0;
"1" = 0;
"10" = 0;
"11" = 0;
"2" = 0;
"3" = 0;
"4" = 0;
"5" = 0;
"6" = 0;
"7" = 0;
"8" = 0;
"9" = 0;
};
};
width = 669;
},
{
anchors = (
{
name = bottom;
pos = (335,0);
},
{
name = ogonek;
pos = (643,0);
},
{
name = top;
pos = (335,680);
}
);
associatedMasterId = "C5561BE3-178F-4E91-92CF-CFC72B047BCB";
color = 0;
layerId = "919FDD9C-2C38-4E33-85C3-09A8857721B3";
name = "Apr 23, 25 at 11:40";
shapes = (
{
closed = 1;
nodes = (
(326,680,l),
(558,0,l),
(645,0,l),
(408,680,l),
(265,680,l),
(28,0,l),
(111,0,l),
(341,680,l)
);
},
{
closed = 1;
nodes = (
(525,207,l),
(525,277,l),
(145,277,l),
(145,207,l)
);
}
);
userData = {
com.hugojourdan.ColorFlow = {
"0" = 0;
"1" = 0;
"10" = 0;
"11" = 0;
"2" = 0;
"3" = 0;
"4" = 0;
"5" = 0;
"6" = 0;
"7" = 0;
"8" = 0;
"9" = 0;
};
};
width = 673;
},
{
anchors = (
{
name = bottom;
pos = (335,0);
},
{
name = ogonek;
pos = (643,0);
},
{
name = top;
pos = (335,680);
}
);
associatedMasterId = "C5561BE3-178F-4E91-92CF-CFC72B047BCB";
color = 1;
layerId = "ECE6461C-8E88-43F3-9FD1-A44FE4A0A064";
name = "Apr 25, 25 at 02:00";
shapes = (
{
closed = 1;
nodes = (
(336,680,l),
(568,0,l),
(666,0,l),
(424,680,l),
(265,680,l),
(26,0,l),
(121,0,l),
(351,680,l)
);
},
{
closed = 1;
nodes = (
(535,203,l),
(535,277,l),
(155,277,l),
(155,203,l)
);
}
);
userData = {
com.hugojourdan.ColorFlow = {
"0" = 0;
"1" = 0;
"10" = 0;
"11" = 0;
"2" = 0;
"3" = 0;
"4" = 0;
"5" = 0;
"6" = 0;
"7" = 0;
"8" = 0;
"9" = 0;
};
};
width = 692;
},
{
anchors = (
{
name = bottom;
pos = (348,0);
},
{
name = ogonek;
pos = (675,0);
},
{
name = top;
pos = (348,680);
}
);
associatedMasterId = "89695F39-7340-4A9C-8DD1-5D7FBCD503D3";
color = 0;
layerId = "DFC58C08-313B-42E0-B39F-FEA8E639E39F";
name = "May 5, 25 at 13:34";
shapes = (
{
closed = 1;
nodes = (
(219,680,l),
(21,0,l),
(188,0,l),
(233,166,l),
(462,166,l),
(508,0,l),
(675,0,l),
(478,680,l)
);
},
{
closed = 1;
nodes = (
(315,464,l),
(343,586,l),
(349,586,l),
(378,464,l),
(421,311,l),
(273,311,l)
);
}
);
userData = {
com.hugojourdan.ColorFlow = {
"0" = 0;
"1" = 0;
"10" = 0;
"11" = 0;
"2" = 0;
"3" = 0;
"4" = 0;
"5" = 0;
"6" = 0;
"7" = 0;
"8" = 0;
"9" = 0;
};
};
width = 696;
},
{
anchors = (
{
name = bottom;
pos = (348,0);
},
{
name = ogonek;
pos = (675,0);
},
{
name = top;
pos = (348,680);
}
);
associatedMasterId = "89695F39-7340-4A9C-8DD1-5D7FBCD503D3";
color = 1;
layerId = "6A69FA6F-5A79-40EB-BE69-B3578F92FC3C";
name = "May 5, 25 at 14:35";
shapes = (
{
closed = 1;
nodes = (
(340,660,l),
(538,0,l),
(709,0,l),
(480,680,l),
(220,680,l),
(-5,0,l),
(158,0,l),
(356,660,l)
);
},
{
closed = 1;
nodes = (
(538,166,l),
(538,301,l),
(158,301,l),
(158,166,l)
);
}
);
userData = {
com.hugojourdan.ColorFlow = {
"0" = 0;
"1" = 0;
"10" = 0;
"11" = 0;
"2" = 0;
"3" = 0;
"4" = 0;
"5" = 0;
"6" = 0;
"7" = 0;
"8" = 0;
"9" = 0;
};
};
width = 704;
}
);
metricRight = "=|";
unicode = 65;
userData = {
KernOnName = A;
};
}
{
glyphname = B;
kernLeft = H;
kernRight = B;
layers = (
{
anchors = (
{
name = bottom;
pos = (318,0);
},
{
name = center;
pos = (318,340);
},
{
name = top;
pos = (318,680);
}
);
layerId = "C5561BE3-178F-4E91-92CF-CFC72B047BCB";
shapes = (
{
closed = 1;
nodes = (
(358,0,ls),
(517,0,o),
(608,71,o),
(608,189,cs),
(608,199,ls),
(608,301,o),
(539,361,o),
(435,361,c),
(435,352,l),
(530,352,o),
(591,415,o),
(591,499,cs),
(591,509,ls),
(591,611,o),
(510,680,o),
(367,680,cs),
(89,680,l),
(89,0,l)
);
},
{
closed = 1;
nodes = (
(181,314,l),
(366,314,ls),
(464,314,o),
(512,273,o),
(512,199,cs),
(512,189,ls),
(512,117,o),
(463,74,o),
(363,74,cs),
(181,74,l)
);
},
{
closed = 1;
nodes = (
(181,606,l),
(353,606,ls),
(449,606,o),
(497,561,o),
(497,498,cs),
(497,488,ls),
(497,427,o),
(452,386,o),
(363,386,cs),
(181,386,l)
);
}
);
userData = {
com.hugojourdan.ColorFlow = {
"0" = 0;
"1" = 0;
"10" = 0;
"11" = 0;
"2" = 0;
"3" = 0;
"4" = 0;
"5" = 0;
"6" = 0;
"7" = 0;
"8" = 0;
"9" = 0;
};
};
width = 663;
},
{
anchors = (
{
name = bottom;
pos = (327,0);
},
{
name = center;
pos = (327,340);
},
{
name = top;
pos = (327,680);
}
);
layerId = "89695F39-7340-4A9C-8DD1-5D7FBCD503D3";
shapes = (
{
closed = 1;
nodes = (
(378,0,ls),
(538,0,o),
(623,71,o),
(623,187,cs),
(623,197,ls),
(623,305,o),
(546,366,o),
(430,366,c),
(430,347,l),
(536,347,o),
(604,411,o),
(604,504,cs),
(604,514,ls),
(604,613,o),
(530,680,o),
(377,680,cs),
(49,680,l),
(49,0,l)
);
},
{
closed = 1;
nodes = (
(211,292,l),
(366,292,ls),
(428,292,o),
(457,264,o),
(457,212,cs),
(457,202,ls),
(457,152,o),
(427,122,o),
(363,122,cs),
(211,122,l)
);
},
{
closed = 1;
nodes = (
(211,558,l),
(353,558,ls),
(413,558,o),
(442,528,o),
(442,485,cs),
(442,475,ls),
(442,435,o),
(416,408,o),
(363,408,cs),
(211,408,l)
);
}
);
userData = {
com.hugojourdan.ColorFlow = {
"0" = 0;
"1" = 0;
"10" = 0;
"11" = 0;
"2" = 0;
"3" = 0;
"4" = 0;
"5" = 0;
"6" = 0;
"7" = 0;
"8" = 0;
"9" = 0;
};
};
width = 654;
},
{
anchors = (
{
name = bottom;
pos = (302,0);
},
{
name = center;
pos = (302,340);
},
{
name = top;
pos = (302,680);
}
);
associatedMasterId = "C5561BE3-178F-4E91-92CF-CFC72B047BCB";
color = 0;
layerId = "EAF8E265-7EB8-4A7D-B242-A0A5C733BD25";
name = "Feb 8, 25 at 15:26";
shapes = (
{
closed = 1;
nodes = (
(154,0,l),
(154,680,l),
(73,680,l),
(73,0,l)
);
},
{
closed = 1;
nodes = (
(316,340,l),
(442,341,o),
(528,388,o),
(528,501,cs),
(528,613,o),
(445,680,o),
(318,680,cs),
(108,680,l),
(108,607,l),
(316,607,ls),
(399,607,o),
(446,564,o),
(446,500,cs),
(446,490,ls),
(446,424,o),
(400,385,o),
(316,385,cs),
(108,385,l),
(108,315,l),
(319,315,ls),
(408,315,o),
(461,275,o),
(461,200,cs),
(461,190,ls),
(461,119,o),
(409,73,o),
(319,73,cs),
(108,73,l),
(108,0,l),
(320,0,ls),
(456,0,o),
(543,69,o),
(543,188,cs),
(543,308,o),
(453,360,o),
(323,362,c)
);
}
);
userData = {
com.hugojourdan.ColorFlow = {
"0" = 0;
"1" = 0;
"10" = 0;
"11" = 0;
"2" = 0;
"3" = 0;
"4" = 0;
"5" = 0;
"6" = 0;
"7" = 0;
"8" = 0;
"9" = 0;
};
};
width = 595;
},
{
anchors = (
{
name = bottom;
pos = (302,0);
},
{
name = center;
pos = (302,340);
},
{
name = top;
pos = (302,680);
}
);
associatedMasterId = "C5561BE3-178F-4E91-92CF-CFC72B047BCB";
color = 4;
layerId = "1219DBBA-06F2-4482-9C0F-F3C9C80598F2";
name = "Feb 9, 25 at 17:52";
shapes = (
{
closed = 1;
nodes = (
(155,0,l),
(155,680,l),
(73,680,l),
(73,0,l)
);
},
{
closed = 1;
nodes = (
(346,340,l),
(456,341,o),
(538,390,o),
(538,501,cs),
(538,613,o),
(455,680,o),
(328,680,cs),
(108,680,l),
(108,610,l),
(326,610,ls),
(408,610,o),
(456,565,o),
(456,500,cs),
(456,490,ls),
(456,422,o),
(411,384,o),
(326,384,cs),
(108,384,l),
(108,316,l),
(339,316,ls),
(426,316,o),
(481,274,o),
(481,200,cs),
(481,190,ls),
(481,116,o),
(430,70,o),
(339,70,cs),
(108,70,l),
(108,0,l),
(340,0,ls),
(475,0,o),
(563,70,o),
(563,188,cs),
(563,311,o),
(480,360,o),
(363,362,c)
);
}
);
userData = {
com.hugojourdan.ColorFlow = {
"0" = 0;
"1" = 0;
"10" = 0;
"11" = 0;
"2" = 0;
"3" = 0;
"4" = 0;
"5" = 0;
"6" = 0;
"7" = 0;
"8" = 0;
"9" = 0;
};
};
width = 617;
},
{
anchors = (
{
name = bottom;
pos = (302,0);
},
{
name = center;
pos = (302,340);
},
{
name = top;
pos = (302,680);
}
);
associatedMasterId = "C5561BE3-178F-4E91-92CF-CFC72B047BCB";
color = 0;
layerId = "268DE0A9-AE16-4A78-8F0E-5AD719E2BCC6";
name = "Apr 23, 25 at 11:56";
shapes = (
{
closed = 1;
nodes = (
(155,0,l),
(155,680,l),
(73,680,l),
(73,0,l)
);
},
{
closed = 1;
nodes = (
(356,340,l),
(466,341,o),
(548,390,o),
(548,501,cs),
(548,613,o),
(465,680,o),
(338,680,cs),
(108,680,l),
(108,610,l),
(336,610,ls),
(418,610,o),
(466,565,o),
(466,500,cs),
(466,490,ls),
(466,422,o),
(421,384,o),
(336,384,cs),
(108,384,l),
(108,316,l),
(349,316,ls),
(436,316,o),
(491,274,o),
(491,200,cs),
(491,190,ls),
(491,116,o),
(440,70,o),
(349,70,cs),
(108,70,l),
(108,0,l),
(350,0,ls),
(485,0,o),
(573,70,o),
(573,188,cs),
(573,311,o),
(490,360,o),
(373,362,c)
);
}
);
userData = {
com.hugojourdan.ColorFlow = {
"0" = 0;
"1" = 0;
"10" = 0;
"11" = 0;
"2" = 0;
"3" = 0;
"4" = 0;
"5" = 0;
"6" = 0;
"7" = 0;
"8" = 0;
"9" = 0;
};
};
width = 627;
},
{
anchors = (
{
name = bottom;
pos = (312,0);
},
{
name = center;
pos = (312,340);
},
{
name = top;
pos = (312,680);
}
);
associatedMasterId = "C5561BE3-178F-4E91-92CF-CFC72B047BCB";
color = 1;
layerId = "7DB50C9C-ED99-4E76-96B7-04C89C593F59";
name = "Apr 24, 25 at 23:18";
shapes = (
{
closed = 1;
nodes = (
(370,0,ls),
(511,0,o),
(603,70,o),
(603,188,cs),
(603,295,o),
(536,359,o),
(434,359,c),
(435,347,l),
(519,359,o),
(578,413,o),
(578,501,cs),
(578,613,o),
(491,680,o),
(358,680,cs),
(83,680,l),
(83,0,l)
);
},
{
closed = 1;
nodes = (
(175,314,l),
(369,314,ls),
(456,314,o),
(511,273,o),
(511,200,cs),
(511,190,ls),
(511,118,o),
(460,74,o),
(369,74,cs),
(175,74,l)
);
},
{
closed = 1;
nodes = (
(175,606,l),
(356,606,ls),
(438,606,o),
(486,563,o),
(486,500,cs),
(486,490,ls),
(486,423,o),
(441,386,o),
(356,386,cs),
(175,386,l)
);
}
);
userData = {
com.hugojourdan.ColorFlow = {
"0" = 0;
"1" = 0;
"10" = 0;
"11" = 0;
"2" = 0;
"3" = 0;
"4" = 0;
"5" = 0;
"6" = 0;
"7" = 0;
"8" = 0;
"9" = 0;
};
};
width = 667;
},
{
anchors = (
{
name = bottom;
pos = (302,0);
},
{
name = center;
pos = (302,340);
},
{
name = top;
pos = (302,680);
}
);
associatedMasterId = "89695F39-7340-4A9C-8DD1-5D7FBCD503D3";
color = 0;
layerId = "01B1B625-9F7F-43BD-8F74-E6EFE8513824";
name = v1;
shapes = (
{
closed = 1;
nodes = (
(207,0,l),
(207,680,l),
(47,680,l),
(47,0,l)
);
},
{
closed = 1;
nodes = (
(352,340,l),
(480,343,o),
(564,391,o),
(564,502,cs),
(564,614,o),
(476,680,o),
(349,680,cs),
(82,680,l),
(82,550,l),
(313,550,ls),
(369,550,o),
(402,524,o),
(402,483,cs),
(402,475,ls),
(402,434,o),
(370,410,o),
(313,410,cs),
(82,410,l),
(82,290,l),
(313,290,ls),
(375,290,o),
(412,264,o),
(412,215,cs),
(412,207,ls),
(412,161,o),
(376,130,o),
(313,130,cs),
(82,130,l),
(82,0,l),
(349,0,ls),
(482,0,o),
(574,68,o),
(574,188,cs),
(574,305,o),
(486,357,o),
(352,360,c)
);
}
);
userData = {
com.hugojourdan.ColorFlow = {
"0" = 0;
"1" = 0;
"10" = 0;
"11" = 0;
"2" = 0;
"3" = 0;
"4" = 0;
"5" = 0;
"6" = 0;
"7" = 0;
"8" = 0;
"9" = 0;
};
};
width = 601;
},
{
anchors = (
{
name = bottom;
pos = (332,0);
},
{
name = center;
pos = (332,340);
},
{
name = top;
pos = (332,680);
}
);
associatedMasterId = "89695F39-7340-4A9C-8DD1-5D7FBCD503D3";
color = 1;
layerId = "35E22A17-3E28-416C-A863-5370A237A334";
name = "May 5, 25 at 15:33";
shapes = (
{
closed = 1;
nodes = (
(343,0,ls),
(515,0,o),
(613,71,o),
(613,189,cs),
(613,199,ls),
(613,301,o),
(536,361,o),
(420,361,c),
(420,352,l),
(527,352,o),
(596,415,o),
(596,499,cs),
(596,509,ls),
(596,611,o),
(508,680,o),
(352,680,cs),
(54,680,l),
(54,0,l)
);
},
{
closed = 1;
nodes = (
(216,289,l),
(351,289,ls),
(415,289,o),
(447,263,o),
(447,214,cs),
(447,204,ls),
(447,157,o),
(414,129,o),
(348,129,cs),
(216,129,l)
);
},
{
closed = 1;
nodes = (
(216,551,l),
(338,551,ls),
(400,551,o),
(432,523,o),
(432,483,cs),
(432,473,ls),
(432,436,o),
(403,411,o),
(348,411,cs),
(216,411,l)
);
}
);
userData = {
com.hugojourdan.ColorFlow = {
"0" = 0;
"1" = 0;
"10" = 0;
"11" = 0;
"2" = 0;
"3" = 0;
"4" = 0;
"5" = 0;
"6" = 0;
"7" = 0;
"8" = 0;
"9" = 0;
};
};
width = 649;
},
{
anchors = (
{
name = bottom;
pos = (332,0);
},
{
name = center;
pos = (332,340);
},
{
name = top;
pos = (332,680);
}
);
associatedMasterId = "89695F39-7340-4A9C-8DD1-5D7FBCD503D3";
color = 1;
layerId = "A5A7FB14-E5AB-4C56-AAFB-921002632CD9";
name = "Jun 2, 25 at 16:48";
shapes = (
{
closed = 1;
nodes = (
(358,0,ls),
(530,0,o),
(628,71,o),
(628,189,cs),
(628,199,ls),
(628,301,o),
(551,361,o),
(435,361,c),
(435,352,l),
(542,352,o),
(611,415,o),
(611,499,cs),
(611,509,ls),
(611,611,o),
(523,680,o),
(367,680,cs),
(54,680,l),
(54,0,l)
);
},
{
closed = 1;
nodes = (
(216,292,l),
(366,292,ls),
(430,292,o),
(462,264,o),
(462,212,cs),
(462,202,ls),
(462,152,o),
(429,122,o),
(363,122,cs),
(216,122,l)
);
},
{
closed = 1;
nodes = (
(216,556,l),
(353,556,ls),
(415,556,o),
(447,526,o),
(447,483,cs),
(447,473,ls),
(447,433,o),
(418,406,o),
(363,406,cs),
(216,406,l)
);
}
);
userData = {
com.hugojourdan.ColorFlow = {
"0" = 0;
"1" = 0;
"10" = 0;
"11" = 0;
"2" = 0;
"3" = 0;
"4" = 0;
"5" = 0;
"6" = 0;
"7" = 0;
"8" = 0;
"9" = 0;
};
};
width = 664;
},
{
anchors = (
{
name = bottom;
pos = (332,0);
},
{
name = center;
pos = (332,340);
},
{
name = top;
pos = (332,680);
}
);
associatedMasterId = "89695F39-7340-4A9C-8DD1-5D7FBCD503D3";
layerId = "C12DDB9C-DF5E-4AC7-B208-49846B0FA8DE";
name = "少一點錨點";
shapes = (
{
closed = 1;
nodes = (
(373,0,ls),
(543,0,o),
(628,68,o),
(628,192,cs),
(628,308,o),
(551,366,o),
(435,366,c),
(435,347,l),
(542,347,o),
(611,407,o),
(611,509,cs),
(611,616,o),
(536,680,o),
(382,680,cs),
(54,680,l),
(54,0,l)
);
},
{
closed = 1;
nodes = (
(216,292,l),
(371,292,ls),
(433,292,o),
(462,267,o),
(462,207,cs),
(462,148,o),
(432,122,o),
(368,122,cs),
(216,122,l)
);
},
{
closed = 1;
nodes = (
(216,558,l),
(358,558,ls),
(418,558,o),
(447,531,o),
(447,480,cs),
(447,432,o),
(421,408,o),
(368,408,cs),
(216,408,l)
);
}
);
userData = {
com.hugojourdan.ColorFlow = {
"0" = 0;
"1" = 0;
"10" = 0;
"11" = 0;
"2" = 0;
"3" = 0;
"4" = 0;
"5" = 0;
"6" = 0;
"7" = 0;
"8" = 0;
"9" = 0;
};
};
width = 664;
}
);
metricLeft = "=H";
unicode = 66;
userData = {
KernOnName = B;
};
}
{
glyphname = C;
kernLeft = O;
kernRight = C;
layers = (
{
anchors = (
{
name = bottom;
pos = (371,0);
},
{
name = top;
pos = (371,680);
}
);
background = {
shapes = (
{
pos = (-6,0);
ref = O;
}
);
};
layerId = "C5561BE3-178F-4E91-92CF-CFC72B047BCB";
shapes = (
{
closed = 1;
nodes = (
(53,318,ls),
(53,118,o),
(174,-16,o),
(373,-16,cs),
(537,-16,o),
(646,76,o),
(663,213,c),
(567,213,l),
(553,123,o),
(482,60,o),
(373,60,cs),
(240,60,o),
(149,154,o),
(149,322,cs),
(149,358,ls),
(149,518,o),
(232,620,o),
(372,620,cs),
(479,620,o),
(551,560,o),
(563,475,c),
(661,475,l),
(642,614,o),
(533,696,o),
(379,696,cs),
(180,696,o),
(53,560,o),
(53,354,cs)
);
}
);
userData = {
com.hugojourdan.ColorFlow = {
"0" = 0;
"1" = 0;
"10" = 0;
"11" = 0;
"2" = 0;
"3" = 0;
"4" = 0;
"5" = 0;
"6" = 0;
"7" = 0;
"8" = 0;
"9" = 0;
};
};
width = 716;
},
{
anchors = (
{
name = bottom;
pos = (369,0);
},
{
name = top;
pos = (369,680);
}
);
background = {
shapes = (
{
pos = (4,0);
ref = O;
}
);
};
layerId = "89695F39-7340-4A9C-8DD1-5D7FBCD503D3";
shapes = (
{
closed = 1;
nodes = (
(27,318,ls),
(27,108,o),
(156,-16,o),
(367,-16,cs),
(543,-16,o),
(665,74,o),
(679,233,c),
(511,233,l),
(502,161,o),
(448,120,o),
(367,120,cs),
(266,120,o),
(197,182,o),
(197,322,cs),
(197,358,ls),
(197,491,o),
(260,560,o),
(366,560,cs),
(445,560,o),
(499,523,o),
(507,455,c),
(677,455,l),
(661,617,o),
(539,696,o),
(373,696,cs),
(162,696,o),
(27,570,o),
(27,354,cs)
);
}
);
userData = {
com.hugojourdan.ColorFlow = {
"0" = 0;
"1" = 0;
"10" = 0;
"11" = 0;
"2" = 0;
"3" = 0;
"4" = 0;
"5" = 0;
"6" = 0;
"7" = 0;
"8" = 0;
"9" = 0;
};
};
width = 706;
},
{
anchors = (
{
name = bottom;
pos = (336,0);
},
{
name = top;
pos = (336,680);
}
);
associatedMasterId = "C5561BE3-178F-4E91-92CF-CFC72B047BCB";
color = 0;
layerId = "E33B80A5-1706-48C3-A071-BD62927A11EE";
name = v1;
shapes = (
{
closed = 1;
nodes = (
(515,-10,o),
(607,102,o),
(624,225,c),
(542,225,l),
(527,128,o),
(458,63,o),
(351,63,cs),
(217,63,o),
(128,165,o),
(128,320,cs),
(128,360,ls),
(128,514,o),
(216,617,o),
(351,617,cs),
(457,617,o),
(527,553,o),
(542,455,c),
(624,455,l),
(607,577,o),
(515,690,o),
(351,690,cs),
(174,690,o),
(46,559,o),
(46,340,cs),
(46,122,o),
(174,-10,o),
(351,-10,cs)
);
}
);
userData = {
com.hugojourdan.ColorFlow = {
"0" = 0;
"1" = 0;
"10" = 0;
"11" = 0;
"2" = 0;
"3" = 0;
"4" = 0;
"5" = 0;
"6" = 0;
"7" = 0;
"8" = 0;
"9" = 0;
};
};
width = 668;
},
{
anchors = (
{
name = bottom;
pos = (336,0);
},
{
name = top;
pos = (336,680);
}
);
associatedMasterId = "C5561BE3-178F-4E91-92CF-CFC72B047BCB";
background = {
shapes = (
{
ref = O;
}
);
};
color = 4;
layerId = "C18FF71B-60AD-4AC7-B8B0-4F2C6E180AA5";
name = "Feb 8, 25 at 14:51";
shapes = (
{
closed = 1;
nodes = (
(46,318,ls),
(46,120,o),
(156,-12,o),
(348,-12,cs),
(498,-12,o),
(602,78,o),
(616,213,c),
(533,213,l),
(523,122,o),
(449,58,o),
(348,58,cs),
(209,58,o),
(130,162,o),
(130,315,cs),
(130,365,ls),
(130,519,o),
(206,622,o),
(347,622,cs),
(450,622,o),
(522,562,o),
(529,475,c),
(614,475,l),
(599,610,o),
(494,692,o),
(351,692,cs),
(160,692,o),
(46,558,o),
(46,357,cs)
);
}
);
userData = {
com.hugojourdan.ColorFlow = {
"0" = 0;
"1" = 0;
"10" = 0;
"11" = 0;
"2" = 0;
"3" = 0;
"4" = 0;
"5" = 0;
"6" = 0;
"7" = 0;
"8" = 0;
"9" = 0;
};
};
width = 668;
},
{
anchors = (
{
name = bottom;
pos = (346,0);
},
{
name = top;
pos = (346,680);
}
);
associatedMasterId = "C5561BE3-178F-4E91-92CF-CFC72B047BCB";
background = {
shapes = (
{
pos = (10,0);
ref = O;
}
);
};
color = 0;
layerId = "1E415525-0E84-4AAD-8C5E-149AE2F46FD0";
name = "Apr 23, 25 at 11:49";
shapes = (
{
closed = 1;
nodes = (
(56,318,ls),
(56,120,o),
(169,-12,o),
(366,-12,cs),
(520,-12,o),
(628,78,o),
(642,213,c),
(559,213,l),
(549,122,o),
(471,58,o),
(366,58,cs),
(222,58,o),
(140,162,o),
(140,315,cs),
(140,365,ls),
(140,519,o),
(219,622,o),
(365,622,cs),
(473,622,o),
(548,562,o),
(555,475,c),
(640,475,l),
(625,610,o),
(516,692,o),
(369,692,cs),
(173,692,o),
(56,558,o),
(56,357,cs)
);
}
);
userData = {
com.hugojourdan.ColorFlow = {
"0" = 0;
"1" = 0;
"10" = 0;
"11" = 0;
"2" = 0;
"3" = 0;
"4" = 0;
"5" = 0;
"6" = 0;
"7" = 0;
"8" = 0;
"9" = 0;
};
};
width = 690;
},
{
anchors = (
{
name = bottom;
pos = (346,0);
},
{
name = top;
pos = (346,680);
}
);
associatedMasterId = "C5561BE3-178F-4E91-92CF-CFC72B047BCB";
background = {
shapes = (
{
ref = O;
}
);
};
color = 1;
layerId = "12773AA0-B472-4141-B854-52245F271FB9";
name = "Apr 23, 25 at 17:20";
shapes = (
{
closed = 1;
nodes = (
(56,318,ls),
(56,118,o),
(173,-16,o),
(376,-16,cs),
(536,-16,o),
(647,76,o),
(662,213,c),
(569,213,l),
(557,123,o),
(479,60,o),
(376,60,cs),
(232,60,o),
(150,163,o),
(150,315,cs),
(150,365,ls),
(150,518,o),
(229,620,o),
(375,620,cs),
(481,620,o),
(556,561,o),
(565,475,c),
(660,475,l),
(644,612,o),
(531,696,o),
(379,696,cs),
(177,696,o),
(56,560,o),
(56,357,cs)
);
}
);
userData = {
com.hugojourdan.ColorFlow = {
"0" = 0;
"1" = 0;
"10" = 0;
"11" = 0;
"2" = 0;
"3" = 0;
"4" = 0;
"5" = 0;
"6" = 0;
"7" = 0;
"8" = 0;
"9" = 0;
};
};
width = 720;
},
{
anchors = (
{
name = bottom;
pos = (346,0);
},
{
name = top;
pos = (346,680);
}
);
associatedMasterId = "C5561BE3-178F-4E91-92CF-CFC72B047BCB";
background = {
shapes = (
{
ref = O;
}
);
};
color = 1;
layerId = "8F24D9AA-03D0-40A9-8757-70C7A9196728";
name = "Apr 24, 25 at 22:57";
shapes = (
{
closed = 1;
nodes = (
(54,318,ls),
(54,118,o),
(175,-16,o),
(376,-16,cs),
(537,-16,o),
(647,76,o),
(664,213,c),
(568,213,l),
(554,123,o),
(481,60,o),
(376,60,cs),
(238,60,o),
(150,154,o),
(150,320,cs),
(150,360,ls),
(150,518,o),
(233,620,o),
(373,620,cs),
(480,620,o),
(552,560,o),
(564,475,c),
(662,475,l),
(643,614,o),
(534,696,o),
(379,696,cs),
(181,696,o),
(54,560,o),
(54,357,cs)
);
}
);
userData = {
com.hugojourdan.ColorFlow = {
"0" = 0;
"1" = 0;
"10" = 0;
"11" = 0;
"2" = 0;
"3" = 0;
"4" = 0;
"5" = 0;
"6" = 0;
"7" = 0;
"8" = 0;
"9" = 0;
};
};
width = 720;
},
{
anchors = (
{
name = bottom;
pos = (342,0);
},
{
name = top;
pos = (342,680);
}
);
associatedMasterId = "89695F39-7340-4A9C-8DD1-5D7FBCD503D3";
color = 0;
layerId = "23D4C1BC-2DEE-4E61-9D81-1CB2261EE4C6";
name = v1;
shapes = (
{
closed = 1;
nodes = (
(506,-10,o),
(634,81,o),
(654,255,c),
(488,255,l),
(475,166,o),
(417,130,o),
(348,130,cs),
(251,130,o),
(191,203,o),
(191,325,cs),
(191,355,ls),
(191,476,o),
(250,550,o),
(348,550,cs),
(416,550,o),
(475,513,o),
(488,425,c),
(654,425,l),
(634,600,o),
(506,690,o),
(351,690,cs),
(164,690,o),
(25,558,o),
(25,340,cs),
(25,123,o),
(164,-10,o),
(351,-10,cs)
);
}
);
userData = {
com.hugojourdan.ColorFlow = {
"0" = 0;
"1" = 0;
"10" = 0;
"11" = 0;
"2" = 0;
"3" = 0;
"4" = 0;
"5" = 0;
"6" = 0;
"7" = 0;
"8" = 0;
"9" = 0;
};
};
width = 674;
},
{
anchors = (
{
name = bottom;
pos = (374,0);
},
{
name = top;
pos = (374,680);
}
);
associatedMasterId = "89695F39-7340-4A9C-8DD1-5D7FBCD503D3";
background = {
shapes = (
{
pos = (4,0);
ref = O;
}
);
};
color = 1;
layerId = "1AC32235-DBB0-464F-B735-8FC12C71B5E6";
name = "Jun 2, 25 at 16:43";
shapes = (
{
closed = 1;
nodes = (
(32,318,ls),
(32,118,o),
(161,-16,o),
(372,-16,cs),
(547,-16,o),
(664,84,o),
(682,233,c),
(516,233,l),
(506,167,o),
(453,120,o),
(372,120,cs),
(269,120,o),
(198,192,o),
(198,322,cs),
(198,358,ls),
(198,481,o),
(262,560,o),
(371,560,cs),
(450,560,o),
(503,517,o),
(512,455,c),
(680,455,l),
(660,607,o),
(543,696,o),
(378,696,cs),
(167,696,o),
(32,560,o),
(32,354,cs)
);
}
);
userData = {
com.hugojourdan.ColorFlow = {
"0" = 0;
"1" = 0;
"10" = 0;
"11" = 0;
"2" = 0;
"3" = 0;
"4" = 0;
"5" = 0;
"6" = 0;
"7" = 0;
"8" = 0;
"9" = 0;
};
};
width = 716;
}
);
metricLeft = "=O";
unicode = 67;
userData = {
KernOnName = C;
};
}
{
glyphname = D;
kernLeft = H;
kernRight = D;
layers = (
{
anchors = (
{
name = bottom;
pos = (347,0);
},
{
name = center;
pos = (331,340);
},
{
name = top;
pos = (331,680);
}
);
background = {
shapes = (
{
pos = (-44,0);
ref = O;
}
);
};
layerId = "C5561BE3-178F-4E91-92CF-CFC72B047BCB";
shapes = (
{
closed = 1;
nodes = (
(657,355,ls),
(657,565,o),
(501,680,o),
(297,680,cs),
(89,680,l),
(89,0,l),
(297,0,ls),
(499,0,o),
(657,116,o),
(657,329,cs)
);
},
{
closed = 1;
nodes = (
(181,604,l),
(292,604,ls),
(454,604,o),
(561,508,o),
(561,351,cs),
(561,325,ls),
(561,172,o),
(456,76,o),
(292,76,cs),
(181,76,l)
);
}
);
userData = {
com.hugojourdan.ColorFlow = {
"0" = 0;
"1" = 0;
"10" = 0;
"11" = 0;
"2" = 0;
"3" = 0;
"4" = 0;
"5" = 0;
"6" = 0;
"7" = 0;
"8" = 0;
"9" = 0;
};
};
width = 710;
},
{
anchors = (
{
name = bottom;
pos = (330,0);
},
{
name = center;
pos = (330,340);
},
{
name = top;
pos = (330,680);
}
);
background = {
shapes = (
{
pos = (-48,0);
ref = O;
}
);
};
layerId = "89695F39-7340-4A9C-8DD1-5D7FBCD503D3";
shapes = (
{
closed = 1;
nodes = (
(665,355,ls),
(665,575,o),
(512,680,o),
(313,680,cs),
(49,680,l),
(49,0,l),
(313,0,ls),
(511,0,o),
(665,106,o),
(665,329,cs)
);
},
{
closed = 1;
nodes = (
(211,548,l),
(308,548,ls),
(422,548,o),
(497,483,o),
(497,351,cs),
(497,325,ls),
(497,196,o),
(424,132,o),
(308,132,cs),
(211,132,l)
);
}
);
userData = {
com.hugojourdan.ColorFlow = {
"0" = 0;
"1" = 0;
"10" = 0;
"11" = 0;
"2" = 0;
"3" = 0;
"4" = 0;
"5" = 0;
"6" = 0;
"7" = 0;
"8" = 0;
"9" = 0;
};
};
width = 692;
},
{
anchors = (
{
name = bottom;
pos = (331,0);
},
{
name = center;
pos = (331,340);
},
{
name = top;
pos = (331,680);
}
);
associatedMasterId = "C5561BE3-178F-4E91-92CF-CFC72B047BCB";
color = 0;
layerId = "45355FB0-258E-40E3-80CF-23644F4733C6";
name = v1;
shapes = (
{
closed = 1;
nodes = (
(271,0,ls),
(463,0,o),
(613,118,o),
(613,340,cs),
(613,561,o),
(463,680,o),
(271,680,cs),
(108,680,l),
(108,607,l),
(266,607,ls),
(425,607,o),
(530,508,o),
(530,360,cs),
(530,320,ls),
(530,173,o),
(426,73,o),
(266,73,cs),
(108,73,l),
(108,0,l)
);
},
{
closed = 1;
nodes = (
(154,0,l),
(154,680,l),
(73,680,l),
(73,0,l)
);
}
);
userData = {
com.hugojourdan.ColorFlow = {
"0" = 0;
"1" = 0;
"10" = 0;
"11" = 0;
"2" = 0;
"3" = 0;
"4" = 0;
"5" = 0;
"6" = 0;
"7" = 0;
"8" = 0;
"9" = 0;
};
};
width = 659;
},
{
anchors = (
{
name = bottom;
pos = (331,0);
},
{
name = center;
pos = (331,340);
},
{
name = top;
pos = (331,680);
}
);
associatedMasterId = "C5561BE3-178F-4E91-92CF-CFC72B047BCB";
background = {
shapes = (
{
pos = (-52,0);
ref = O;
}
);
};
color = 0;
layerId = "11BB2C2B-693B-4495-9B1C-ADCC91BD9985";
name = "Apr 23, 25 at 11:50";
shapes = (
{
closed = 1;
nodes = (
(619,359,ls),
(619,565,o),
(468,680,o),
(271,680,cs),
(108,680,l),
(108,610,l),
(266,610,ls),
(428,610,o),
(535,512,o),
(535,365,cs),
(535,315,ls),
(535,168,o),
(430,70,o),
(266,70,cs),
(108,70,l),
(108,0,l),
(271,0,ls),
(466,0,o),
(619,116,o),
(619,325,cs)
);
},
{
closed = 1;
nodes = (
(155,0,l),
(155,680,l),
(73,680,l),
(73,0,l)
);
}
);
userData = {
com.hugojourdan.ColorFlow = {
"0" = 0;
"1" = 0;
"10" = 0;
"11" = 0;
"2" = 0;
"3" = 0;
"4" = 0;
"5" = 0;
"6" = 0;
"7" = 0;
"8" = 0;
"9" = 0;
};
};
width = 675;
},
{
anchors = (
{
name = bottom;
pos = (341,0);
},
{
name = center;
pos = (341,340);
},
{
name = top;
pos = (341,680);
}
);
associatedMasterId = "C5561BE3-178F-4E91-92CF-CFC72B047BCB";
background = {
shapes = (
{
pos = (-42,0);
ref = O;
}
);
};
color = 1;
layerId = "D80B969E-A4F7-4206-A8A4-8D94D220BC14";
name = "Apr 24, 25 at 23:00";
shapes = (
{
closed = 1;
nodes = (
(649,359,ls),
(649,565,o),
(494,680,o),
(291,680,cs),
(118,680,l),
(118,604,l),
(286,604,ls),
(448,604,o),
(555,508,o),
(555,359,cs),
(555,321,ls),
(555,172,o),
(450,76,o),
(286,76,cs),
(118,76,l),
(118,0,l),
(291,0,ls),
(492,0,o),
(649,116,o),
(649,325,cs)
);
},
{
closed = 1;
nodes = (
(175,0,l),
(175,680,l),
(83,680,l),
(83,0,l)
);
}
);
userData = {
com.hugojourdan.ColorFlow = {
"0" = 0;
"1" = 0;
"10" = 0;
"11" = 0;
"2" = 0;
"3" = 0;
"4" = 0;
"5" = 0;
"6" = 0;
"7" = 0;
"8" = 0;
"9" = 0;
};
};
width = 705;
},
{
anchors = (
{
name = bottom;
pos = (332,0);
},
{
name = center;
pos = (332,340);
},
{
name = top;
pos = (332,680);
}
);
associatedMasterId = "89695F39-7340-4A9C-8DD1-5D7FBCD503D3";
color = 0;
layerId = "892694E7-ACB3-4083-B808-B7F00C5C6DF8";
name = v1;
shapes = (
{
closed = 1;
nodes = (
(295,0,ls),
(498,0,o),
(633,128,o),
(633,340,cs),
(633,551,o),
(498,680,o),
(295,680,cs),
(82,680,l),
(82,538,l),
(293,538,ls),
(405,538,o),
(467,465,o),
(467,350,cs),
(467,330,ls),
(467,216,o),
(406,142,o),
(293,142,cs),
(82,142,l),
(82,0,l)
);
},
{
closed = 1;
nodes = (
(207,0,l),
(207,680,l),
(47,680,l),
(47,0,l)
);
}
);
userData = {
com.hugojourdan.ColorFlow = {
"0" = 0;
"1" = 0;
"10" = 0;
"11" = 0;
"2" = 0;
"3" = 0;
"4" = 0;
"5" = 0;
"6" = 0;
"7" = 0;
"8" = 0;
"9" = 0;
};
};
width = 659;
},
{
anchors = (
{
name = bottom;
pos = (332,0);
},
{
name = center;
pos = (332,340);
},
{
name = top;
pos = (332,680);
}
);
associatedMasterId = "89695F39-7340-4A9C-8DD1-5D7FBCD503D3";
background = {
shapes = (
{
pos = (-48,0);
ref = O;
}
);
};
color = 1;
layerId = "7A98818D-A7CD-4941-97BC-F1F4CCBFD108";
name = "Jun 2, 25 at 16:46";
shapes = (
{
closed = 1;
nodes = (
(662,355,ls),
(662,565,o),
(510,680,o),
(312,680,cs),
(54,680,l),
(54,0,l),
(312,0,ls),
(509,0,o),
(662,116,o),
(662,329,cs)
);
},
{
closed = 1;
nodes = (
(216,645,l),
(176,548,l),
(307,548,ls),
(421,548,o),
(496,473,o),
(496,351,cs),
(496,325,ls),
(496,206,o),
(423,132,o),
(307,132,cs),
(176,132,l),
(216,36,l)
);
}
);
userData = {
com.hugojourdan.ColorFlow = {
"0" = 0;
"1" = 0;
"10" = 0;
"11" = 0;
"2" = 0;
"3" = 0;
"4" = 0;
"5" = 0;
"6" = 0;
"7" = 0;
"8" = 0;
"9" = 0;
};
};
width = 694;
}
);
metricLeft = "=H";
metricRight = "=O";
unicode = 68;
}
{
glyphname = E;
kernLeft = H;
kernRight = E;
layers = (
{
anchors = (
{
name = bottom;
pos = (307,0);
},
{
name = ogonek;
pos = (539,0);
},
{
name = top;
pos = (307,680);
},
{
name = topleft;
pos = (89,680);
}
);
layerId = "C5561BE3-178F-4E91-92CF-CFC72B047BCB";
shapes = (
{
closed = 1;
nodes = (
(539,0,l),
(539,76,l),
(181,76,l),
(181,314,l),
(514,314,l),
(514,390,l),
(181,390,l),
(181,604,l),
(539,604,l),
(539,680,l),
(89,680,l),
(89,0,l)
);
}
);
userData = {
com.hugojourdan.ColorFlow = {
"0" = 0;
"1" = 0;
"10" = 0;
"11" = 0;
"2" = 0;
"3" = 0;
"4" = 0;
"5" = 0;
"6" = 0;
"7" = 0;
"8" = 0;
"9" = 0;
};
};
width = 596;
},
{
anchors = (
{
name = bottom;
pos = (295,0);
},
{
name = ogonek;
pos = (549,0);
},
{
name = top;
pos = (295,680);
},
{
name = topleft;
pos = (49,680);
}
);
layerId = "89695F39-7340-4A9C-8DD1-5D7FBCD503D3";
shapes = (
{
closed = 1;
nodes = (
(549,0,l),
(549,136,l),
(213,136,l),
(213,283,l),
(524,283,l),
(524,417,l),
(213,417,l),
(213,544,l),
(549,544,l),
(549,680,l),
(49,680,l),
(49,0,l)
);
}
);
userData = {
com.hugojourdan.ColorFlow = {
"0" = 0;
"1" = 0;
"10" = 0;
"11" = 0;
"2" = 0;
"3" = 0;
"4" = 0;
"5" = 0;
"6" = 0;
"7" = 0;
"8" = 0;
"9" = 0;
};
};
width = 590;
},
{
anchors = (
{
name = bottom;
pos = (293,0);
},
{
name = ogonek;
pos = (523,0);
},
{
name = top;
pos = (293,680);
},
{
name = topleft;
pos = (20,680);
}
);
associatedMasterId = "C5561BE3-178F-4E91-92CF-CFC72B047BCB";
color = 0;
layerId = "AD69DB54-7961-48E7-8B3B-24C00D019279";
name = "Feb 8, 25 at 21:46";
shapes = (
{
closed = 1;
nodes = (
(154,0,l),
(154,680,l),
(73,680,l),
(73,0,l)
);
},
{
closed = 1;
nodes = (
(490,313,l),
(490,386,l),
(108,386,l),
(108,313,l)
);
},
{
closed = 1;
nodes = (
(520,607,l),
(520,680,l),
(108,680,l),
(108,607,l)
);
},
{
closed = 1;
nodes = (
(520,0,l),
(520,73,l),
(108,73,l),
(108,0,l)
);
}
);
userData = {
com.hugojourdan.ColorFlow = {
"0" = 0;
"1" = 0;
"10" = 0;
"11" = 0;
"2" = 0;
"3" = 0;
"4" = 0;
"5" = 0;
"6" = 0;
"7" = 0;
"8" = 0;
"9" = 0;
};
};
width = 574;
},
{
anchors = (
{
name = bottom;
pos = (293,0);
},
{
name = ogonek;
pos = (523,0);
},
{
name = top;
pos = (293,680);
},
{
name = topleft;
pos = (20,680);
}
);
associatedMasterId = "C5561BE3-178F-4E91-92CF-CFC72B047BCB";
color = 0;
layerId = "EFAFB2DA-A112-49CA-8854-7A42E578C88F";
name = "Apr 23, 25 at 11:35";
shapes = (
{
closed = 1;
nodes = (
(155,0,l),
(155,680,l),
(73,680,l),
(73,0,l)
);
},
{
closed = 1;
nodes = (
(498,316,l),
(498,386,l),
(108,386,l),
(108,316,l)
);
},
{
closed = 1;
nodes = (
(513,610,l),
(513,680,l),
(108,680,l),
(108,610,l)
);
},
{
closed = 1;
nodes = (
(513,0,l),
(513,70,l),
(108,70,l),
(108,0,l)
);
}
);
userData = {
com.hugojourdan.ColorFlow = {
"0" = 0;
"1" = 0;
"10" = 0;
"11" = 0;
"2" = 0;
"3" = 0;
"4" = 0;
"5" = 0;
"6" = 0;
"7" = 0;
"8" = 0;
"9" = 0;
};
};
width = 574;
},
{
anchors = (
{
name = bottom;
pos = (286,0);
},
{
name = ogonek;
pos = (537,0);
},
{
name = top;
pos = (286,680);
},
{
name = topleft;
pos = (20,680);
}
);
associatedMasterId = "89695F39-7340-4A9C-8DD1-5D7FBCD503D3";
color = 0;
layerId = "366979E8-18AF-4BE4-9DCF-686A45E47E68";
name = "Apr 28, 25 at 10:14";
shapes = (
{
closed = 1;
nodes = (
(207,0,l),
(207,680,l),
(47,680,l),
(47,0,l)
);
},
{
closed = 1;
nodes = (
(508,277,l),
(508,413,l),
(82,413,l),
(82,277,l)
);
},
{
closed = 1;
nodes = (
(533,538,l),
(533,680,l),
(82,680,l),
(82,538,l)
);
},
{
closed = 1;
nodes = (
(533,0,l),
(533,142,l),
(82,142,l),
(82,0,l)
);
}
);
userData = {
com.hugojourdan.ColorFlow = {
"0" = 0;
"1" = 0;
"10" = 0;
"11" = 0;
"2" = 0;
"3" = 0;
"4" = 0;
"5" = 0;
"6" = 0;
"7" = 0;
"8" = 0;
"9" = 0;
};
};
width = 568;
}
);
metricLeft = "=H";
unicode = 69;
userData = {
KernOnName = E;
};
}
{
glyphname = F;
kernLeft = H;
kernRight = F;
layers = (
{
anchors = (
{
name = bottom;
pos = (308,0);
},
{
name = top;
pos = (308,680);
}
);
layerId = "C5561BE3-178F-4E91-92CF-CFC72B047BCB";
shapes = (
{
closed = 1;
nodes = (
(186,0,l),
(186,302,l),
(519,302,l),
(519,378,l),
(186,378,l),
(186,604,l),
(529,604,l),
(529,680,l),
(94,680,l),
(94,0,l)
);
}
);
userData = {
com.hugojourdan.ColorFlow = {
"0" = 0;
"1" = 0;
"10" = 0;
"11" = 0;
"2" = 0;
"3" = 0;
"4" = 0;
"5" = 0;
"6" = 0;
"7" = 0;
"8" = 0;
"9" = 0;
};
};
width = 575;
},
{
anchors = (
{
name = bottom;
pos = (272,0);
},
{
name = top;
pos = (272,680);
}
);
layerId = "89695F39-7340-4A9C-8DD1-5D7FBCD503D3";
shapes = (
{
closed = 1;
nodes = (
(218,0,l),
(218,272,l),
(526,272,l),
(526,406,l),
(218,406,l),
(218,544,l),
(535,544,l),
(535,680,l),
(54,680,l),
(54,0,l)
);
}
);
userData = {
com.hugojourdan.ColorFlow = {
"0" = 0;
"1" = 0;
"10" = 0;
"11" = 0;
"2" = 0;
"3" = 0;
"4" = 0;
"5" = 0;
"6" = 0;
"7" = 0;
"8" = 0;
"9" = 0;
};
};
width = 577;
},
{
anchors = (
{
name = bottom;
pos = (287,0);
},
{
name = top;
pos = (287,680);
}
);
associatedMasterId = "C5561BE3-178F-4E91-92CF-CFC72B047BCB";
color = 0;
layerId = "9AAEE254-0C29-4E25-9AB0-8E763E8C438B";
name = "Apr 23, 25 at 11:37";
shapes = (
{
closed = 1;
nodes = (
(155,0,l),
(155,306,l),
(488,306,l),
(488,376,l),
(155,376,l),
(155,610,l),
(498,610,l),
(498,680,l),
(73,680,l),
(73,0,l)
);
}
);
userData = {
com.hugojourdan.ColorFlow = {
"0" = 0;
"1" = 0;
"10" = 0;
"11" = 0;
"2" = 0;
"3" = 0;
"4" = 0;
"5" = 0;
"6" = 0;
"7" = 0;
"8" = 0;
"9" = 0;
};
};
width = 547;
},
{
anchors = (
{
name = bottom;
pos = (265,0);
},
{
name = top;
pos = (265,680);
}
);
associatedMasterId = "89695F39-7340-4A9C-8DD1-5D7FBCD503D3";
color = 0;
layerId = "6FA08591-FA5A-4E00-9E08-CBF5A4A71391";
name = v1;
shapes = (
{
closed = 1;
nodes = (
(207,0,l),
(207,680,l),
(47,680,l),
(47,0,l)
);
},
{
closed = 1;
nodes = (
(493,264,l),
(493,400,l),
(82,400,l),
(82,264,l)
);
},
{
closed = 1;
nodes = (
(502,535,l),
(502,680,l),
(82,680,l),
(82,535,l)
);
}
);
userData = {
com.hugojourdan.ColorFlow = {
"0" = 0;
"1" = 0;
"10" = 0;
"11" = 0;
"2" = 0;
"3" = 0;
"4" = 0;
"5" = 0;
"6" = 0;
"7" = 0;
"8" = 0;
"9" = 0;
};
};
width = 526;
}
);
metricLeft = "=H";
unicode = 70;
userData = {
KernOnName = F;
};
}
{
glyphname = G;
kernLeft = O;
kernRight = G;
layers = (
{
anchors = (
{
name = bottom;
pos = (368,0);
},
{
name = top;
pos = (368,680);
}
);
background = {
shapes = (
{
ref = C;
},
{
ref = O;
}
);
};
layerId = "C5561BE3-178F-4E91-92CF-CFC72B047BCB";
shapes = (
{
closed = 1;
nodes = (
(534,-16,o),
(620,101,o),
(620,261,c),
(590,261,l),
(590,0,l),
(672,0,l),
(672,365,l),
(368,365,l),
(368,289,l),
(627,289,l),
(580,325,l),
(580,260,ls),
(580,157,o),
(511,60,o),
(374,60,cs),
(235,60,o),
(150,162,o),
(150,322,cs),
(150,358,ls),
(150,522,o),
(236,620,o),
(376,620,cs),
(481,620,o),
(553,564,o),
(571,484,c),
(667,484,l),
(647,607,o),
(548,696,o),
(383,696,cs),
(187,696,o),
(54,568,o),
(54,349,cs),
(54,313,ls),
(54,117,o),
(175,-16,o),
(361,-16,cs)
);
}
);
userData = {
com.hugojourdan.ColorFlow = {
"0" = 0;
"1" = 0;
"10" = 0;
"11" = 0;
"2" = 0;
"3" = 0;
"4" = 0;
"5" = 0;
"6" = 0;
"7" = 0;
"8" = 0;
"9" = 0;
};
};
width = 744;
},
{
anchors = (
{
name = bottom;
pos = (375,0);
},
{
name = top;
pos = (374,680);
}
);
background = {
shapes = (
{
pos = (4,0);
ref = O;
},
{
pos = (4,0);
ref = C;
}
);
};
layerId = "89695F39-7340-4A9C-8DD1-5D7FBCD503D3";
shapes = (
{
closed = 1;
nodes = (
(522,-16,o),
(590,90,o),
(590,277,c),
(553,277,l),
(553,0,l),
(690,0,l),
(690,384,l),
(361,384,l),
(361,260,l),
(625,260,l),
(528,320,l),
(528,264,ls),
(528,173,o),
(475,116,o),
(372,116,cs),
(261,116,o),
(202,187,o),
(202,322,cs),
(202,358,ls),
(202,494,o),
(268,564,o),
(375,564,cs),
(450,564,o),
(508,532,o),
(518,474,c),
(686,474,l),
(667,611,o),
(560,696,o),
(384,696,cs),
(179,696,o),
(32,576,o),
(32,349,cs),
(32,313,ls),
(32,107,o),
(149,-16,o),
(342,-16,cs)
);
}
);
userData = {
com.hugojourdan.ColorFlow = {
"0" = 0;
"1" = 0;
"10" = 0;
"11" = 0;
"2" = 0;
"3" = 0;
"4" = 0;
"5" = 0;
"6" = 0;
"7" = 0;
"8" = 0;
"9" = 0;
};
};
width = 732;
},
{
anchors = (
{
name = bottom;
pos = (346,0);
},
{
name = top;
pos = (346,680);
}
);
associatedMasterId = "C5561BE3-178F-4E91-92CF-CFC72B047BCB";
color = 0;
layerId = "9B181BA9-C4F1-4275-AF61-0EA50638E9F1";
name = v1;
shapes = (
{
closed = 1;
nodes = (
(488,-10,o),
(578,79,o),
(578,228,c),
(565,168,l),
(568,0,l),
(632,0,l),
(632,356,l),
(348,356,l),
(348,287,l),
(617,287,l),
(551,350,l),
(551,265,ls),
(551,150,o),
(472,63,o),
(348,63,cs),
(214,63,o),
(128,165,o),
(128,320,cs),
(128,360,ls),
(128,514,o),
(219,617,o),
(353,617,cs),
(460,617,o),
(526,551,o),
(542,475,c),
(625,475,l),
(607,587,o),
(511,690,o),
(353,690,cs),
(178,690,o),
(46,559,o),
(46,340,cs),
(46,122,o),
(171,-10,o),
(345,-10,cs)
);
}
);
userData = {
com.hugojourdan.ColorFlow = {
"0" = 0;
"1" = 0;
"10" = 0;
"11" = 0;
"2" = 0;
"3" = 0;
"4" = 0;
"5" = 0;
"6" = 0;
"7" = 0;
"8" = 0;
"9" = 0;
};
};
width = 695;
},
{
anchors = (
{
name = bottom;
pos = (356,0);
},
{
name = top;
pos = (356,680);
}
);
associatedMasterId = "C5561BE3-178F-4E91-92CF-CFC72B047BCB";
background = {
shapes = (
{
pos = (8,0);
ref = C;
},
{
pos = (8,0);
ref = O;
}
);
};
color = 0;
layerId = "C42C47D0-00E9-49AD-9223-21E5DB8259C6";
name = "Apr 23, 25 at 11:52";
shapes = (
{
closed = 1;
nodes = (
(56,313,ls),
(56,117,o),
(171,-12,o),
(355,-12,cs),
(503,-12,o),
(596,73,o),
(596,216,c),
(578,168,l),
(578,0,l),
(650,0,l),
(650,356,l),
(358,356,l),
(358,288,l),
(635,288,l),
(572,350,l),
(572,255,ls),
(572,143,o),
(489,58,o),
(358,58,cs),
(225,58,o),
(140,160,o),
(140,311,cs),
(140,361,ls),
(140,523,o),
(227,622,o),
(370,622,cs),
(473,622,o),
(543,569,o),
(563,484,c),
(646,484,l),
(625,606,o),
(533,692,o),
(375,692,cs),
(186,692,o),
(56,565,o),
(56,353,cs)
);
}
);
userData = {
com.hugojourdan.ColorFlow = {
"0" = 0;
"1" = 0;
"10" = 0;
"11" = 0;
"2" = 0;
"3" = 0;
"4" = 0;
"5" = 0;
"6" = 0;
"7" = 0;
"8" = 0;
"9" = 0;
};
};
width = 718;
},
{
anchors = (
{
name = bottom;
pos = (356,0);
},
{
name = top;
pos = (356,680);
}
);
associatedMasterId = "C5561BE3-178F-4E91-92CF-CFC72B047BCB";
background = {
shapes = (
{
ref = C;
},
{
ref = O;
}
);
};
color = 1;
layerId = "3C2C3E79-C38E-40E4-8159-577BC1C04DE2";
name = "Apr 24, 25 at 23:09";
shapes = (
{
closed = 1;
nodes = (
(56,313,ls),
(56,116,o),
(176,-16,o),
(365,-16,cs),
(519,-16,o),
(611,70,o),
(611,216,c),
(588,168,l),
(588,0,l),
(670,0,l),
(670,359,l),
(368,359,l),
(368,285,l),
(645,285,l),
(582,350,l),
(582,255,ls),
(582,144,o),
(499,60,o),
(368,60,cs),
(236,60,o),
(150,162,o),
(150,311,cs),
(150,361,ls),
(150,522,o),
(237,620,o),
(380,620,cs),
(482,620,o),
(553,567,o),
(572,484,c),
(666,484,l),
(644,608,o),
(546,696,o),
(382,696,cs),
(187,696,o),
(56,568,o),
(56,353,cs)
);
}
);
userData = {
com.hugojourdan.ColorFlow = {
"0" = 0;
"1" = 0;
"10" = 0;
"11" = 0;
"2" = 0;
"3" = 0;
"4" = 0;
"5" = 0;
"6" = 0;
"7" = 0;
"8" = 0;
"9" = 0;
};
};
width = 734;
},
{
anchors = (
{
name = bottom;
pos = (342,0);
},
{
name = top;
pos = (342,680);
}
);
associatedMasterId = "89695F39-7340-4A9C-8DD1-5D7FBCD503D3";
color = 0;
layerId = "D6B7690A-DEED-400B-B4FF-C092AE209B7C";
name = v1;
shapes = (
{
closed = 1;
nodes = (
(473,-10,o),
(564,86,o),
(564,240,c),
(525,178,l),
(533,0,l),
(650,0,l),
(650,380,l),
(358,380,l),
(358,248,l),
(615,248,l),
(497,330,l),
(497,265,ls),
(497,174,o),
(432,125,o),
(352,125,cs),
(251,125,o),
(191,201,o),
(191,325,cs),
(191,355,ls),
(191,479,o),
(251,553,o),
(349,553,cs),
(414,553,o),
(468,520,o),
(482,448,c),
(648,448,l),
(620,599,o),
(508,690,o),
(351,690,cs),
(164,690,o),
(25,558,o),
(25,340,cs),
(25,122,o),
(160,-10,o),
(329,-10,cs)
);
}
);
userData = {
com.hugojourdan.ColorFlow = {
"0" = 0;
"1" = 0;
"10" = 0;
"11" = 0;
"2" = 0;
"3" = 0;
"4" = 0;
"5" = 0;
"6" = 0;
"7" = 0;
"8" = 0;
"9" = 0;
};
};
width = 686;
},
{
anchors = (
{
name = bottom;
pos = (368,0);
},
{
name = top;
pos = (368,680);
}
);
associatedMasterId = "C5561BE3-178F-4E91-92CF-CFC72B047BCB";
background = {
shapes = (
{
ref = C;
},
{
ref = O;
}
);
};
color = 4;
layerId = "CD4E7D66-F09D-4210-B8E2-9BD5972E5B78";
name = "May 5, 25 at 13:53";
shapes = (
{
closed = 1;
nodes = (
(54,313,ls),
(54,117,o),
(176,-16,o),
(363,-16,cs),
(517,-16,o),
(614,79,o),
(614,210,c),
(588,168,l),
(588,0,l),
(670,0,l),
(670,354,l),
(368,354,l),
(368,280,l),
(625,280,l),
(582,325,l),
(582,260,ls),
(582,146,o),
(499,60,o),
(373,60,cs),
(236,60,o),
(150,162,o),
(150,322,cs),
(150,358,ls),
(150,522,o),
(236,620,o),
(376,620,cs),
(481,620,o),
(553,564,o),
(571,484,c),
(667,484,l),
(647,607,o),
(548,696,o),
(383,696,cs),
(187,696,o),
(54,568,o),
(54,349,cs)
);
}
);
userData = {
com.hugojourdan.ColorFlow = {
"0" = 0;
"1" = 0;
"10" = 0;
"11" = 0;
"2" = 0;
"3" = 0;
"4" = 0;
"5" = 0;
"6" = 0;
"7" = 0;
"8" = 0;
"9" = 0;
};
};
width = 742;
},
{
anchors = (
{
name = bottom;
pos = (368,0);
},
{
name = top;
pos = (368,680);
}
);
associatedMasterId = "C5561BE3-178F-4E91-92CF-CFC72B047BCB";
background = {
shapes = (
{
ref = C;
},
{
ref = O;
}
);
};
color = 4;
layerId = "7373D74D-0213-4AE8-B32B-027538484AAA";
name = Spurless;
shapes = (
{
closed = 1;
nodes = (
(54,313,ls),
(54,117,o),
(179,-16,o),
(380,-16,cs),
(566,-16,o),
(672,97,o),
(672,262,cs),
(672,365,l),
(368,365,l),
(368,289,l),
(627,289,l),
(580,325,l),
(580,260,ls),
(580,146,o),
(517,60,o),
(385,60,cs),
(241,60,o),
(150,162,o),
(150,322,cs),
(150,358,ls),
(150,522,o),
(236,620,o),
(376,620,cs),
(481,620,o),
(553,564,o),
(571,484,c),
(667,484,l),
(647,607,o),
(548,696,o),
(383,696,cs),
(187,696,o),
(54,568,o),
(54,349,cs)
);
}
);
userData = {
com.hugojourdan.ColorFlow = {
"0" = 0;
"1" = 0;
"10" = 0;
"11" = 0;
"2" = 0;
"3" = 0;
"4" = 0;
"5" = 0;
"6" = 0;
"7" = 0;
"8" = 0;
"9" = 0;
};
};
width = 742;
},
{
anchors = (
{
name = bottom;
pos = (340,0);
},
{
name = top;
pos = (340,680);
}
);
associatedMasterId = "89695F39-7340-4A9C-8DD1-5D7FBCD503D3";
background = {
shapes = (
{
pos = (4,0);
ref = O;
},
{
pos = (4,0);
ref = C;
}
);
};
color = 1;
layerId = "BA283837-7F84-40D8-89F4-3694D19D92C0";
name = "Spurless G";
shapes = (
{
closed = 1;
nodes = (
(32,313,ls),
(32,117,o),
(160,-16,o),
(374,-16,cs),
(572,-16,o),
(690,98,o),
(690,277,cs),
(690,380,l),
(361,380,l),
(361,264,l),
(625,264,l),
(528,320,l),
(528,275,ls),
(528,182,o),
(479,116,o),
(379,116,cs),
(268,116,o),
(198,197,o),
(198,322,cs),
(198,358,ls),
(198,484,o),
(266,564,o),
(375,564,cs),
(449,564,o),
(503,527,o),
(516,474,c),
(682,474,l),
(661,603,o),
(558,696,o),
(384,696,cs),
(179,696,o),
(32,566,o),
(32,349,cs)
);
}
);
userData = {
com.hugojourdan.ColorFlow = {
"0" = 0;
"1" = 0;
"10" = 0;
"11" = 0;
"2" = 0;
"3" = 0;
"4" = 0;
"5" = 0;
"6" = 0;
"7" = 0;
"8" = 0;
"9" = 0;
};
};
width = 728;
},
{
anchors = (
{
name = bottom;
pos = (375,0);
},
{
name = top;
pos = (374,680);
}
);
associatedMasterId = "89695F39-7340-4A9C-8DD1-5D7FBCD503D3";
background = {
shapes = (
{
pos = (4,0);
ref = O;
},
{
pos = (4,0);
ref = C;
}
);
};
color = 1;
layerId = "4FFF2EE2-58E9-480D-80F7-DD06FD5CC114";
name = "Jun 2, 25 at 16:45";
shapes = (
{
closed = 1;
nodes = (
(522,-16,o),
(605,98,o),
(605,277,c),
(553,277,l),
(553,0,l),
(690,0,l),
(690,380,l),
(361,380,l),
(361,264,l),
(625,264,l),
(528,320,l),
(528,264,ls),
(528,181,o),
(475,116,o),
(372,116,cs),
(258,116,o),
(198,197,o),
(198,322,cs),
(198,358,ls),
(198,484,o),
(266,564,o),
(375,564,cs),
(449,564,o),
(503,527,o),
(516,474,c),
(682,474,l),
(661,603,o),
(558,696,o),
(384,696,cs),
(179,696,o),
(32,566,o),
(32,349,cs),
(32,313,ls),
(32,117,o),
(149,-16,o),
(342,-16,cs)
);
}
);
userData = {
com.hugojourdan.ColorFlow = {
"0" = 0;
"1" = 0;
"10" = 0;
"11" = 0;
"2" = 0;
"3" = 0;
"4" = 0;
"5" = 0;
"6" = 0;
"7" = 0;
"8" = 0;
"9" = 0;
};
};
width = 728;
}
);
metricLeft = "=O";
unicode = 71;
userData = {
KernOnName = G;
};
}
{
glyphname = H;
kernLeft = H;
kernRight = H;
layers = (
{
anchors = (
{
name = bottom;
pos = (370,0);
},
{
name = center;
pos = (370,352);
},
{
name = top;
pos = (370,680);
},
{
name = topleft;
pos = (95,680);
}
);
layerId = "C5561BE3-178F-4E91-92CF-CFC72B047BCB";
shapes = (
{
closed = 1;
nodes = (
(186,0,l),
(186,314,l),
(556,314,l),
(556,0,l),
(648,0,l),
(648,680,l),
(556,680,l),
(556,390,l),
(186,390,l),
(186,680,l),
(94,680,l),
(94,0,l)
);
}
);
userData = {
com.hugojourdan.ColorFlow = {
"0" = 0;
"1" = 0;
"10" = 0;
"11" = 0;
"2" = 0;
"3" = 0;
"4" = 0;
"5" = 0;
"6" = 0;
"7" = 0;
"8" = 0;
"9" = 0;
};
};
width = 742;
},
{
anchors = (
{
name = bottom;
pos = (343,0);
},
{
name = center;
pos = (343,340);
},
{
name = top;
pos = (343,680);
},
{
name = topleft;
pos = (20,680);
}
);
associatedMasterId = "C5561BE3-178F-4E91-92CF-CFC72B047BCB";
color = 0;
layerId = "75B5DB3A-3DAC-47FF-B620-14E66223A083";
name = v1;
shapes = (
{
closed = 1;
nodes = (
(154,0,l),
(154,680,l),
(73,680,l),
(73,0,l)
);
},
{
closed = 1;
nodes = (
(577,313,l),
(577,386,l),
(108,386,l),
(108,313,l)
);
},
{
closed = 1;
nodes = (
(612,0,l),
(612,680,l),
(532,680,l),
(532,0,l)
);
}
);
userData = {
com.hugojourdan.ColorFlow = {
"0" = 0;
"1" = 0;
"10" = 0;
"11" = 0;
"2" = 0;
"3" = 0;
"4" = 0;
"5" = 0;
"6" = 0;
"7" = 0;
"8" = 0;
"9" = 0;
};
};
width = 685;
},
{
anchors = (
{
name = bottom;
pos = (354,0);
},
{
name = center;
pos = (354,340);
},
{
name = top;
pos = (354,680);
},
{
name = topleft;
pos = (54,680);
}
);
layerId = "89695F39-7340-4A9C-8DD1-5D7FBCD503D3";
shapes = (
{
closed = 1;
nodes = (
(218,0,l),
(218,283,l),
(490,283,l),
(490,0,l),
(654,0,l),
(654,680,l),
(490,680,l),
(490,421,l),
(218,421,l),
(218,680,l),
(54,680,l),
(54,0,l)
);
}
);
userData = {
com.hugojourdan.ColorFlow = {
"0" = 0;
"1" = 0;
"10" = 0;
"11" = 0;
"2" = 0;
"3" = 0;
"4" = 0;
"5" = 0;
"6" = 0;
"7" = 0;
"8" = 0;
"9" = 0;
};
};
width = 708;
},
{
anchors = (
{
name = bottom;
pos = (343,0);
},
{
name = center;
pos = (343,340);
},
{
name = top;
pos = (343,680);
},
{
name = topleft;
pos = (20,680);
}
);
associatedMasterId = "C5561BE3-178F-4E91-92CF-CFC72B047BCB";
color = 4;
layerId = "447C7368-42A9-478A-992D-E38FF765005A";
name = "Feb 8, 25 at 14:51";
shapes = (
{
closed = 1;
nodes = (
(155,0,l),
(155,680,l),
(73,680,l),
(73,0,l)
);
},
{
closed = 1;
nodes = (
(577,315,l),
(577,385,l),
(108,385,l),
(108,315,l)
);
},
{
closed = 1;
nodes = (
(612,0,l),
(612,680,l),
(530,680,l),
(530,0,l)
);
}
);
userData = {
com.hugojourdan.ColorFlow = {
"0" = 0;
"1" = 0;
"10" = 0;
"11" = 0;
"2" = 0;
"3" = 0;
"4" = 0;
"5" = 0;
"6" = 0;
"7" = 0;
"8" = 0;
"9" = 0;
};
};
width = 685;
},
{
anchors = (
{
name = bottom;
pos = (343,0);
},
{
name = center;
pos = (343,340);
},
{
name = top;
pos = (343,680);
},
{
name = topleft;
pos = (20,680);
}
);
associatedMasterId = "C5561BE3-178F-4E91-92CF-CFC72B047BCB";
color = 0;
layerId = "DAA178B6-62EC-4F32-A148-A6520B0AA52D";
name = "Apr 23, 25 at 11:28";
shapes = (
{
closed = 1;
nodes = (
(155,0,l),
(155,680,l),
(73,680,l),
(73,0,l)
);
},
{
closed = 1;
nodes = (
(583,315,l),
(583,385,l),
(108,385,l),
(108,315,l)
);
},
{
closed = 1;
nodes = (
(618,0,l),
(618,680,l),
(536,680,l),
(536,0,l)
);
}
);
userData = {
com.hugojourdan.ColorFlow = {
"0" = 0;
"1" = 0;
"10" = 0;
"11" = 0;
"2" = 0;
"3" = 0;
"4" = 0;
"5" = 0;
"6" = 0;
"7" = 0;
"8" = 0;
"9" = 0;
};
};
width = 691;
},
{
anchors = (
{
name = bottom;
pos = (333,0);
},
{
name = center;
pos = (333,340);
},
{
name = top;
pos = (333,680);
},
{
name = topleft;
pos = (20,680);
}
);
associatedMasterId = "89695F39-7340-4A9C-8DD1-5D7FBCD503D3";
color = 0;
layerId = "D3A0CEB7-7D81-4C2A-B380-71E1A04312C1";
name = v1;
shapes = (
{
closed = 1;
nodes = (
(207,0,l),
(207,680,l),
(47,680,l),
(47,0,l)
);
},
{
closed = 1;
nodes = (
(585,273,l),
(585,418,l),
(82,418,l),
(82,273,l)
);
},
{
closed = 1;
nodes = (
(620,0,l),
(620,680,l),
(460,680,l),
(460,0,l)
);
}
);
userData = {
com.hugojourdan.ColorFlow = {
"0" = 0;
"1" = 0;
"10" = 0;
"11" = 0;
"2" = 0;
"3" = 0;
"4" = 0;
"5" = 0;
"6" = 0;
"7" = 0;
"8" = 0;
"9" = 0;
};
};
width = 666;
}
);
metricRight = "=|";
unicode = 72;
userData = {
KernOnName = H;
};
}
{
glyphname = I;
kernLeft = H;
kernRight = H;
layers = (
{
anchors = (
{
name = bottom;
pos = (135,0);
},
{
name = ogonek;
pos = (181,0);
},
{
name = top;
pos = (135,680);
},
{
name = topleft;
pos = (90,680);
}
);
layerId = "C5561BE3-178F-4E91-92CF-CFC72B047BCB";
shapes = (
{
closed = 1;
nodes = (
(181,0,l),
(181,680,l),
(89,680,l),
(89,0,l)
);
}
);
userData = {
com.hugojourdan.ColorFlow = {
"0" = 0;
"1" = 0;
"10" = 0;
"11" = 0;
"2" = 0;
"3" = 0;
"4" = 0;
"5" = 0;
"6" = 0;
"7" = 0;
"8" = 0;
"9" = 0;
};
};
width = 270;
},
{
anchors = (
{
name = bottom;
pos = (131,0);
},
{
name = ogonek;
pos = (213,0);
},
{
name = top;
pos = (131,680);
},
{
name = topleft;
pos = (49,680);
}
);
layerId = "89695F39-7340-4A9C-8DD1-5D7FBCD503D3";
shapes = (
{
closed = 1;
nodes = (
(213,0,l),
(213,680,l),
(49,680,l),
(49,0,l)
);
}
);
userData = {
com.hugojourdan.ColorFlow = {
"0" = 0;
"1" = 0;
"10" = 0;
"11" = 0;
"2" = 0;
"3" = 0;
"4" = 0;
"5" = 0;
"6" = 0;
"7" = 0;
"8" = 0;
"9" = 0;
};
};
width = 262;
},
{
anchors = (
{
name = bottom;
pos = (113,0);
},
{
name = ogonek;
pos = (153,0);
},
{
name = top;
pos = (113,680);
},
{
name = topleft;
pos = (20,680);
}
);
associatedMasterId = "C5561BE3-178F-4E91-92CF-CFC72B047BCB";
color = 0;
layerId = "B0CBF602-EEF1-416C-974E-1346B2EAFA5A";
name = "Apr 23, 25 at 11:38";
shapes = (
{
closed = 1;
nodes = (
(155,0,l),
(155,680,l),
(73,680,l),
(73,0,l)
);
}
);
userData = {
com.hugojourdan.ColorFlow = {
"0" = 0;
"1" = 0;
"10" = 0;
"11" = 0;
"2" = 0;
"3" = 0;
"4" = 0;
"5" = 0;
"6" = 0;
"7" = 0;
"8" = 0;
"9" = 0;
};
};
width = 228;
}
);
metricLeft = "=H";
metricRight = "=H";
unicode = 73;
userData = {
KernOnName = I;
};
}
{
glyphname = J;
kernLeft = J;
kernRight = J;
layers = (
{
anchors = (
{
name = bottom;
pos = (271,0);
},
{
name = top;
pos = (301,680);
}
);
layerId = "C5561BE3-178F-4E91-92CF-CFC72B047BCB";
shapes = (
{
closed = 1;
nodes = (
(255,680,l),
(255,172,ls),
(255,99,o),
(232,76,o),
(154,76,cs),
(44,76,l),
(44,0,l),
(178,0,ls),
(296,0,o),
(347,51,o),
(347,156,cs),
(347,680,l)
);
}
);
userData = {
com.hugojourdan.ColorFlow = {
"0" = 0;
"1" = 0;
"10" = 0;
"11" = 0;
"2" = 0;
"3" = 0;
"4" = 0;
"5" = 0;
"6" = 0;
"7" = 0;
"8" = 0;
"9" = 0;
};
};
width = 437;
},
{
anchors = (
{
name = bottom;
pos = (262,0);
},
{
name = top;
pos = (332,680);
}
);
layerId = "89695F39-7340-4A9C-8DD1-5D7FBCD503D3";
shapes = (
{
closed = 1;
nodes = (
(250,680,l),
(250,235,ls),
(250,154,o),
(231,138,o),
(135,138,cs),
(32,138,l),
(32,0,l),
(185,0,ls),
(363,0,o),
(414,74,o),
(414,210,cs),
(414,680,l)
);
}
);
userData = {
com.hugojourdan.ColorFlow = {
"0" = 0;
"1" = 0;
"10" = 0;
"11" = 0;
"2" = 0;
"3" = 0;
"4" = 0;
"5" = 0;
"6" = 0;
"7" = 0;
"8" = 0;
"9" = 0;
};
};
width = 464;
},
{
anchors = (
{
name = bottom;
pos = (251,0);
},
{
name = top;
pos = (251,680);
}
);
associatedMasterId = "C5561BE3-178F-4E91-92CF-CFC72B047BCB";
color = 0;
layerId = "EAB6834C-E4F4-40E6-8A4A-CEE0684E5BD0";
name = "Feb 8, 25 at 21:47";
shapes = (
{
closed = 1;
nodes = (
(347,680,l),
(347,205,ls),
(347,110,o),
(302,62,o),
(224,62,cs),
(147,62,o),
(99,109,o),
(99,205,c),
(23,205,l),
(23,57,o),
(107,-10,o),
(225,-10,cs),
(353,-10,o),
(427,67,o),
(427,205,cs),
(427,680,l)
);
}
);
userData = {
com.hugojourdan.ColorFlow = {
"0" = 0;
"1" = 0;
"10" = 0;
"11" = 0;
"2" = 0;
"3" = 0;
"4" = 0;
"5" = 0;
"6" = 0;
"7" = 0;
"8" = 0;
"9" = 0;
};
};
width = 496;
},
{
anchors = (
{
name = bottom;
pos = (251,0);
},
{
name = top;
pos = (251,680);
}
);
associatedMasterId = "C5561BE3-178F-4E91-92CF-CFC72B047BCB";
color = 0;
layerId = "33EC7922-0844-40FC-8AFE-3E8CE9F98075";
name = "Apr 23, 25 at 11:38";
shapes = (
{
closed = 1;
nodes = (
(345,680,l),
(345,175,ls),
(345,97,o),
(301,58,o),
(224,58,cs),
(154,58,o),
(108,96,o),
(104,175,c),
(23,175,l),
(27,48,o),
(104,-12,o),
(225,-12,cs),
(353,-12,o),
(427,55,o),
(427,175,cs),
(427,680,l)
);
}
);
userData = {
com.hugojourdan.ColorFlow = {
"0" = 0;
"1" = 0;
"10" = 0;
"11" = 0;
"2" = 0;
"3" = 0;
"4" = 0;
"5" = 0;
"6" = 0;
"7" = 0;
"8" = 0;
"9" = 0;
};
};
width = 497;
},
{
anchors = (
{
name = bottom;
pos = (271,0);
},
{
name = top;
pos = (271,680);
}
);
associatedMasterId = "C5561BE3-178F-4E91-92CF-CFC72B047BCB";
color = 1;
layerId = "51A8D250-2737-492F-8D9D-F5C54B581782";
name = "Apr 25, 25 at 02:02";
shapes = (
{
closed = 1;
nodes = (
(365,680,l),
(365,175,ls),
(365,98,o),
(321,60,o),
(244,60,cs),
(174,60,o),
(128,97,o),
(124,175,c),
(33,175,l),
(37,45,o),
(118,-16,o),
(245,-16,cs),
(379,-16,o),
(457,52,o),
(457,175,cs),
(457,680,l)
);
}
);
userData = {
com.hugojourdan.ColorFlow = {
"0" = 0;
"1" = 0;
"10" = 0;
"11" = 0;
"2" = 0;
"3" = 0;
"4" = 0;
"5" = 0;
"6" = 0;
"7" = 0;
"8" = 0;
"9" = 0;
};
};
width = 536;
},
{
anchors = (
{
name = bottom;
pos = (255,0);
},
{
name = top;
pos = (255,680);
}
);
associatedMasterId = "89695F39-7340-4A9C-8DD1-5D7FBCD503D3";
color = 0;
layerId = "243C922D-2B2C-46F0-BA8F-B34DF5283604";
name = v1;
shapes = (
{
closed = 1;
nodes = (
(314,680,l),
(314,235,ls),
(314,166,o),
(294,130,o),
(241,130,cs),
(186,130,o),
(165,170,o),
(165,235,c),
(8,235,l),
(8,64,o),
(106,-10,o),
(242,-10,cs),
(375,-10,o),
(474,59,o),
(474,230,cs),
(474,680,l)
);
}
);
userData = {
com.hugojourdan.ColorFlow = {
"0" = 0;
"1" = 0;
"10" = 0;
"11" = 0;
"2" = 0;
"3" = 0;
"4" = 0;
"5" = 0;
"6" = 0;
"7" = 0;
"8" = 0;
"9" = 0;
};
};
width = 510;
},
{
anchors = (
{
name = bottom;
pos = (271,0);
},
{
name = top;
pos = (411,680);
}
);
associatedMasterId = "C5561BE3-178F-4E91-92CF-CFC72B047BCB";
color = 4;
layerId = "75A6E717-F4DE-4CD9-BEEA-17871CA601D3";
name = "May 5, 25 at 13:29";
shapes = (
{
closed = 1;
nodes = (
(365,680,l),
(365,175,ls),
(365,98,o),
(320,60,o),
(248,60,cs),
(174,60,o),
(129,102,o),
(124,175,c),
(33,175,l),
(38,47,o),
(118,-16,o),
(245,-16,cs),
(379,-16,o),
(457,52,o),
(457,175,cs),
(457,680,l)
);
}
);
userData = {
com.hugojourdan.ColorFlow = {
"0" = 0;
"1" = 0;
"10" = 0;
"11" = 0;
"2" = 0;
"3" = 0;
"4" = 0;
"5" = 0;
"6" = 0;
"7" = 0;
"8" = 0;
"9" = 0;
};
};
width = 542;
},
{
anchors = (
{
name = bottom;
pos = (278,0);
},
{
name = top;
pos = (278,680);
}
);
associatedMasterId = "89695F39-7340-4A9C-8DD1-5D7FBCD503D3";
color = 3;
layerId = "8E94174E-6773-4A62-AF0B-FCC1AB0AA59B";
name = "May 5, 25 at 13:31";
shapes = (
{
closed = 1;
nodes = (
(358,680,l),
(358,205,ls),
(358,148,o),
(325,120,o),
(271,120,cs),
(215,120,o),
(181,151,o),
(177,205,c),
(16,205,l),
(22,57,o),
(117,-16,o),
(268,-16,cs),
(429,-16,o),
(522,63,o),
(522,205,cs),
(522,680,l)
);
}
);
userData = {
com.hugojourdan.ColorFlow = {
"0" = 0;
"1" = 0;
"10" = 0;
"11" = 0;
"2" = 0;
"3" = 0;
"4" = 0;
"5" = 0;
"6" = 0;
"7" = 0;
"8" = 0;
"9" = 0;
};
};
width = 558;
}
);
unicode = 74;
}
{
glyphname = K;
kernLeft = H;
kernRight = K;
layers = (
{
anchors = (
{
name = bottom;
pos = (321,0);
},
{
name = top;
pos = (321,680);
}
);
layerId = "C5561BE3-178F-4E91-92CF-CFC72B047BCB";
shapes = (
{
closed = 1;
nodes = (
(186,0,l),
(186,680,l),
(94,680,l),
(94,0,l)
);
},
{
closed = 1;
nodes = (
(487,0,l),
(608,0,l),
(268,380,l),
(262,315,l),
(598,680,l),
(489,680,l),
(185,345,l)
);
}
);
userData = {
com.hugojourdan.ColorFlow = {
"0" = 0;
"1" = 0;
"10" = 0;
"11" = 0;
"2" = 0;
"3" = 0;
"4" = 0;
"5" = 0;
"6" = 0;
"7" = 0;
"8" = 0;
"9" = 0;
};
};
width = 629;
},
{
anchors = (
{
name = bottom;
pos = (349,0);
},
{
name = top;
pos = (349,680);
}
);
layerId = "89695F39-7340-4A9C-8DD1-5D7FBCD503D3";
shapes = (
{
closed = 1;
nodes = (
(218,0,l),
(218,680,l),
(54,680,l),
(54,0,l)
);
},
{
closed = 1;
nodes = (
(480,0,l),
(682,0,l),
(373,401,l),
(373,310,l),
(678,680,l),
(483,680,l),
(217,350,l)
);
}
);
userData = {
com.hugojourdan.ColorFlow = {
"0" = 0;
"1" = 0;
"10" = 0;
"11" = 0;
"2" = 0;
"3" = 0;
"4" = 0;
"5" = 0;
"6" = 0;
"7" = 0;
"8" = 0;
"9" = 0;
};
};
width = 675;
},
{
anchors = (
{
name = bottom;
pos = (286,0);
},
{
name = top;
pos = (286,680);
}
);
associatedMasterId = "C5561BE3-178F-4E91-92CF-CFC72B047BCB";
color = 0;
layerId = "783ED0FD-EFDF-43A5-87A7-A3FF52648589";
name = "Feb 8, 25 at 21:49";
shapes = (
{
closed = 1;
nodes = (
(154,0,l),
(154,680,l),
(73,680,l),
(73,0,l)
);
},
{
closed = 1;
nodes = (
(445,0,l),
(550,0,l),
(210,380,l),
(210,313,l),
(547,680,l),
(445,680,l),
(147,345,l)
);
}
);
userData = {
com.hugojourdan.ColorFlow = {
"0" = 0;
"1" = 0;
"10" = 0;
"11" = 0;
"2" = 0;
"3" = 0;
"4" = 0;
"5" = 0;
"6" = 0;
"7" = 0;
"8" = 0;
"9" = 0;
};
};
width = 573;
},
{
anchors = (
{
name = bottom;
pos = (287,0);
},
{
name = top;
pos = (287,680);
}
);
associatedMasterId = "C5561BE3-178F-4E91-92CF-CFC72B047BCB";
color = 0;
layerId = "AE1C01BE-7677-48A9-B09E-DD765730023D";
name = "Apr 23, 25 at 11:42";
shapes = (
{
closed = 1;
nodes = (
(155,0,l),
(155,680,l),
(73,680,l),
(73,0,l)
);
},
{
closed = 1;
nodes = (
(153,344,l),
(450,0,l),
(559,0,l),
(224,380,l),
(222,313,l),
(552,680,l),
(450,680,l),
(153,346,l)
);
}
);
userData = {
com.hugojourdan.ColorFlow = {
"0" = 0;
"1" = 0;
"10" = 0;
"11" = 0;
"2" = 0;
"3" = 0;
"4" = 0;
"5" = 0;
"6" = 0;
"7" = 0;
"8" = 0;
"9" = 0;
};
};
width = 582;
},
{
anchors = (
{
name = bottom;
pos = (297,0);
},
{
name = top;
pos = (297,680);
}
);
associatedMasterId = "C5561BE3-178F-4E91-92CF-CFC72B047BCB";
color = 1;
layerId = "64353570-318C-458B-A265-D370F8B80CF8";
name = "Apr 25, 25 at 02:02";
shapes = (
{
closed = 1;
nodes = (
(175,0,l),
(175,680,l),
(83,680,l),
(83,0,l)
);
},
{
closed = 1;
nodes = (
(173,344,l),
(470,0,l),
(590,0,l),
(255,380,l),
(253,313,l),
(583,680,l),
(470,680,l),
(173,346,l)
);
}
);
userData = {
com.hugojourdan.ColorFlow = {
"0" = 0;
"1" = 0;
"10" = 0;
"11" = 0;
"2" = 0;
"3" = 0;
"4" = 0;
"5" = 0;
"6" = 0;
"7" = 0;
"8" = 0;
"9" = 0;
};
};
width = 613;
},
{
anchors = (
{
name = bottom;
pos = (312,0);
},
{
name = top;
pos = (312,680);
}
);
associatedMasterId = "89695F39-7340-4A9C-8DD1-5D7FBCD503D3";
color = 0;
layerId = "73C246EF-A57C-429E-A9A1-95F3294DF283";
name = v1;
shapes = (
{
closed = 1;
nodes = (
(207,0,l),
(207,680,l),
(47,680,l),
(47,0,l)
);
},
{
closed = 1;
nodes = (
(408,0,l),
(605,0,l),
(336,386,l),
(336,307,l),
(604,680,l),
(410,680,l),
(185,345,l)
);
}
);
userData = {
com.hugojourdan.ColorFlow = {
"0" = 0;
"1" = 0;
"10" = 0;
"11" = 0;
"2" = 0;
"3" = 0;
"4" = 0;
"5" = 0;
"6" = 0;
"7" = 0;
"8" = 0;
"9" = 0;
};
};
width = 623;
}
);
metricLeft = "=H";
metricRight = "=V-5";
unicode = 75;
userData = {
KernOnName = K;
};
}
{
glyphname = L;
kernLeft = H;
kernRight = L;
layers = (
{
anchors = (
{
name = bottom;
pos = (302,0);
},
{
name = center;
pos = (272,340);
},
{
name = top;
pos = (135,680);
},
{
name = topright;
pos = (221,680);
}
);
layerId = "C5561BE3-178F-4E91-92CF-CFC72B047BCB";
shapes = (
{
closed = 1;
nodes = (
(529,0,l),
(529,76,l),
(181,76,l),
(181,680,l),
(89,680,l),
(89,0,l)
);
}
);
userData = {
com.hugojourdan.ColorFlow = {
"0" = 0;
"1" = 0;
"10" = 0;
"11" = 0;
"2" = 0;
"3" = 0;
"4" = 0;
"5" = 0;
"6" = 0;
"7" = 0;
"8" = 0;
"9" = 0;
};
};
width = 554;
},
{
anchors = (
{
name = bottom;
pos = (256,0);
},
{
name = center;
pos = (256,340);
},
{
name = top;
pos = (113,680);
},
{
name = topright;
pos = (300,680);
}
);
associatedMasterId = "C5561BE3-178F-4E91-92CF-CFC72B047BCB";
color = 0;
layerId = "EE49DD0F-3EAA-4C07-B6E6-7FE89CC40780";
name = "Feb 7, 25 at 22:53";
shapes = (
{
closed = 1;
nodes = (
(154,0,l),
(154,680,l),
(73,680,l),
(73,0,l)
);
},
{
closed = 1;
nodes = (
(483,0,l),
(483,73,l),
(108,73,l),
(108,0,l)
);
}
);
userData = {
com.hugojourdan.ColorFlow = {
"0" = 0;
"1" = 0;
"10" = 0;
"11" = 0;
"2" = 0;
"3" = 0;
"4" = 0;
"5" = 0;
"6" = 0;
"7" = 0;
"8" = 0;
"9" = 0;
};
};
width = 516;
},
{
anchors = (
{
name = bottom;
pos = (278,0);
},
{
name = center;
pos = (257,340);
},
{
name = top;
pos = (129,680);
},
{
name = topright;
pos = (241,680);
}
);
layerId = "89695F39-7340-4A9C-8DD1-5D7FBCD503D3";
shapes = (
{
closed = 1;
nodes = (
(519,0,l),
(519,138,l),
(213,138,l),
(213,680,l),
(49,680,l),
(49,0,l)
);
}
);
userData = {
com.hugojourdan.ColorFlow = {
"0" = 0;
"1" = 0;
"10" = 0;
"11" = 0;
"2" = 0;
"3" = 0;
"4" = 0;
"5" = 0;
"6" = 0;
"7" = 0;
"8" = 0;
"9" = 0;
};
};
width = 538;
},
{
anchors = (
{
name = bottom;
pos = (256,0);
},
{
name = center;
pos = (256,340);
},
{
name = top;
pos = (113,680);
},
{
name = topright;
pos = (300,680);
}
);
associatedMasterId = "C5561BE3-178F-4E91-92CF-CFC72B047BCB";
color = 0;
layerId = "BDDC1899-23B4-47D8-830F-9C74B4D0E64E";
name = "Apr 23, 25 at 11:38";
shapes = (
{
closed = 1;
nodes = (
(155,0,l),
(155,680,l),
(73,680,l),
(73,0,l)
);
},
{
closed = 1;
nodes = (
(503,0,l),
(503,70,l),
(108,70,l),
(108,0,l)
);
}
);
userData = {
com.hugojourdan.ColorFlow = {
"0" = 0;
"1" = 0;
"10" = 0;
"11" = 0;
"2" = 0;
"3" = 0;
"4" = 0;
"5" = 0;
"6" = 0;
"7" = 0;
"8" = 0;
"9" = 0;
};
};
width = 536;
},
{
anchors = (
{
name = bottom;
pos = (255,0);
},
{
name = center;
pos = (255,340);
},
{
name = top;
pos = (127,680);
},
{
name = topright;
pos = (319,680);
}
);
associatedMasterId = "89695F39-7340-4A9C-8DD1-5D7FBCD503D3";
color = 0;
layerId = "52DE5E88-4469-4ECE-9D15-878DF4409EBF";
name = v1;
shapes = (
{
closed = 1;
nodes = (
(207,0,l),
(207,680,l),
(47,680,l),
(47,0,l)
);
},
{
closed = 1;
nodes = (
(493,0,l),
(493,146,l),
(82,146,l),
(82,0,l)
);
}
);
userData = {
com.hugojourdan.ColorFlow = {
"0" = 0;
"1" = 0;
"10" = 0;
"11" = 0;
"2" = 0;
"3" = 0;
"4" = 0;
"5" = 0;
"6" = 0;
"7" = 0;
"8" = 0;
"9" = 0;
};
};
width = 510;
}
);
metricLeft = "=H";
unicode = 76;
userData = {
KernOnName = L;
};
}
